SplineFontDB: 3.0
FontName: Navilu
FullName: Navilu
FamilyName: Navilu
Weight: Normal
Copyright: Navilu - Kannada Unicode Handwriting FONT\n\nCopyright (C) 2005-2010, Indian Institute of Science,Bangalore.\nCopyright (C) 2011-2012, Aravinda VK <hallimanearavind@gmail.com> http://aravindavk.in\n\nThis Font Software is licensed under the SIL Open Font License, Version 1.1.\nThis license is copied below, and is also available with a FAQ at:\nhttp://scripts.sil.org/OFL
Version: 1.2
ItalicAngle: 0
UnderlinePosition: -288
UnderlineWidth: 64
Ascent: 1638
Descent: 410
LayerCount: 2
Layer: 0 1 "Back"  1
Layer: 1 1 "Fore"  0
FSType: 8
OS2Version: 0
OS2_WeightWidthSlopeOnly: 0
OS2_UseTypoMetrics: 1
CreationTime: 1062090407
ModificationTime: 1344622239
PfmFamily: 81
TTFWeight: 400
TTFWidth: 5
LineGap: 224
VLineGap: 0
Panose: 0 0 4 0 0 0 0 0 0 0
OS2TypoAscent: 12
OS2TypoAOffset: 1
OS2TypoDescent: -946
OS2TypoDOffset: 1
OS2TypoLinegap: 224
OS2WinAscent: -35
OS2WinAOffset: 1
OS2WinDescent: -45
OS2WinDOffset: 1
HheadAscent: -35
HheadAOffset: 1
HheadDescent: 45
HheadDOffset: 1
OS2SubXSize: 205
OS2SubYSize: 205
OS2SubXOff: 0
OS2SubYOff: 240
OS2SupXSize: 205
OS2SupYSize: 205
OS2SupXOff: 0
OS2SupYOff: 1360
OS2StrikeYSize: 102
OS2StrikeYPos: 400
OS2Vendor: '    '
OS2CodePages: 00000000.00000000
OS2UnicodeRanges: 00400000.00000000.00000000.00000000
Lookup: 4 0 0 "'rphf' Reph Form in Kannada lookup 0"  {"'rphf' Reph Form in Kannada lookup 0 subtable"  } ['rphf' ('knda' <'dflt' > ) ]
Lookup: 6 0 0 "'blws' Below Base Substitutions in Kannada lookup 1"  {"'blws' Below Base Substitutions in Kannada lookup 1 subtable"  } ['blws' ('knda' <'dflt' > ) ]
Lookup: 6 0 0 "'psts' Post Base Substitutions in Kannada lookup 2"  {"'psts' Post Base Substitutions in Kannada lookup 2 contextual 0"  "'psts' Post Base Substitutions in Kannada lookup 2 contextual 1"  } ['psts' ('knda' <'dflt' > ) ]

StartChar: .notdef
Encoding: 65536 -1 0
Width: 1024
GlyphClass: 2
Flags: W
LayerCount: 2
Fore
SplineSet
128 0 m 1,0,-1
 128 2048 l 1,1,-1
 896 2048 l 1,2,-1
 896 0 l 1,3,-1
 128 0 l 1,0,-1
256 128 m 1,4,-1
 768 128 l 1,5,-1
 768 1920 l 1,6,-1
 256 1920 l 1,7,-1
 256 128 l 1,4,-1
EndSplineSet
Validated: 1
EndChar

StartChar: glyph4
Encoding: 33 33 4
Width: 575
GlyphClass: 2
Flags: W
LayerCount: 2
Fore
SplineSet
274 543 m 1,0,1
 274 898 274 898 436 1309 c 0,2,3
 467 1387 467 1387 467 1462 c 0,4,5
 467 1540 467 1540 397 1540 c 0,6,7
 264 1540 264 1540 182 1083 c 0,8,9
 129 787 129 787 127 518 c 1,10,-1
 127 424 l 1,11,12
 133 366 133 366 180 365 c 0,13,14
 276 362 276 362 276 487 c 2,15,-1
 276 518 l 2,16,17
 276 537 276 537 274 543 c 1,0,1
158 23 m 1,18,19
 229 23 229 23 274 82 c 0,20,21
 317 138 317 138 319 209 c 0,22,23
 320 234 320 234 289 285 c 1,24,25
 257 316 257 316 211 317 c 0,26,27
 143 319 143 319 92 268 c 0,28,29
 47 223 47 223 43 147 c 0,30,31
 41 102 41 102 76 61 c 0,32,33
 105 28 105 28 158 23 c 1,18,19
EndSplineSet
Validated: 41
EndChar

StartChar: u0C08
Encoding: 34 34 5
Width: 528
GlyphClass: 2
Flags: W
LayerCount: 2
Fore
SplineSet
424 1765 m 1,0,1
 337 1765 337 1765 187.5 1606.5 c 128,-1,2
 38 1448 38 1448 37 1348 c 0,3,4
 35 1212 35 1212 182 1178 c 1,5,6
 275 1178 275 1178 347.5 1243.5 c 128,-1,7
 420 1309 420 1309 424 1401 c 0,8,9
 426 1441 426 1441 389 1473 c 0,10,11
 363 1495 363 1495 307 1501 c 1,12,13
 257 1501 257 1501 207 1448 c 1,14,15
 222 1534 222 1534 424 1671 c 1,16,17
 485 1696 485 1696 485 1726 c 0,18,19
 485 1733 485 1733 465 1753 c 1,20,21
 465 1753 465 1753 424 1765 c 1,0,1
EndSplineSet
Validated: 41
EndChar

StartChar: multiply
Encoding: 37 37 7
Width: 1927
GlyphClass: 2
Flags: W
LayerCount: 2
Fore
SplineSet
1825 672 m 0,0,1
 1825 351 1825 351 1610 258 c 0,2,3
 1558 236 1558 236 1483 236 c 0,4,5
 1182 236 1182 236 1182 539 c 0,6,7
 1182 730 1182 730 1272 852 c 0,8,9
 1370 985 1370 985 1556 985 c 0,10,11
 1686 985 1686 985 1753 901 c 0,12,13
 1825 811 1825 811 1825 672 c 0,0,1
1362 1720 m 1,14,15
 1362 1704 1362 1704 1358 1694 c 1,16,17
 1358 1679 1358 1679 1352 1665 c 1,18,19
 1352 1647 1352 1647 1350 1638 c 1,20,-1
 766 117 l 1,21,22
 766 76 766 76 741 53 c 0,23,24
 726 39 726 39 684 33 c 0,25,26
 680 33 680 33 657 29 c 1,27,28
 591 29 591 29 567 86 c 1,29,30
 573 91 573 91 580 129 c 1,31,-1
 580 176 l 1,32,-1
 1163 1724 l 2,33,34
 1186 1786 1186 1786 1264 1798 c 1,35,36
 1338 1798 1338 1798 1362 1720 c 1,14,15
745 1278 m 0,37,38
 745 954 745 954 532 864 c 0,39,40
 479 842 479 842 406 842 c 0,41,42
 102 842 102 842 102 1145 c 0,43,44
 102 1338 102 1338 193 1458 c 1,45,46
 292 1591 292 1591 477 1591 c 0,47,48
 610 1591 610 1591 681 1499 c 0,49,50
 745 1415 745 1415 745 1278 c 0,37,38
1618 647 m 1,51,52
 1598 693 1598 693 1587 737 c 1,53,54
 1569 774 1569 774 1546 780 c 1,55,56
 1501 780 1501 780 1456 692 c 0,57,58
 1413 608 1413 608 1411 514 c 0,59,60
 1410 487 1410 487 1433 459 c 128,-1,61
 1456 431 1456 431 1483 428 c 1,62,63
 1539 437 1539 437 1571 496 c 1,64,65
 1618 555 1618 555 1618 647 c 1,51,52
539 1253 m 1,66,67
 519 1299 519 1299 508 1343 c 1,68,69
 490 1381 490 1381 467 1386 c 1,70,71
 422 1386 422 1386 377 1298 c 0,72,73
 336 1219 336 1219 334 1120 c 0,74,75
 333 1092 333 1092 356 1063 c 0,76,77
 373 1041 373 1041 406 1034 c 1,78,79
 459 1044 459 1044 494 1102 c 1,80,81
 539 1159 539 1159 539 1253 c 1,66,67
EndSplineSet
Validated: 1
EndChar

StartChar: Oslash
Encoding: 39 39 8
Width: 528
GlyphClass: 2
Flags: W
LayerCount: 2
Fore
SplineSet
98 1178 m 1,0,1
 187 1178 187 1178 334 1333 c 0,2,3
 476 1484 476 1484 485 1595 c 1,4,5
 485 1729 485 1729 338 1765 c 1,6,7
 246 1765 246 1765 172 1698 c 1,8,9
 103 1634 103 1634 98 1540 c 0,10,11
 96 1502 96 1502 131 1470 c 0,12,13
 163 1441 163 1441 215 1440 c 1,14,15
 262 1438 262 1438 315 1495 c 1,16,17
 300 1409 300 1409 98 1270 c 1,18,19
 37 1245 37 1245 37 1214 c 0,20,21
 37 1205 37 1205 57 1190 c 1,22,23
 62 1185 62 1185 98 1178 c 1,0,1
EndSplineSet
Validated: 41
EndChar

StartChar: u0C02
Encoding: 40 40 9
Width: 891
GlyphClass: 2
Flags: W
LayerCount: 2
Fore
SplineSet
543 -436 m 0,0,1
 615 -437 615 -437 682 -403 c 0,2,3
 753 -368 753 -368 791 -311 c 1,4,5
 791 -249 791 -249 721 -227 c 1,6,7
 696 -227 696 -227 674 -258 c 1,8,9
 634 -311 634 -311 543 -311 c 0,10,11
 370 -311 370 -311 264 12 c 0,12,13
 184 257 184 257 180 477 c 0,14,15
 175 756 175 756 317 1012 c 0,16,17
 455 1259 455 1259 705 1399 c 0,18,19
 788 1445 788 1445 797 1491 c 1,20,21
 797 1511 797 1511 776 1532 c 1,22,23
 764 1548 764 1548 721 1577 c 1,24,25
 401 1432 401 1432 218 1125 c 0,26,27
 43 830 43 830 41 469 c 0,28,29
 40 177 40 177 147 -90 c 0,30,31
 286 -434 286 -434 543 -436 c 0,0,1
EndSplineSet
Validated: 41
EndChar

StartChar: u0C03
Encoding: 41 41 10
Width: 1100
GlyphClass: 2
Flags: W
LayerCount: 2
Fore
SplineSet
139 -420 m 0,0,1
 501 -420 501 -420 748 -53 c 0,2,3
 965 270 965 270 965 655 c 0,4,5
 965 974 965 974 803 1251 c 0,6,7
 613 1577 613 1577 315 1577 c 0,8,9
 202 1577 202 1577 47 1468 c 1,10,11
 47 1405 47 1405 92 1360 c 1,12,13
 116 1360 116 1360 141 1372 c 0,14,15
 175 1388 175 1388 186 1391 c 1,16,17
 217 1434 217 1434 315 1446 c 1,18,19
 517 1446 517 1446 674 1198 c 0,20,21
 829 954 829 954 834 625 c 0,22,23
 838 348 838 348 645 41 c 0,24,25
 435 -294 435 -294 170 -297 c 0,26,27
 133 -297 133 -297 8 -274 c 1,28,-1
 -53 -242 l 1,29,30
 -84 -242 -84 -242 -109 -350 c 1,31,32
 7 -420 7 -420 139 -420 c 0,0,1
EndSplineSet
Validated: 41
EndChar

StartChar: u0C0A
Encoding: 42 42 11
Width: 1161
GlyphClass: 2
Flags: W
LayerCount: 2
Fore
SplineSet
1051 524 m 1,0,1
 1041 477 1041 477 1033.5 468.5 c 128,-1,2
 1026 460 1026 460 985 455 c 1,3,-1
 737 455 l 1,4,-1
 915 279 l 1,5,6
 931 257 931 257 934 229 c 1,7,8
 934 210 934 210 911 178 c 1,9,10
 877 152 877 152 862 150 c 1,11,12
 844 150 844 150 817 176 c 1,13,-1
 801 193 l 1,14,-1
 637 354 l 1,15,-1
 637 92 l 1,16,17
 634 62 634 62 616 47 c 1,18,19
 603 33 603 33 565 23 c 1,20,21
 517 32 517 32 509.5 38.5 c 128,-1,22
 502 45 502 45 496 90 c 1,23,-1
 496 346 l 1,24,-1
 315 166 l 1,25,26
 290 150 290 150 266 147 c 1,27,28
 241 147 241 147 215 168 c 1,29,30
 190 199 190 199 186 219 c 1,31,32
 186 229 186 229 211 264 c 1,33,-1
 403 455 l 1,34,-1
 96 455 l 2,35,36
 59 455 59 455 43 508 c 1,37,-1
 47 559 l 1,38,39
 69 590 69 590 96 596 c 1,40,-1
 395 596 l 1,41,-1
 188 805 l 2,42,43
 181 812 181 812 178 842 c 1,44,45
 178 864 178 864 188 877 c 1,46,-1
 227 911 l 1,47,48
 270 919 270 919 289 905 c 1,49,-1
 496 696 l 1,50,-1
 496 981 l 2,51,52
 496 1018 496 1018 547 1032 c 1,53,-1
 598 1026 l 1,54,55
 637 1005 637 1005 637 981 c 2,56,-1
 637 688 l 1,57,-1
 842 893 l 2,58,59
 849 900 849 900 877 903 c 1,60,61
 901 903 901 903 913 893 c 1,62,-1
 946 852 l 1,63,64
 959 810 959 810 942 793 c 2,65,-1
 745 596 l 1,66,-1
 983 596 l 2,67,68
 1004 596 1004 596 1030 578 c 1,69,70
 1035 572 1035 572 1051 524 c 1,0,1
EndSplineSet
Validated: 1
EndChar

StartChar: glyph12
Encoding: 43 43 12
Width: 1161
GlyphClass: 2
Flags: W
LayerCount: 2
Fore
SplineSet
1083 526 m 1,0,-1
 1079 475 l 1,1,2
 1055 436 1055 436 1032 436 c 2,3,-1
 647 436 l 1,4,-1
 647 90 l 2,5,6
 647 69 647 69 629 43 c 1,7,8
 615 35 615 35 575 23 c 1,9,10
 527 32 527 32 522 39 c 1,11,12
 518 42 518 42 508 88 c 1,13,-1
 506 113 l 1,14,-1
 506 436 l 1,15,-1
 145 436 l 1,16,17
 115 439 115 439 98 459 c 1,18,19
 84 469 84 469 76 508 c 1,20,21
 81 551 81 551 90 565 c 1,22,23
 100 572 100 572 141 578 c 1,24,-1
 506 578 l 1,25,-1
 506 979 l 2,26,27
 506 1014 506 1014 559 1030 c 1,28,-1
 612 1026 l 1,29,30
 640 1006 640 1006 647 979 c 1,31,-1
 647 578 l 1,32,-1
 1032 578 l 2,33,34
 1069 578 1069 578 1083 526 c 1,0,-1
EndSplineSet
Validated: 1
EndChar

StartChar: glyph13
Encoding: 44 44 13
Width: 633
GlyphClass: 2
Flags: W
LayerCount: 2
Fore
SplineSet
68 -260 m 0,0,1
 152 -260 152 -260 295 -100 c 0,2,3
 435 56 435 56 438 162 c 0,4,5
 440 223 440 223 406 276 c 1,6,7
 377 319 377 319 315 326 c 1,8,9
 219 326 219 326 151 264 c 128,-1,10
 83 202 83 202 68 109 c 1,11,12
 68 60 68 60 100.5 30.5 c 128,-1,13
 133 1 133 1 182 0 c 0,14,15
 254 -2 254 -2 291 70 c 1,16,17
 288 -19 288 -19 68 -176 c 0,18,19
 39 -196 39 -196 27 -209 c 1,20,21
 25 -209 25 -209 16 -215 c 1,22,23
 16 -260 16 -260 68 -260 c 0,0,1
EndSplineSet
Validated: 41
EndChar

StartChar: u0C0C
Encoding: 45 45 14
Width: 903
GlyphClass: 2
Flags: W
LayerCount: 2
Fore
SplineSet
817 682 m 2,0,1
 817 636 817 636 815 629 c 0,2,3
 809 609 809 609 774 606 c 1,4,-1
 172 608 l 1,5,6
 135 617 135 617 135 651 c 2,7,-1
 135 705 l 2,8,9
 135 732 135 732 141 748 c 1,10,11
 151 764 151 764 205 764 c 2,12,-1
 766 764 l 2,13,14
 755 764 755 764 783 747 c 0,15,16
 817 727 817 727 817 721 c 2,17,-1
 817 682 l 2,0,1
EndSplineSet
EndChar

StartChar: u0C0E
Encoding: 46 46 15
Width: 537
GlyphClass: 2
Flags: W
LayerCount: 2
Fore
SplineSet
186 8 m 0,0,1
 263 6 263 6 328 70 c 0,2,3
 386 126 386 126 395 217 c 1,4,5
 395 267 395 267 354 305 c 1,6,7
 313 337 313 337 240 340 c 0,8,9
 163 343 163 343 102.5 283.5 c 128,-1,10
 42 224 42 224 33 147 c 1,11,12
 33 90 33 90 77.5 50 c 128,-1,13
 122 10 122 10 186 8 c 0,0,1
EndSplineSet
Validated: 41
EndChar

StartChar: glyph16
Encoding: 47 47 16
Width: 1049
GlyphClass: 2
Flags: W
LayerCount: 2
Fore
SplineSet
1020 1348 m 1,0,1
 1017 1342 1017 1342 1013 1333 c 128,-1,2
 1009 1324 1009 1324 1006 1319 c 0,3,4
 1001 1307 1001 1307 993 1290 c 1,5,6
 990 1274 990 1274 983 1264 c 2,7,-1
 -10 -258 l 1,8,9
 -27 -322 -27 -322 -113 -340 c 0,10,11
 -117 -340 -117 -340 -141 -346 c 1,12,13
 -162 -346 -162 -346 -190 -328 c 0,14,15
 -214 -312 -214 -312 -217 -289 c 1,16,17
 -215 -287 -215 -287 -190 -246 c 1,18,19
 -190 -227 -190 -227 -180 -199 c 1,20,-1
 821 1350 l 2,21,22
 863 1414 863 1414 942 1425 c 1,23,24
 976 1425 976 1425 995 1403 c 1,25,26
 1020 1388 1020 1388 1020 1348 c 1,0,1
EndSplineSet
Validated: 1
EndChar

StartChar: u0C05
Encoding: 48 48 17
Width: 1167
GlyphClass: 2
Flags: W
LayerCount: 2
Fore
SplineSet
1231 944 m 0,0,1
 1233 635 1233 635 993 338 c 1,2,3
 736 18 736 18 393 -6 c 0,4,5
 268 -15 268 -15 186 92 c 0,6,7
 114 187 114 187 113 322 c 1,8,9
 108 628 108 628 408 965 c 0,10,11
 536 1109 536 1109 733 1219 c 0,12,13
 914 1319 914 1319 1026 1321 c 0,14,15
 1077 1322 1077 1322 1135 1274 c 1,16,17
 1189 1228 1189 1228 1192 1198 c 0,18,19
 1192 1192 1192 1192 1161 1180 c 1,20,21
 1126 1169 1126 1169 1110 1151 c 1,22,23
 1230 1111 1230 1111 1231 944 c 0,0,1
1120 944 m 0,24,25
 1121 985 1121 985 1094 1040 c 0,26,27
 1072 1083 1072 1083 1022 1090 c 1,28,29
 991 1090 991 1090 944 1051 c 128,-1,30
 897 1012 897 1012 893 1012 c 1,31,-1
 893 1063 l 1,32,33
 606 903 606 903 449 684 c 1,34,35
 312 495 312 495 305 315 c 0,36,37
 303 260 303 260 319 207 c 0,38,39
 341 137 341 137 389 135 c 0,40,41
 435 134 435 134 523 182 c 0,42,43
 599 223 599 223 645 264 c 2,44,-1
 850 449 l 2,45,46
 932 522 932 522 1025 683.5 c 128,-1,47
 1118 845 1118 845 1120 944 c 0,24,25
EndSplineSet
Validated: 33
EndChar

StartChar: u0C06
Encoding: 49 49 18
Width: 1167
GlyphClass: 2
Flags: W
LayerCount: 2
Fore
SplineSet
1090 1188 m 1,0,1
 1090 1149 1090 1149 1049 1071 c 0,2,3
 1041 1057 1041 1057 768 594 c 0,4,5
 527 186 527 186 524 31 c 0,6,7
 524 13 524 13 526 -6 c 0,8,9
 527 -18 527 -18 532 -41 c 1,10,11
 532 -49 532 -49 522 -49 c 1,12,13
 522 -49 522 -49 489 -33 c 128,-1,14
 456 -17 456 -17 385 20 c 1,15,16
 335 48 335 48 334 113 c 0,17,18
 332 191 332 191 381 326 c 0,19,20
 425 446 425 446 475 528 c 0,21,22
 634 788 634 788 862 1090 c 1,23,-1
 836 1118 l 1,24,-1
 625 1038 l 1,25,26
 612 1030 612 1030 578 1016 c 1,27,28
 569 1016 569 1016 584 1042 c 1,29,30
 584 1086 584 1086 666 1133 c 0,31,32
 971 1307 971 1307 1016 1309 c 0,33,34
 1043 1310 1043 1310 1069 1257 c 0,35,36
 1080 1236 1080 1236 1090 1188 c 1,0,1
EndSplineSet
Validated: 33
EndChar

StartChar: glyph19
Encoding: 50 50 19
Width: 1167
GlyphClass: 2
Flags: W
LayerCount: 2
Fore
SplineSet
1243 1010 m 0,0,1
 1244 908 1244 908 1180 838 c 0,2,3
 1077 726 1077 726 745 547 c 0,4,5
 421 372 421 372 221 221 c 1,6,-1
 250 193 l 1,7,-1
 1026 328 l 1,8,9
 987 200 987 200 950 150 c 1,10,11
 892 68 892 68 780 47 c 0,12,13
 481 -8 481 -8 309 -10 c 0,14,15
 212 -11 212 -11 180 12 c 0,16,17
 100 72 100 72 98 227 c 0,18,19
 97 342 97 342 408 543 c 0,20,21
 507 607 507 607 834 784 c 0,22,23
 1135 948 1135 948 1135 1073 c 0,24,25
 1135 1147 1135 1147 1038 1149 c 0,26,27
 876 1153 876 1153 459 944 c 1,28,-1
 459 911 l 1,29,-1
 596 893 l 1,30,31
 657 893 657 893 657 872 c 0,32,33
 657 866 657 866 625 854 c 1,34,-1
 399 811 l 1,35,36
 385 811 385 811 367 805 c 1,37,38
 353 804 353 804 336 801 c 1,39,40
 309 801 309 801 307 862 c 0,41,42
 306 905 306 905 346 999 c 0,43,44
 379 1076 379 1076 418 1120 c 0,45,46
 499 1212 499 1212 705 1268 c 0,47,48
 872 1313 872 1313 1034 1317 c 0,49,50
 1148 1319 1148 1319 1194 1262 c 1,51,52
 1241 1202 1241 1202 1243 1010 c 0,0,1
EndSplineSet
Validated: 33
EndChar

StartChar: glyph20
Encoding: 51 51 20
Width: 1167
GlyphClass: 2
Flags: W
LayerCount: 2
Fore
SplineSet
1296 1069 m 0,0,1
 1296 955 1296 955 1182 881 c 0,2,3
 1102 829 1102 829 944 795 c 2,4,-1
 614 723 l 1,5,-1
 614 684 l 1,6,7
 838 649 838 649 887 625 c 1,8,9
 1031 569 1031 569 1042 426 c 0,10,11
 1052 298 1052 298 870 162 c 0,12,13
 654 0 654 0 307 0 c 0,14,15
 136 0 136 0 33 53 c 0,16,17
 -43 92 -43 92 -43 147 c 0,18,19
 -43 184 -43 184 17.5 252 c 128,-1,20
 78 320 78 320 117 326 c 0,21,22
 119 326 119 326 127 322 c 1,23,24
 118 310 118 310 68 252 c 1,25,26
 209 190 209 190 299 190 c 0,27,28
 506 190 506 190 735 299 c 0,29,30
 932 393 932 393 934 459 c 0,31,32
 936 535 936 535 768 575 c 0,33,34
 655 602 655 602 528 604 c 0,35,36
 428 606 428 606 340 586 c 0,37,38
 304 578 304 578 285 578 c 0,39,40
 277 578 277 578 274 598 c 1,41,42
 299 782 299 782 479 795 c 0,43,44
 649 807 649 807 881 877 c 0,45,46
 1185 968 1185 968 1188 1061 c 0,47,48
 1191 1164 1191 1164 954 1167 c 0,49,50
 751 1170 751 1170 489 1073 c 1,51,-1
 489 1038 l 1,52,-1
 549 1026 l 1,53,54
 569 1026 569 1026 584 1024 c 1,55,56
 606 1024 606 1024 608 1012 c 1,57,58
 602 1010 602 1010 588 1006 c 1,59,60
 532 995 532 995 399 993 c 0,61,62
 315 992 315 992 315 1083 c 0,63,64
 315 1176 315 1176 500 1247 c 1,65,66
 643 1303 643 1303 897 1307 c 0,67,68
 1071 1309 1071 1309 1163 1272 c 0,69,70
 1296 1218 1296 1218 1296 1069 c 0,0,1
EndSplineSet
Validated: 33
EndChar

StartChar: glyph21
Encoding: 52 52 21
Width: 1167
GlyphClass: 2
Flags: W
LayerCount: 2
Fore
SplineSet
1272 1118 m 0,0,1
 1267 1064 1267 1064 1221 1006 c 0,2,3
 1081 831 1081 831 909 557 c 1,4,5
 975 557 975 557 1016 563 c 1,6,7
 1050 564 1050 564 1100 567 c 1,8,9
 1152 567 1152 567 1155 537 c 1,10,11
 1155 509 1155 509 1071 371 c 1,12,-1
 780 338 l 1,13,14
 763 280 763 280 737 162 c 1,15,16
 737 122 737 122 772 70 c 1,17,18
 572 -29 572 -29 553 -33 c 1,19,20
 526 -33 526 -33 524 49 c 0,21,22
 524 77 524 77 543 172 c 1,23,24
 554 249 554 249 573 326 c 1,25,26
 535 326 535 326 389 311 c 0,27,28
 327 305 327 305 258 305 c 0,29,30
 175 305 175 305 158 336 c 0,31,32
 99 441 99 441 98 508 c 0,33,34
 96 633 96 633 334 838 c 0,35,36
 524 1002 524 1002 823 1155 c 0,37,38
 1111 1303 1111 1303 1212 1307 c 0,39,40
 1270 1309 1270 1309 1272 1270 c 0,41,42
 1273 1257 1273 1257 1210 1204 c 1,43,44
 1276 1167 1276 1167 1272 1118 c 0,0,1
1194 1161 m 1,45,-1
 1171 1190 l 1,46,47
 1010 1122 1010 1122 885 1051 c 0,48,49
 390 771 390 771 297 569 c 1,50,51
 297 532 297 532 393 524 c 0,52,53
 487 516 487 516 686 543 c 1,54,-1
 1194 1161 l 1,45,-1
EndSplineSet
Validated: 33
EndChar

StartChar: glyph22
Encoding: 53 53 22
Width: 1167
GlyphClass: 2
Flags: W
LayerCount: 2
Fore
SplineSet
1300 1317 m 1,0,1
 1212 1155 1212 1155 1178 1120 c 1,2,3
 1126 1079 1126 1079 1010 1079 c 2,4,-1
 653 1081 l 1,5,6
 541 993 541 993 438 821 c 1,7,8
 661 874 661 874 768 874 c 0,9,10
 904 874 904 874 991 813 c 0,11,12
 1086 746 1086 746 1090 614 c 1,13,14
 1092 500 1092 500 1016 371 c 0,15,16
 920 208 920 208 721 109 c 0,17,18
 504 0 504 0 211 0 c 0,19,20
 81 0 81 0 49.5 30 c 128,-1,21
 18 60 18 60 18 158 c 0,22,23
 18 246 18 246 160 315 c 0,24,25
 259 364 259 364 322 367 c 0,26,27
 333 367 333 367 336 365 c 1,28,29
 336 356 336 356 299 336 c 1,30,-1
 152 231 l 1,31,-1
 182 207 l 1,32,33
 530 243 530 243 774 385 c 0,34,35
 975 501 975 501 979 608 c 0,36,37
 981 652 981 652 917 682 c 0,38,39
 865 707 865 707 815 707 c 0,40,41
 716 707 716 707 554 676 c 128,-1,42
 392 645 392 645 392 640 c 0,43,44
 392 639 392 639 393 639 c 1,45,46
 346 639 346 639 315 721 c 0,47,48
 297 770 297 770 295 842 c 0,49,50
 294 882 294 882 389 1014 c 1,51,-1
 604 1239 l 2,52,53
 659 1297 659 1297 709 1309 c 0,54,55
 743 1317 743 1317 838 1317 c 2,56,-1
 1300 1317 l 1,0,1
EndSplineSet
Validated: 33
EndChar

StartChar: glyph23
Encoding: 54 54 23
Width: 1167
GlyphClass: 2
Flags: W
LayerCount: 2
Fore
SplineSet
1210 1307 m 1,0,1
 1210 1291 1210 1291 1180 1282 c 1,2,3
 1108 1249 1108 1249 850 1065 c 1,4,-1
 549 805 l 1,5,-1
 580 776 l 1,6,7
 643 802 643 802 716 833 c 128,-1,8
 789 864 789 864 846 864 c 0,9,10
 948 864 948 864 1010 790 c 128,-1,11
 1072 716 1072 716 1073 612 c 0,12,13
 1075 394 1075 394 844 180 c 0,14,15
 642 -6 642 -6 510 -6 c 0,16,17
 412 -6 412 -6 301 102 c 0,18,19
 175 226 175 226 172 395 c 0,20,21
 169 625 169 625 403 887 c 1,22,23
 579 1082 579 1082 842 1243 c 0,24,25
 915 1288 915 1288 952 1300 c 0,26,27
 979 1309 979 1309 1065 1313 c 0,28,29
 1072 1313 1072 1313 1110 1319 c 1,30,31
 1135 1320 1135 1320 1178 1323 c 1,32,33
 1208 1323 1208 1323 1210 1307 c 1,0,1
905 655 m 0,34,35
 907 756 907 756 825 756 c 0,36,37
 732 756 732 756 489 553 c 0,38,39
 415 491 415 491 393 449 c 0,40,41
 368 401 368 401 367 311 c 0,42,43
 366 262 366 262 381 217 c 0,44,45
 402 157 402 157 440 160 c 1,46,47
 605 188 605 188 750 338 c 0,48,49
 902 494 902 494 905 655 c 0,34,35
EndSplineSet
Validated: 33
EndChar

StartChar: u0C15
Encoding: 55 55 24
Width: 1167
GlyphClass: 2
Flags: W
LayerCount: 2
Fore
SplineSet
1260 1135 m 0,0,1
 1260 1112 1260 1112 1223 1075 c 1,2,3
 1212 1068 1212 1068 1193 1052.5 c 128,-1,4
 1174 1037 1174 1037 1163 1030 c 1,5,6
 704 638 704 638 563 96 c 1,7,8
 596 104 596 104 639 117 c 1,9,-1
 643 113 l 1,10,11
 643 88 643 88 532 23 c 1,12,13
 432 -37 432 -37 360 -43 c 0,14,15
 280 -50 280 -50 279 68 c 0,16,17
 277 217 277 217 565 592 c 1,18,-1
 1038 1081 l 1,19,20
 679 1088 679 1088 535 1059 c 0,21,22
 470 1046 470 1046 367 991 c 1,23,-1
 363 989 l 2,24,25
 327 971 327 971 309 965 c 1,26,27
 280 965 280 965 276 989 c 1,28,29
 276 1049 276 1049 428 1204 c 0,30,31
 533 1311 533 1311 1114 1317 c 0,32,33
 1189 1318 1189 1318 1212 1284 c 0,34,35
 1260 1216 1260 1216 1260 1135 c 0,0,1
EndSplineSet
Validated: 33
EndChar

StartChar: u0C16
Encoding: 56 56 25
Width: 1167
GlyphClass: 2
Flags: W
LayerCount: 2
Fore
SplineSet
1319 1284 m 1,0,1
 1319 1254 1319 1254 1262 1151 c 1,2,3
 1215 1090 1215 1090 1174 1090 c 0,4,5
 1153 1090 1153 1090 1139 1092 c 1,6,7
 1145 1061 1145 1061 1145 1042 c 0,8,9
 1145 1009 1145 1009 1083 954 c 2,10,-1
 727 635 l 1,11,12
 836 505 836 505 838 336 c 0,13,14
 839 218 839 218 752 129 c 0,15,16
 635 11 635 11 379 -8 c 0,17,18
 314 -13 314 -13 240 27 c 0,19,20
 162 68 162 68 162 139 c 0,21,22
 162 246 162 246 309 393 c 0,23,24
 352 436 352 436 549 608 c 1,25,26
 452 728 452 728 428 766 c 0,27,28
 375 851 375 851 375 942 c 0,29,30
 375 1159 375 1159 655 1253 c 0,31,32
 846 1318 846 1318 1044 1327 c 0,33,34
 1161 1333 1161 1333 1300 1307 c 1,35,36
 1316 1307 1316 1307 1319 1284 c 1,0,1
1128 1092 m 1,37,-1
 913 1108 l 2,38,39
 886 1110 886 1110 861 1110 c 0,40,41
 729 1110 729 1110 637 1054.5 c 128,-1,42
 545 999 545 999 543 922 c 0,43,44
 542 888 542 888 583 818 c 128,-1,45
 624 748 624 748 676 702 c 1,46,-1
 1128 1092 l 1,37,-1
696 328 m 1,47,48
 698 401 698 401 614 528 c 1,49,-1
 420 350 l 2,50,51
 305 245 305 245 305 166 c 0,52,53
 305 102 305 102 395 100 c 1,54,55
 498 99 498 99 594 160 c 0,56,57
 695 224 695 224 696 328 c 1,47,48
EndSplineSet
Validated: 33
EndChar

StartChar: u0C12
Encoding: 57 57 26
Width: 1167
GlyphClass: 2
Flags: W
LayerCount: 2
Fore
SplineSet
1241 1128 m 0,0,1
 1242 1095 1242 1095 1133 1038 c 1,2,-1
 1059 985 l 1,3,4
 1022 968 1022 968 1001 965 c 1,5,-1
 999 967 l 2,6,7
 999 968 999 968 1114 1073 c 1,8,-1
 1090 1104 l 1,9,10
 733 1012 733 1012 547 866 c 0,11,12
 399 751 399 751 397 629 c 0,13,14
 396 575 396 575 451 575 c 0,15,16
 558 575 558 575 748 672 c 0,17,18
 900 749 900 749 1014 842 c 0,19,20
 1114 923 1114 923 1149 924 c 0,21,22
 1236 926 1236 926 1239 893 c 1,23,24
 1239 870 1239 870 1174 793 c 2,25,-1
 633 156 l 2,26,27
 486 -18 486 -18 369 -31 c 0,28,29
 346 -33 346 -33 346 -16 c 0,30,31
 346 6 346 6 397 80 c 0,32,33
 435 134 435 134 436 139 c 1,34,35
 454 160 454 160 508 160 c 1,36,-1
 915 647 l 1,37,-1
 887 676 l 1,38,39
 586 467 586 467 467 467 c 0,40,41
 407 467 407 467 326 553 c 1,42,43
 231 652 231 652 231 758 c 0,44,45
 231 972 231 972 546 1154 c 1,46,47
 826 1317 826 1317 1059 1317 c 0,48,49
 1103 1317 1103 1317 1171 1245 c 128,-1,50
 1239 1173 1239 1173 1241 1128 c 0,0,1
EndSplineSet
Validated: 33
EndChar

StartChar: u0C17
Encoding: 58 58 27
Width: 637
GlyphClass: 2
Flags: W
LayerCount: 2
Fore
SplineSet
483 924 m 1,0,1
 483 981 483 981 428 1016 c 0,2,3
 387 1042 387 1042 319 1049 c 1,4,5
 235 1049 235 1049 180 989 c 0,6,7
 130 935 130 935 121 846 c 1,8,9
 121 748 121 748 266 715 c 1,10,11
 351 715 351 715 416 776 c 1,12,13
 473 831 473 831 483 924 c 1,0,1
266 6 m 0,14,15
 350 5 350 5 414.5 62 c 128,-1,16
 479 119 479 119 483 205 c 0,17,18
 486 252 486 252 424 289 c 0,19,20
 375 318 375 318 319 319 c 0,21,22
 253 321 253 321 182 266 c 1,23,24
 122 206 122 206 121 137 c 0,25,26
 119 8 119 8 266 6 c 0,14,15
EndSplineSet
Validated: 41
EndChar

StartChar: u0C14
Encoding: 59 59 28
Width: 647
GlyphClass: 2
Flags: W
LayerCount: 2
Fore
SplineSet
457 956 m 1,0,1
 457 1010 457 1010 403 1051 c 1,2,3
 351 1080 351 1080 295 1081 c 0,4,5
 210 1083 210 1083 152 1022 c 0,6,7
 102 970 102 970 92 881 c 1,8,9
 92 775 92 775 240 748 c 1,10,11
 326 748 326 748 389 811 c 0,12,13
 447 869 447 869 457 956 c 1,0,1
92 -270 m 0,14,15
 177 -270 177 -270 328 -111 c 1,16,17
 475 46 475 46 479 152 c 0,18,19
 482 216 482 216 436 264 c 0,20,21
 398 305 398 305 326 315 c 1,22,23
 236 315 236 315 168.5 251.5 c 128,-1,24
 101 188 101 188 92 98 c 1,25,26
 92 63 92 63 123 27 c 1,27,28
 156 2 156 2 201 -2 c 0,29,30
 276 -10 276 -10 309 59 c 1,31,32
 303 6 303 6 242 -57 c 0,33,34
 175 -126 175 -126 92 -186 c 0,35,36
 60 -210 60 -210 43 -217 c 1,37,38
 39 -221 39 -221 33 -225 c 1,39,40
 33 -270 33 -270 92 -270 c 0,14,15
EndSplineSet
Validated: 41
EndChar

StartChar: u0C13
Encoding: 61 61 29
Width: 1071
GlyphClass: 2
Flags: W
LayerCount: 2
Fore
SplineSet
967 735 m 2,0,1
 967 706 967 706 940 685 c 0,2,3
 923 672 923 672 893 668 c 1,4,-1
 190 668 l 1,5,-1
 190 688 l 1,6,-1
 197 672 l 1,7,8
 186 672 186 672 180 668 c 1,9,10
 171 668 171 668 158 678 c 0,11,12
 150 685 150 685 141 721 c 1,13,-1
 141 774 l 2,14,15
 141 823 141 823 299 823 c 2,16,-1
 909 823 l 2,17,18
 926 823 926 823 944 813 c 1,19,20
 967 805 967 805 967 774 c 2,21,-1
 967 735 l 2,0,1
979 365 m 1,22,-1
 975 315 l 1,23,24
 958 266 958 266 920 266 c 2,25,-1
 217 266 l 2,26,27
 147 266 147 266 145 340 c 0,28,29
 144 385 144 385 168 399 c 0,30,31
 179 406 179 406 238 414 c 1,32,-1
 920 414 l 2,33,34
 961 414 961 414 979 365 c 1,22,-1
EndSplineSet
Validated: 5
EndChar

StartChar: u0C07
Encoding: 62 62 30
Width: 854
GlyphClass: 2
Flags: W
LayerCount: 2
Fore
SplineSet
395 0 m 0,0,1
 492 0 492 0 516 279 c 1,2,3
 520 401 520 401 537 645 c 1,4,5
 562 882 562 882 643 1055 c 1,6,7
 662 1127 662 1127 674 1210 c 1,8,9
 674 1288 674 1288 618 1288 c 0,10,11
 486 1288 486 1288 403 784 c 1,12,13
 344 418 344 418 340 162 c 0,14,15
 338 0 338 0 395 0 c 0,0,1
EndSplineSet
Validated: 41
EndChar

StartChar: u0C0F
Encoding: 63 63 31
Width: 981
GlyphClass: 2
Flags: W
LayerCount: 2
Fore
SplineSet
377 457 m 0,0,1
 446 631 446 631 655 795 c 0,2,3
 842 941 842 941 842 1159 c 0,4,5
 842 1246 842 1246 758 1319 c 0,6,7
 676 1389 676 1389 586 1391 c 1,8,9
 435 1392 435 1392 309 1311 c 0,10,11
 169 1220 169 1220 147 1081 c 1,12,13
 147 988 147 988 225 934 c 1,14,15
 257 934 257 934 287 950 c 1,16,17
 306 964 306 964 315 989 c 1,18,19
 315 1014 315 1014 307 1026 c 1,20,21
 291 1046 291 1046 291 1081 c 0,22,23
 291 1145 291 1145 399 1212 c 0,24,25
 499 1274 499 1274 569 1274 c 0,26,27
 618 1274 618 1274 653 1225 c 0,28,29
 685 1180 685 1180 686 1128 c 0,30,31
 688 986 688 986 424 764 c 0,32,33
 209 583 209 583 201 403 c 0,34,35
 200 388 200 388 219 369 c 1,36,37
 232 359 232 359 264 365 c 1,38,39
 340 365 340 365 377 457 c 0,0,1
147 -16 m 1,40,41
 215 -16 215 -16 270.5 27 c 128,-1,42
 326 70 326 70 330 139 c 0,43,44
 332 175 332 175 307 217 c 1,45,46
 283 250 283 250 240 256 c 1,47,48
 175 256 175 256 118 208.5 c 128,-1,49
 61 161 61 161 61 92 c 0,50,51
 61 54 61 54 86 18 c 0,52,53
 105 -10 105 -10 147 -16 c 1,40,41
EndSplineSet
Validated: 41
EndChar

StartChar: glyph32
Encoding: 65539 -1 32
Width: 1495
GlyphClass: 2
Flags: W
LayerCount: 2
Fore
SplineSet
186 8 m 0,0,1
 263 6 263 6 328 70 c 0,2,3
 386 126 386 126 395 217 c 1,4,5
 395 267 395 267 354 305 c 1,6,7
 313 337 313 337 240 340 c 0,8,9
 163 343 163 343 102.5 283.5 c 128,-1,10
 42 224 42 224 33 147 c 1,11,12
 33 90 33 90 77.5 50 c 128,-1,13
 122 10 122 10 186 8 c 0,0,1
717 8 m 0,14,15
 800 6 800 6 862 71 c 0,16,17
 922 133 922 133 926 217 c 0,18,19
 928 269 928 269 885 305 c 0,20,21
 847 337 847 337 772 340 c 0,22,23
 698 343 698 343 633.5 281 c 128,-1,24
 569 219 569 219 565 147 c 1,25,26
 563 90 563 90 607.5 50 c 128,-1,27
 652 10 652 10 717 8 c 0,14,15
1233 8 m 0,28,29
 1316 6 1316 6 1378 71 c 0,30,31
 1438 133 1438 133 1442 217 c 0,32,33
 1444 269 1444 269 1401 305 c 0,34,35
 1363 337 1363 337 1288 340 c 0,36,37
 1215 343 1215 343 1150 281 c 128,-1,38
 1085 219 1085 219 1081 147 c 1,39,40
 1079 90 1079 90 1123.5 50 c 128,-1,41
 1168 10 1168 10 1233 8 c 0,28,29
EndSplineSet
Validated: 41
EndChar

StartChar: glyph33
Encoding: 65540 -1 33
Width: 946
GlyphClass: 2
Flags: W
LayerCount: 2
Fore
SplineSet
854 682 m 2,0,1
 854 637 854 637 852 629 c 1,2,3
 842 609 842 609 811 606 c 1,4,-1
 111 608 l 1,5,6
 72 618 72 618 72 651 c 2,7,-1
 72 705 l 2,8,9
 72 727 72 727 80 748 c 1,10,11
 90 764 90 764 141 764 c 2,12,-1
 803 764 l 2,13,14
 854 764 854 764 854 721 c 2,15,-1
 854 682 l 2,0,1
EndSplineSet
Validated: 1
EndChar

StartChar: exclam
Encoding: 65541 -1 34
Width: 1587
GlyphClass: 2
Flags: W
LayerCount: 2
Fore
SplineSet
1507 682 m 2,0,1
 1507 637 1507 637 1505 629 c 1,2,3
 1494 606 1494 606 1462 606 c 2,4,-1
 111 608 l 1,5,6
 72 618 72 618 72 651 c 2,7,-1
 72 705 l 2,8,9
 72 727 72 727 80 748 c 1,10,11
 90 764 90 764 141 764 c 2,12,-1
 1456 764 l 2,13,14
 1507 764 1507 764 1507 721 c 2,15,-1
 1507 682 l 2,0,1
EndSplineSet
Validated: 1
EndChar

StartChar: quotedbl
Encoding: 65542 -1 35
Width: 1161
GlyphClass: 2
Flags: W
LayerCount: 2
Fore
SplineSet
1083 633 m 1,0,-1
 1079 580 l 1,1,2
 1055 543 1055 543 1032 543 c 2,3,-1
 145 543 l 2,4,5
 121 543 121 543 100 563 c 1,6,7
 83 583 83 583 78 614 c 1,8,9
 78 657 78 657 91 669 c 0,10,11
 100 676 100 676 141 684 c 1,12,-1
 1032 684 l 2,13,14
 1068 684 1068 684 1083 633 c 1,0,-1
575 825 m 0,15,16
 637 825 637 825 688 877 c 0,17,18
 735 924 735 924 741 991 c 1,19,20
 741 1085 741 1085 616 1092 c 0,21,22
 575 1094 575 1094 504 1042 c 1,23,24
 459 998 459 998 451 936 c 1,25,26
 451 893 451 893 487 856 c 1,27,28
 527 825 527 825 575 825 c 0,15,16
545 135 m 1,29,30
 606 134 606 134 656.5 185.5 c 128,-1,31
 707 237 707 237 709 301 c 0,32,33
 710 344 710 344 678 370.5 c 128,-1,34
 646 397 646 397 586 403 c 1,35,36
 530 403 530 403 475 354 c 0,37,38
 426 311 426 311 420 248 c 1,39,40
 420 198 420 198 457 167.5 c 128,-1,41
 494 137 494 137 545 135 c 1,29,30
EndSplineSet
Validated: 41
EndChar

StartChar: numbersign
Encoding: 65543 -1 36
Width: 903
GlyphClass: 2
Flags: W
LayerCount: 2
Fore
SplineSet
817 682 m 2,0,1
 817 636 817 636 815 629 c 0,2,3
 809 609 809 609 774 606 c 1,4,-1
 172 608 l 1,5,6
 135 617 135 617 135 651 c 2,7,-1
 135 705 l 2,8,9
 135 732 135 732 141 748 c 1,10,11
 151 764 151 764 205 764 c 2,12,-1
 766 764 l 2,13,14
 755 764 755 764 783 747 c 0,15,16
 817 727 817 727 817 721 c 2,17,-1
 817 682 l 2,0,1
EndSplineSet
Validated: 1
EndChar

StartChar: dollar
Encoding: 65544 -1 37
Width: 1161
GlyphClass: 2
Flags: W
LayerCount: 2
Fore
SplineSet
913 893 m 1,0,-1
 946 852 l 1,1,2
 959 810 959 810 942 793 c 2,3,-1
 672 522 l 1,4,-1
 915 279 l 1,5,6
 931 257 931 257 934 229 c 1,7,8
 934 210 934 210 911 178 c 1,9,10
 877 152 877 152 862 150 c 1,11,12
 844 150 844 150 817 176 c 1,13,-1
 801 193 l 1,14,-1
 569 420 l 1,15,-1
 315 166 l 1,16,17
 290 150 290 150 266 147 c 1,18,19
 241 147 241 147 215 168 c 1,20,21
 190 199 190 199 186 219 c 1,22,23
 186 229 186 229 211 264 c 1,24,-1
 469 522 l 1,25,-1
 188 805 l 2,26,27
 181 812 181 812 178 842 c 1,28,29
 178 864 178 864 188 877 c 1,30,-1
 227 911 l 1,31,32
 270 919 270 919 289 905 c 1,33,-1
 569 623 l 1,34,-1
 842 893 l 2,35,36
 849 900 849 900 877 903 c 1,37,38
 901 903 901 903 913 893 c 1,0,-1
EndSplineSet
Validated: 1
EndChar

StartChar: percent
Encoding: 3202 3202 38
Width: 1044
GlyphClass: 2
Flags: W
LayerCount: 2
Fore
SplineSet
199 487 m 0,0,1
 197 655 197 655 291 803 c 0,2,3
 393 965 393 965 563 967 c 0,4,5
 666 968 666 968 733 838 c 0,6,7
 786 735 786 735 786 618 c 0,8,9
 786 447 786 447 699 306 c 0,10,11
 599 145 599 145 438 139 c 1,12,13
 324 136 324 136 256 260 c 0,14,15
 200 362 200 362 199 487 c 0,0,1
424 0 m 0,16,17
 643 -2 643 -2 784 172 c 0,18,19
 903 318 903 318 934 557 c 1,20,21
 934 798 934 798 831 947 c 128,-1,22
 728 1096 728 1096 563 1100 c 0,23,24
 341 1105 341 1105 190 901 c 0,25,26
 59 724 59 724 59 487 c 0,27,28
 59 310 59 310 150 166 c 1,29,30
 252 1 252 1 424 0 c 0,16,17
EndSplineSet
Validated: 41
EndChar

StartChar: ampersand
Encoding: 3203 3203 39
Width: 637
GlyphClass: 2
Flags: W
LayerCount: 2
Fore
SplineSet
188 205 m 0,0,1
 188 357 188 357 266 367 c 1,2,3
 305 367 305 367 305 289 c 0,4,5
 305 222 305 222 287.5 181.5 c 128,-1,6
 270 141 270 141 236 141 c 0,7,8
 188 141 188 141 188 205 c 0,0,1
459 289 m 0,9,10
 459 489 459 489 274 489 c 0,11,12
 161 489 161 489 98 406 c 0,13,14
 42 331 42 331 41 211 c 0,15,16
 39 6 39 6 236 2 c 0,17,18
 346 0 346 0 407 93 c 0,19,20
 459 173 459 173 459 289 c 0,9,10
242 801 m 0,21,22
 242 838 242 838 266 903 c 0,23,24
 288 962 288 962 328 971 c 1,25,26
 342 971 342 971 356 934 c 1,27,28
 362 912 362 912 375 885 c 1,29,30
 375 840 375 840 354 801 c 0,31,32
 330 754 330 754 289 745 c 1,33,34
 242 745 242 745 242 801 c 0,21,22
289 623 m 0,35,36
 397 620 397 620 457 709 c 0,37,38
 504 779 504 779 506 901 c 0,39,40
 507 982 507 982 462 1041.5 c 128,-1,41
 417 1101 417 1101 336 1102 c 0,42,43
 224 1104 224 1104 152 1016 c 1,44,45
 97 936 97 936 96 815 c 0,46,47
 94 627 94 627 289 623 c 0,35,36
EndSplineSet
Validated: 41
EndChar

StartChar: quotesingle
Encoding: 3205 3205 40
Width: 1587
GlyphClass: 2
Flags: W
LayerCount: 2
Fore
SplineSet
258 336 m 1,0,1
 602 475 602 475 692 475 c 0,2,3
 803 475 803 475 821 469 c 1,4,5
 862 467 862 467 877 451 c 1,6,-1
 971 584 l 1,7,8
 823 676 823 676 823 838 c 0,9,10
 823 1010 823 1010 993 1010 c 0,11,12
 1119 1010 1119 1010 1188 883 c 0,13,14
 1241 784 1241 784 1241 645 c 0,15,16
 1241 418 1241 418 1091.5 288.5 c 128,-1,17
 942 159 942 159 715 158 c 0,18,19
 404 156 404 156 258 336 c 1,0,1
715 18 m 1,20,21
 1005 17 1005 17 1192 186.5 c 128,-1,22
 1379 356 1379 356 1380 645 c 1,23,24
 1382 869 1382 869 1284 1006 c 0,25,26
 1189 1139 1189 1139 1001 1141 c 0,27,28
 855 1142 855 1142 764 1059 c 0,29,30
 677 980 677 980 676 838 c 0,31,32
 674 682 674 682 793 592 c 1,33,34
 770 606 770 606 684 606 c 0,35,36
 629 606 629 606 438 539 c 0,37,38
 264 477 264 477 197 444 c 1,39,40
 152 489 152 489 150 637 c 1,41,42
 147 776 147 776 211 862 c 1,43,44
 239 776 239 776 344 776 c 0,45,46
 511 776 511 776 514 946 c 0,47,48
 517 1084 517 1084 350 1118 c 1,49,50
 174 1118 174 1118 82 944 c 0,51,52
 12 812 12 812 10 614 c 0,53,54
 9 478 9 478 41 414 c 1,55,56
 4 409 4 409 -82 393 c 1,57,58
 -127 393 -127 393 -137 389 c 1,59,60
 -163 389 -163 389 -182 397 c 0,61,62
 -195 403 -195 403 -252 414 c 1,63,64
 -285 414 -285 414 -285 381 c 2,65,-1
 -285 305 l 2,66,67
 -285 242 -285 242 -160 242 c 0,68,69
 -8 242 -8 242 96 305 c 1,70,71
 178 160 178 160 367 82 c 0,72,73
 517 20 517 20 715 18 c 1,20,21
EndSplineSet
Validated: 41
EndChar

StartChar: parenleft
Encoding: 3206 3206 41
Width: 1589
GlyphClass: 2
Flags: W
LayerCount: 2
Fore
SplineSet
971 866 m 0,0,1
 971 924 971 924 1014 954 c 0,2,3
 1051 981 1051 981 1118 991 c 1,4,5
 1181 991 1181 991 1219 963 c 1,6,7
 1248 946 1248 946 1249 905 c 0,8,9
 1251 836 1251 836 1162 774 c 1,10,11
 1094 728 1094 728 1010 705 c 1,12,13
 971 722 971 722 971 866 c 0,0,1
246 311 m 1,14,15
 401 311 401 311 608 379 c 1,16,17
 803 442 803 442 946 535 c 1,18,19
 966 497 966 497 1010 410 c 1,20,21
 1032 362 1032 362 1032 336 c 0,22,23
 1032 146 1032 146 662 141 c 0,24,25
 357 137 357 137 246 311 c 1,14,15
645 2 m 0,26,27
 1173 -3 1173 -3 1180 319 c 1,28,29
 1182 461 1182 461 1063 596 c 1,30,31
 1185 641 1185 641 1268 709 c 0,32,33
 1385 804 1385 804 1389 897 c 0,34,35
 1397 1118 1397 1118 1110 1122 c 0,36,37
 834 1126 834 1126 831 866 c 0,38,39
 830 722 830 722 885 651 c 1,40,41
 513 449 513 449 207 436 c 1,42,43
 160 483 160 483 160 657 c 0,44,45
 160 743 160 743 215 866 c 1,46,47
 215 804 215 804 354 774 c 1,48,49
 410 774 410 774 451 821 c 0,50,51
 489 866 489 866 489 930 c 0,52,53
 489 1070 489 1070 322 1100 c 1,54,55
 168 1100 168 1100 88 946 c 0,56,57
 26 828 26 828 20 657 c 0,58,59
 18 572 18 572 51 428 c 1,60,61
 -62 428 -62 428 -150 489 c 0,62,63
 -185 514 -185 514 -205 514 c 0,64,65
 -222 514 -222 514 -248 479 c 0,66,67
 -268 451 -268 451 -274 420 c 1,68,69
 -274 373 -274 373 -168 340 c 0,70,71
 -107 321 -107 321 98 311 c 1,72,73
 240 6 240 6 645 2 c 0,26,27
EndSplineSet
Validated: 41
EndChar

StartChar: parenright
Encoding: 3207 3207 42
Width: 1470
GlyphClass: 2
Flags: W
LayerCount: 2
Fore
SplineSet
463 197 m 1,0,1
 463 284 463 284 515.5 333.5 c 128,-1,2
 568 383 568 383 655 389 c 1,3,4
 761 368 761 368 881 258 c 1,5,6
 702 135 702 135 578 135 c 0,7,8
 475 135 475 135 463 197 c 1,0,1
569 2 m 0,9,10
 650 -2 650 -2 778 54 c 1,11,12
 902 106 902 106 965 166 c 1,13,14
 1027 94 1027 94 1128 -121 c 1,15,16
 1150 -229 1150 -229 1198 -229 c 0,17,18
 1231 -229 1231 -229 1260 -211 c 1,19,20
 1290 -196 1290 -196 1298 -168 c 1,21,22
 1298 -29 1298 -29 1059 236 c 1,23,24
 1251 459 1251 459 1251 698 c 0,25,26
 1251 850 1251 850 1164 945 c 128,-1,27
 1077 1040 1077 1040 920 1040 c 0,28,29
 727 1040 727 1040 625 877 c 1,30,31
 613 968 613 968 475 1016 c 0,32,33
 425 1033 425 1033 377 1040 c 1,34,35
 220 1040 220 1040 113 954 c 0,36,37
 10 872 10 872 8 715 c 0,38,39
 6 519 6 519 147 514 c 0,40,41
 172 513 172 513 210 548.5 c 128,-1,42
 248 584 248 584 252 614 c 1,43,44
 221 645 221 645 207 645 c 0,45,46
 166 645 166 645 147 698 c 1,47,48
 147 785 147 785 218.5 847 c 128,-1,49
 290 909 290 909 377 909 c 0,50,51
 504 909 504 909 539 784 c 1,52,53
 538 780 538 780 532 762 c 1,54,55
 524 748 524 748 524 731 c 1,56,57
 516 701 516 701 516 684 c 0,58,59
 516 680 516 680 532 664 c 0,60,61
 535 662 535 662 578 645 c 1,62,63
 658 645 658 645 707 733 c 0,64,65
 770 847 770 847 812.5 875 c 128,-1,66
 855 903 855 903 920 909 c 1,67,68
 1006 909 1006 909 1061 842 c 1,69,70
 1102 774 1102 774 1104 684 c 0,71,72
 1108 520 1108 520 973 344 c 1,73,74
 808 506 808 506 647 506 c 0,75,76
 511 506 511 506 415 419 c 128,-1,77
 319 332 319 332 315 197 c 0,78,79
 313 112 313 112 381 53 c 1,80,81
 445 8 445 8 569 2 c 0,9,10
EndSplineSet
Validated: 41
EndChar

StartChar: asterisk
Encoding: 3208 3208 43
Width: 1706
GlyphClass: 2
Flags: W
LayerCount: 2
Fore
SplineSet
1149 784 m 0,0,1
 1149 827 1149 827 1184 862 c 1,2,3
 1220 892 1220 892 1264 901 c 1,4,5
 1323 901 1323 901 1350 864 c 0,6,7
 1360 850 1360 850 1366 815 c 1,8,9
 1366 711 1366 711 1202 653 c 1,10,11
 1149 707 1149 707 1149 784 c 0,0,1
506 870 m 1,12,13
 602 822 602 822 688 733 c 0,14,15
 780 638 780 638 801 537 c 1,16,17
 706 506 706 506 420 506 c 0,18,19
 228 506 228 506 180 528 c 1,20,21
 232 728 232 728 506 870 c 1,12,13
158 414 m 1,22,23
 244 375 244 375 436 375 c 1,24,-1
 801 420 l 1,25,26
 745 296 745 296 648 219 c 0,27,28
 541 135 541 135 414 135 c 0,29,30
 301 135 301 135 227 197 c 0,31,32
 160 253 160 253 152 369 c 0,33,34
 150 387 150 387 158 414 c 1,22,23
406 -2 m 0,35,36
 605 -4 605 -4 752 123 c 1,37,38
 880 235 880 235 946 444 c 1,39,40
 1033 447 1033 447 1149 498 c 1,41,42
 1311 366 1311 366 1311 258 c 0,43,44
 1311 215 1311 215 1257 121 c 1,45,46
 1194 75 1194 75 1194 37 c 0,47,48
 1194 14 1194 14 1249 -10 c 0,49,50
 1260 -15 1260 -15 1311 -27 c 1,51,52
 1342 -27 1342 -27 1401 92 c 0,53,54
 1447 185 1447 185 1458 250 c 1,55,56
 1458 327 1458 327 1397 430 c 0,57,58
 1361 489 1361 489 1288 559 c 1,59,60
 1477 644 1477 644 1481 815 c 0,61,62
 1483 900 1483 900 1419 967 c 0,63,64
 1358 1031 1358 1031 1264 1032 c 0,65,66
 1160 1034 1160 1034 1080.5 964 c 128,-1,67
 1001 894 1001 894 1001 784 c 0,68,69
 1001 698 1001 698 1071 592 c 1,70,71
 1026 559 1026 559 940 559 c 1,72,73
 925 802 925 802 662 932 c 1,74,75
 739 932 739 932 745 985 c 1,76,77
 745 994 745 994 721 1022 c 1,78,79
 696 1040 696 1040 668 1040 c 0,80,81
 593 1042 593 1042 498 985 c 1,82,83
 412 1010 412 1010 336 1010 c 0,84,85
 276 1010 276 1010 211 993 c 1,86,87
 312 1076 312 1076 567 1155 c 0,88,89
 810 1230 810 1230 954 1233 c 0,90,91
 992 1234 992 1234 1022 1223 c 1,92,93
 1066 1211 1066 1211 1063 1180 c 1,94,95
 1063 1149 1063 1149 1040 1149 c 1,96,97
 1040 1137 1040 1137 1026 1122 c 1,98,-1
 1024 1118 l 1,99,100
 1024 1049 1024 1049 1110 1049 c 0,101,102
 1151 1049 1151 1049 1182 1095 c 0,103,104
 1210 1136 1210 1136 1210 1180 c 0,105,106
 1213 1354 1213 1354 946 1358 c 0,107,108
 800 1360 800 1360 496 1251 c 0,109,110
 145 1126 145 1126 -29 985 c 0,111,112
 -46 971 -46 971 -59 954 c 1,113,114
 -59 924 -59 924 -16 887 c 1,115,116
 -8 884 -8 884 10 877 c 1,117,-1
 31 877 l 2,118,119
 35 877 35 877 51 893 c 1,120,121
 64 909 64 909 152 909 c 2,122,-1
 180 909 l 2,123,124
 295 909 295 909 328 901 c 1,125,126
 97 737 97 737 41 553 c 1,127,128
 -137 574 -137 574 -176 623 c 1,129,130
 -180 644 -180 644 -197 664 c 0,131,132
 -202 670 -202 670 -211 684 c 1,133,134
 -247 684 -247 684 -286.5 643 c 128,-1,135
 -326 602 -326 602 -328 567 c 1,136,137
 -329 529 -329 529 -207 473 c 0,138,139
 -113 430 -113 430 10 420 c 1,140,141
 10 2 10 2 406 -2 c 0,35,36
EndSplineSet
Validated: 41
EndChar

StartChar: plus
Encoding: 3209 3209 44
Width: 2013
GlyphClass: 2
Flags: W
LayerCount: 2
Fore
SplineSet
389 -6 m 0,0,1
 601 -9 601 -9 714 196 c 0,2,3
 805 362 805 362 807 592 c 0,4,5
 808 715 808 715 842 815 c 0,6,7
 891 961 891 961 985 963 c 0,8,9
 1044 964 1044 964 1081 924 c 0,10,11
 1111 891 1111 891 1118 823 c 1,12,-1
 1118 735 l 2,13,14
 1118 633 1118 633 1102 567 c 1,15,16
 1071 300 1071 300 1071 281 c 0,17,18
 1071 -6 1071 -6 1341 -6 c 0,19,20
 1542 -6 1542 -6 1665 199 c 0,21,22
 1766 367 1766 367 1767 584 c 0,23,24
 1769 804 1769 804 1726 965 c 0,25,26
 1688 1109 1688 1109 1612 1118 c 1,27,28
 1595 1118 1595 1118 1559 1083 c 0,29,30
 1528 1054 1528 1054 1520 1032 c 1,31,32
 1520 981 1520 981 1550 903 c 0,33,34
 1568 857 1568 857 1595 776 c 1,35,36
 1610 699 1610 699 1612 584 c 1,37,38
 1613 453 1613 453 1548 299 c 0,39,40
 1473 120 1473 120 1350 119 c 0,41,42
 1221 117 1221 117 1219 250 c 0,43,44
 1218 302 1218 302 1229 395 c 0,45,46
 1238 473 1238 473 1257 567 c 1,47,48
 1257 738 1257 738 1264 784 c 1,49,50
 1264 1094 1264 1094 985 1094 c 0,51,52
 806 1094 806 1094 727 922 c 0,53,54
 686 832 686 832 653 592 c 1,55,56
 653 444 653 444 594 307 c 0,57,58
 520 137 520 137 389 135 c 0,59,60
 282 134 282 134 215 250 c 0,61,62
 162 343 162 343 160 467 c 0,63,64
 155 769 155 769 285 877 c 1,65,66
 285 829 285 829 325 796 c 0,67,68
 352 774 352 774 397 768 c 1,69,70
 454 768 454 768 494 817 c 1,71,72
 527 869 527 869 528 932 c 0,73,74
 530 1009 530 1009 481 1047 c 0,75,76
 445 1076 445 1076 360 1094 c 1,77,78
 196 1094 196 1094 90 856 c 0,79,80
 6 668 6 668 6 475 c 0,81,82
 6 273 6 273 96 145 c 0,83,84
 201 -3 201 -3 389 -6 c 0,0,1
EndSplineSet
Validated: 37
EndChar

StartChar: comma
Encoding: 3210 3210 45
Width: 2537
GlyphClass: 2
Flags: W
LayerCount: 2
Fore
SplineSet
397 2 m 0,0,1
 600 2 600 2 717 207 c 0,2,3
 811 372 811 372 813 598 c 0,4,5
 814 726 814 726 846 823 c 0,6,7
 893 968 893 968 991 971 c 0,8,9
 1122 974 1122 974 1122 823 c 2,10,-1
 1122 748 l 2,11,12
 1122 633 1122 633 1108 575 c 1,13,14
 1075 316 1075 316 1075 289 c 0,15,16
 1075 2 1075 2 1331 2 c 0,17,18
 1526 2 1526 2 1657 211 c 0,19,20
 1771 394 1771 394 1774 598 c 0,21,22
 1778 971 1778 971 1966 971 c 0,23,24
 2146 971 2146 971 2152 575 c 0,25,26
 2155 379 2155 379 2066 236 c 1,27,28
 2066 259 2066 259 2043.5 273.5 c 128,-1,29
 2021 288 2021 288 1974 297 c 1,30,31
 1835 297 1835 297 1835 166 c 0,32,33
 1835 8 1835 8 2013 2 c 0,34,35
 2128 -2 2128 -2 2210 166 c 0,36,37
 2287 325 2287 325 2292 575 c 0,38,39
 2296 819 2296 819 2212 965 c 0,40,41
 2133 1101 2133 1101 1966 1102 c 0,42,43
 1618 1104 1618 1104 1618 598 c 0,44,45
 1618 456 1618 456 1554 311 c 0,46,47
 1474 129 1474 129 1354 127 c 0,48,49
 1305 126 1305 126 1260 160 c 1,50,51
 1232 187 1232 187 1223 250 c 1,52,53
 1223 315 1223 315 1233 403 c 0,54,55
 1247 524 1247 524 1262 575 c 1,56,57
 1262 752 1262 752 1270 793 c 1,58,59
 1270 949 1270 949 1203.5 1024.5 c 128,-1,60
 1137 1100 1137 1100 983 1102 c 1,61,62
 819 1103 819 1103 741 942 c 0,63,64
 689 834 689 834 657 592 c 1,65,66
 657 439 657 439 602 311 c 0,67,68
 530 145 530 145 397 141 c 1,69,70
 286 139 286 139 219 258 c 0,71,72
 167 352 167 352 166 475 c 0,73,74
 164 741 164 741 289 885 c 1,75,76
 289 837 289 837 322 807 c 1,77,78
 359 782 359 782 406 776 c 1,79,80
 469 776 469 776 506 836 c 0,81,82
 537 885 537 885 537 954 c 0,83,84
 537 1017 537 1017 487 1059 c 128,-1,85
 437 1101 437 1101 375 1102 c 0,86,87
 206 1104 206 1104 96 866 c 0,88,89
 10 679 10 679 10 483 c 0,90,91
 10 184 10 184 205 57 c 0,92,93
 290 2 290 2 397 2 c 0,0,1
EndSplineSet
Validated: 41
EndChar

StartChar: hyphen
Encoding: 3211 3211 46
Width: 2302
GlyphClass: 2
Flags: W
LayerCount: 2
Fore
SplineSet
2071 516 m 0,0,1
 2071 308 2071 308 1974 162 c 0,2,3
 1867 0 1867 0 1659 0 c 0,4,5
 1531 0 1531 0 1430 51 c 0,6,7
 1314 110 1314 110 1280 225 c 1,8,9
 1262 188 1262 188 1241 162 c 0,10,11
 1112 -6 1112 -6 934 -6 c 0,12,13
 780 -6 780 -6 602 172 c 1,14,15
 551 92 551 92 464.5 44 c 128,-1,16
 378 -4 378 -4 276 -6 c 0,17,18
 10 -11 10 -11 8 250 c 0,19,20
 7 360 7 360 86 434 c 0,21,22
 160 504 160 504 276 506 c 0,23,24
 367 507 367 507 440 438.5 c 128,-1,25
 513 370 513 370 516 281 c 1,26,27
 647 412 647 412 647 614 c 0,28,29
 647 725 647 725 532 870 c 1,30,31
 532 779 532 779 455 725 c 0,32,33
 387 677 387 677 291 676 c 0,34,35
 191 674 191 674 123 727 c 0,36,37
 59 776 59 776 59 877 c 0,38,39
 59 988 59 988 160 1049 c 0,40,41
 235 1094 235 1094 360 1094 c 0,42,43
 532 1094 532 1094 666 946 c 0,44,45
 793 805 793 805 795 623 c 1,46,47
 796 431 796 431 686 258 c 1,48,49
 803 135 803 135 934 135 c 0,50,51
 1084 135 1084 135 1167 285 c 0,52,53
 1237 410 1237 410 1237 567 c 0,54,55
 1237 722 1237 722 1145 862 c 0,56,57
 1055 999 1055 999 911 1049 c 1,58,59
 851 1010 851 1010 825 1010 c 0,60,61
 802 1010 802 1010 779 1033 c 128,-1,62
 756 1056 756 1056 756 1079 c 0,63,64
 756 1117 756 1117 803 1149 c 0,65,66
 915 1225 915 1225 1067 1287 c 0,67,68
 1244 1360 1244 1360 1352 1358 c 0,69,70
 1566 1354 1566 1354 1561 1155 c 0,71,72
 1560 1118 1560 1118 1546 1085 c 1,73,74
 1529 1040 1529 1040 1499 1040 c 1,75,76
 1471 1043 1471 1043 1440 1059 c 1,77,78
 1410 1080 1410 1080 1407 1094 c 1,79,80
 1398 1102 1398 1102 1407 1124 c 0,81,82
 1408 1129 1408 1129 1411 1143 c 1,83,84
 1411 1161 1411 1161 1413 1180 c 1,85,86
 1413 1206 1413 1206 1393 1219 c 1,87,88
 1377 1234 1377 1234 1352 1233 c 0,89,90
 1186 1228 1186 1228 1020 1124 c 1,91,92
 1368 976 1368 976 1368 567 c 0,93,94
 1368 471 1368 471 1341 371 c 1,95,96
 1405 361 1405 361 1436 287 c 0,97,98
 1493 147 1493 147 1667 145 c 0,99,100
 1793 144 1793 144 1853 276 c 0,101,102
 1898 374 1898 374 1898 516 c 0,103,104
 1898 784 1898 784 1710 942 c 1,105,106
 1650 903 1650 903 1589 903 c 0,107,108
 1535 903 1535 903 1522 991 c 0,109,110
 1519 1010 1519 1010 1556 1042 c 0,111,112
 1586 1069 1586 1069 1613 1080.5 c 128,-1,113
 1640 1092 1640 1092 1694 1100 c 1,114,115
 1798 1100 1798 1100 1905 975 c 0,116,117
 2071 780 2071 780 2071 516 c 0,0,1
430 901 m 0,118,119
 430 963 430 963 346 963 c 0,120,121
 300 963 300 963 256 936 c 1,122,123
 218 907 218 907 215 877 c 1,124,125
 215 840 215 840 250 815 c 0,126,127
 281 793 281 793 322 793 c 0,128,129
 354 793 354 793 392 830.5 c 128,-1,130
 430 868 430 868 430 901 c 0,118,119
408 250 m 0,131,132
 408 294 408 294 369 338 c 0,133,134
 334 376 334 376 285 375 c 0,135,136
 147 370 147 370 152 250 c 0,137,138
 156 135 156 135 285 135 c 0,139,140
 408 135 408 135 408 250 c 0,131,132
EndSplineSet
Validated: 33
EndChar

StartChar: slash
Encoding: 3214 3214 48
Width: 1497
GlyphClass: 2
Flags: W
LayerCount: 2
Fore
SplineSet
274 2 m 0,0,1
 514 2 514 2 606 205 c 1,2,3
 606 109 606 109 686 53 c 0,4,5
 746 12 746 12 854 2 c 1,6,7
 1054 2 1054 2 1167 168 c 0,8,9
 1262 307 1262 307 1264 522 c 1,10,11
 1265 768 1265 768 1026 961 c 0,12,13
 805 1139 805 1139 553 1141 c 0,14,15
 318 1142 318 1142 236 1085 c 1,16,17
 188 1079 188 1079 188 1001 c 0,18,19
 188 963 188 963 219 963 c 0,20,21
 255 963 255 963 274 971 c 0,22,23
 382 1016 382 1016 528 1016 c 0,24,25
 737 1016 737 1016 920 874 c 0,26,27
 1113 725 1113 725 1118 522 c 0,28,29
 1122 393 1122 393 1059 279 c 0,30,31
 987 148 987 148 862 141 c 0,32,33
 806 138 806 138 767.5 170.5 c 128,-1,34
 729 203 729 203 723 258 c 1,35,36
 723 334 723 334 745 350 c 1,37,38
 745 363 745 363 758 385 c 1,39,40
 760 391 760 391 768 436 c 1,41,42
 768 454 768 454 748 469 c 0,43,44
 744 471 744 471 737 475 c 1,45,-1
 653 475 l 2,46,47
 636 475 636 475 602 444 c 1,48,49
 589 424 589 424 553 367 c 1,50,51
 455 148 455 148 289 141 c 0,52,53
 232 139 232 139 195.5 170.5 c 128,-1,54
 159 202 159 202 158 258 c 0,55,56
 156 333 156 333 205 367 c 1,57,58
 207 345 207 345 242 317 c 1,59,60
 273 300 273 300 305 297 c 1,61,62
 349 297 349 297 378 333 c 128,-1,63
 407 369 407 369 414 420 c 1,64,65
 414 468 414 468 371 516 c 0,66,67
 333 558 333 558 274 559 c 0,68,69
 149 561 149 561 78 469 c 0,70,71
 16 389 16 389 12 258 c 1,72,73
 10 158 10 158 86 80 c 128,-1,74
 162 2 162 2 274 2 c 0,0,1
EndSplineSet
Validated: 41
EndChar

StartChar: zero
Encoding: 3215 3215 49
Width: 1511
GlyphClass: 2
Flags: W
LayerCount: 2
Fore
SplineSet
276 6 m 0,0,1
 381 5 381 5 473 59 c 0,2,3
 560 111 560 111 608 207 c 1,4,5
 608 117 608 117 682 59 c 0,6,7
 750 6 750 6 850 6 c 0,8,9
 1056 6 1056 6 1169 180 c 0,10,11
 1264 325 1264 325 1268 547 c 0,12,13
 1271 739 1271 739 1108 924 c 0,14,15
 952 1101 952 1101 764 1104 c 1,16,17
 585 802 585 802 369 780 c 1,18,19
 298 780 298 780 250 836 c 0,20,21
 208 884 208 884 199 965 c 1,22,23
 199 1040 199 1040 277 1086 c 0,24,25
 342 1125 342 1125 424 1128 c 1,26,27
 469 1131 469 1131 469 1167 c 0,28,29
 469 1204 469 1204 456.5 1233.5 c 128,-1,30
 444 1263 444 1263 424 1251 c 1,31,32
 278 1251 278 1251 176 1178 c 1,33,34
 58 1092 58 1092 53 956 c 1,35,36
 49 816 49 816 152 733 c 0,37,38
 238 664 238 664 393 664 c 0,39,40
 625 664 625 664 834 942 c 1,41,42
 965 915 965 915 1044 793 c 0,43,44
 1115 684 1115 684 1120 539 c 0,45,46
 1124 416 1124 416 1063 289 c 0,47,48
 994 147 994 147 872 145 c 1,49,50
 727 144 727 144 725 260 c 0,51,52
 724 324 724 324 748 354 c 1,53,54
 764 403 764 403 764 438 c 0,55,56
 764 477 764 477 733 477 c 2,57,-1
 647 477 l 2,58,59
 613 477 613 477 555 369 c 0,60,61
 438 150 438 150 285 145 c 0,62,63
 235 144 235 144 197 176 c 1,64,65
 170 203 170 203 160 260 c 1,66,67
 160 290 160 290 168 317 c 0,68,69
 174 338 174 338 199 369 c 1,70,71
 223 308 223 308 307 299 c 1,72,73
 350 299 350 299 381 340 c 0,74,75
 414 385 414 385 416 430 c 0,76,77
 419 549 419 549 276 563 c 1,78,79
 149 563 149 563 76 474 c 1,80,81
 10 391 10 391 8 260 c 0,82,83
 7 140 7 140 80 72 c 0,84,85
 148 8 148 8 276 6 c 0,0,1
EndSplineSet
Validated: 41
EndChar

StartChar: one
Encoding: 3216 3216 50
Width: 1610
GlyphClass: 2
Flags: W
LayerCount: 2
Fore
SplineSet
1055 971 m 0,0,1
 1241 971 1241 971 1241 606 c 0,2,3
 1241 458 1241 458 1153 311 c 0,4,5
 1051 141 1051 141 915 141 c 0,6,7
 808 141 808 141 753 189 c 128,-1,8
 698 237 698 237 692 344 c 0,9,10
 692 358 692 358 698 375 c 1,11,-1
 715 406 l 1,12,13
 731 422 731 422 731 451 c 1,14,15
 720 464 720 464 684 475 c 1,16,-1
 606 475 l 1,17,-1
 592 459 l 2,18,19
 575 439 575 439 567 420 c 0,20,21
 465 149 465 149 266 141 c 0,22,23
 224 140 224 140 172 182 c 1,24,25
 139 221 139 221 129 289 c 1,26,27
 129 320 129 320 139 348 c 1,28,29
 152 373 152 373 168 381 c 1,30,31
 168 311 168 311 266 297 c 1,32,33
 310 297 310 297 338 339.5 c 128,-1,34
 366 382 366 382 367 428 c 0,35,36
 369 555 369 555 215 559 c 0,37,38
 132 561 132 561 68 487 c 1,39,40
 6 417 6 417 6 319 c 0,41,42
 6 179 6 179 72 96 c 0,43,44
 146 2 146 2 281 2 c 0,45,46
 462 2 462 2 598 227 c 1,47,48
 613 127 613 127 698 61 c 0,49,50
 772 4 772 4 885 2 c 0,51,52
 1100 -2 1100 -2 1237 178 c 0,53,54
 1342 316 1342 316 1389 559 c 1,55,56
 1389 1096 1389 1096 1071 1102 c 0,57,58
 898 1105 898 1105 745 915 c 1,59,60
 607 1100 607 1100 406 1102 c 0,61,62
 289 1103 289 1103 210 1046 c 0,63,64
 123 983 123 983 121 870 c 0,65,66
 120 826 120 826 156 733 c 1,67,68
 192 637 192 637 236 629 c 1,69,70
 257 629 257 629 301 655 c 0,71,72
 338 678 338 678 344 707 c 1,73,74
 344 715 344 715 336 731 c 1,75,76
 308 766 308 766 274 823 c 0,77,78
 258 851 258 851 258 885 c 0,79,80
 258 968 258 968 406 971 c 0,81,82
 543 974 543 974 684 801 c 1,83,-1
 662 745 l 1,84,85
 662 729 662 729 684 707 c 1,86,-1
 768 707 l 2,87,88
 791 707 791 707 823 745 c 1,89,90
 925 971 925 971 1055 971 c 0,0,1
EndSplineSet
Validated: 41
EndChar

StartChar: two
Encoding: 3218 3218 51
Width: 1466
GlyphClass: 2
Flags: W
LayerCount: 2
Fore
SplineSet
258 -2 m 0,0,1
 459 -4 459 -4 592 246 c 1,2,3
 598 136 598 136 702 63 c 0,4,5
 792 1 792 1 909 -2 c 0,6,7
 1058 -5 1058 -5 1148.5 79.5 c 128,-1,8
 1239 164 1239 164 1241 315 c 0,9,10
 1242 418 1242 418 1201 483 c 0,11,12
 1152 560 1152 560 1055 563 c 0,13,14
 884 569 884 569 877 416 c 0,15,16
 875 382 875 382 909 338 c 1,17,18
 942 305 942 305 993 291 c 1,19,20
 1027 301 1027 301 1051 319 c 0,21,22
 1055 321 1055 321 1071 338 c 1,23,-1
 1085 291 l 1,24,25
 1085 144 1085 144 915 137 c 0,26,27
 838 134 838 134 772 190 c 1,28,29
 716 249 716 249 715 338 c 1,30,31
 713 413 713 413 731 424 c 1,32,-1
 737 455 l 1,33,34
 737 485 737 485 715 485 c 2,35,-1
 606 485 l 2,36,37
 566 485 566 485 545 424 c 1,38,39
 404 137 404 137 266 137 c 0,40,41
 216 137 216 137 186 172 c 0,42,43
 160 203 160 203 150 260 c 1,44,45
 146 399 146 399 297 500 c 0,46,47
 477 620 477 620 487 795 c 0,48,49
 489 819 489 819 483 842 c 1,50,51
 483 1090 483 1090 236 1094 c 1,52,53
 25 1096 25 1096 -18 764 c 1,54,55
 -18 733 -18 733 6 709 c 1,56,-1
 98 709 l 2,57,58
 114 709 114 709 127 772 c 0,59,60
 164 953 164 953 258 965 c 1,61,62
 290 965 290 965 315 932 c 0,63,64
 334 908 334 908 344 850 c 1,65,66
 347 703 347 703 197 594 c 0,67,68
 10 458 10 458 6 285 c 0,69,70
 4 169 4 169 72 86 c 0,71,72
 144 -1 144 -1 258 -2 c 0,0,1
EndSplineSet
Validated: 41
EndChar

StartChar: three
Encoding: 3219 3219 52
Width: 1483
GlyphClass: 2
Flags: W
LayerCount: 2
Fore
SplineSet
258 -8 m 0,0,1
 476 -10 476 -10 592 238 c 1,2,3
 608 117 608 117 698 53 c 0,4,5
 783 -7 783 -7 905 -8 c 0,6,7
 1053 -10 1053 -10 1145 76 c 128,-1,8
 1237 162 1237 162 1239 307 c 0,9,10
 1240 408 1240 408 1198 475 c 0,11,12
 1150 553 1150 553 1053 555 c 0,13,14
 882 559 882 559 874 408 c 0,15,16
 873 375 873 375 905 330 c 1,17,18
 935 300 935 300 991 285 c 1,19,20
 1022 291 1022 291 1049 311 c 0,21,22
 1052 314 1052 314 1069 330 c 1,23,24
 1075 307 1075 307 1092 285 c 1,25,26
 1092 222 1092 222 1038 172 c 1,27,28
 981 130 981 130 913 129 c 0,29,30
 825 127 825 127 768 182 c 0,31,32
 714 234 714 234 713 330 c 1,33,34
 711 406 711 406 727 416 c 1,35,-1
 735 446 l 1,36,37
 735 477 735 477 713 477 c 2,38,-1
 614 477 l 2,39,40
 566 477 566 477 545 416 c 1,41,42
 403 129 403 129 266 129 c 0,43,44
 221 129 221 129 182 168 c 1,45,46
 150 206 150 206 150 252 c 1,47,48
 147 386 147 386 305 494 c 0,49,50
 476 610 476 610 487 786 c 0,51,52
 489 805 489 805 483 831 c 1,53,54
 483 1036 483 1036 311 1085 c 1,55,56
 367 1098 367 1098 367 1124 c 1,57,58
 361 1140 361 1140 346 1171 c 1,59,60
 342 1183 342 1183 334 1200 c 1,61,62
 334 1208 334 1208 319 1210 c 1,63,64
 319 1318 319 1318 489 1343 c 0,65,66
 523 1348 523 1348 567 1350 c 1,67,68
 633 1351 633 1351 694 1313 c 0,69,70
 752 1276 752 1276 758 1210 c 1,71,-1
 743 1180 l 1,72,73
 743 1177 743 1177 742 1163 c 128,-1,74
 741 1149 741 1149 735 1141 c 1,75,76
 735 1110 735 1110 762 1083 c 1,77,78
 776 1073 776 1073 827 1063 c 1,79,80
 874 1063 874 1063 874 1110 c 1,81,82
 895 1123 895 1123 901 1167 c 1,83,84
 901 1184 901 1184 897 1194 c 1,85,86
 897 1335 897 1335 797 1413 c 0,87,88
 712 1479 712 1479 559 1481 c 0,89,90
 408 1482 408 1482 308 1429 c 0,91,92
 182 1363 182 1363 180 1225 c 0,93,94
 179 1126 179 1126 236 1085 c 1,95,96
 24 1085 24 1085 -18 756 c 1,97,98
 -18 747 -18 747 -8 731 c 1,99,100
 -4 722 -4 722 6 702 c 1,101,-1
 98 702 l 2,102,103
 114 702 114 702 135 764 c 1,104,105
 159 942 159 942 258 954 c 1,106,107
 291 954 291 954 317 915 c 0,108,109
 337 886 337 886 344 838 c 1,110,111
 344 771 344 771 298 696 c 0,112,113
 256 628 256 628 197 586 c 0,114,115
 10 452 10 452 6 276 c 0,116,117
 4 167 4 167 75 82 c 0,118,119
 150 -7 150 -7 258 -8 c 0,0,1
EndSplineSet
Validated: 41
EndChar

StartChar: four
Encoding: 3220 3220 53
Width: 1501
GlyphClass: 2
Flags: W
LayerCount: 2
Fore
SplineSet
1182 1075 m 1,0,1
 1183 1231 1183 1231 1055 1360 c 0,2,3
 931 1484 931 1484 764 1487 c 0,4,5
 615 1490 615 1490 485 1462 c 1,6,7
 403 1430 403 1430 285 1425 c 1,8,9
 233 1424 233 1424 145 1456 c 1,10,-1
 113 1462 l 1,11,12
 102 1462 102 1462 72 1425 c 1,13,14
 63 1410 63 1410 51 1354 c 1,15,16
 51 1334 51 1334 145 1311 c 1,17,18
 190 1304 190 1304 260 1292 c 1,19,20
 248 1292 248 1292 377 1317 c 1,21,22
 424 1301 424 1301 424 1262 c 0,23,24
 424 1231 424 1231 315 1231 c 2,25,-1
 236 1231 l 2,26,27
 209 1231 209 1231 178 1241 c 0,28,29
 159 1247 159 1247 121 1268 c 1,30,31
 106 1279 106 1279 90 1284 c 1,32,33
 70 1284 70 1284 33 1253 c 1,34,35
 9 1230 9 1230 6 1200 c 1,36,37
 6 1161 6 1161 139 1135 c 0,38,39
 232 1116 232 1116 307 1114 c 0,40,41
 422 1110 422 1110 487 1130 c 0,42,43
 576 1158 576 1158 586 1262 c 1,44,45
 586 1293 586 1293 565 1317 c 1,46,47
 549 1339 549 1339 516 1339 c 1,48,49
 559 1354 559 1354 688 1354 c 2,50,-1
 725 1354 l 2,51,52
 827 1354 827 1354 932 1272 c 0,53,54
 1033 1193 1033 1193 1034 1092 c 0,55,56
 1036 974 1036 974 989 952 c 1,57,58
 989 985 989 985 956 1006 c 1,59,60
 932 1030 932 1030 895 1030 c 0,61,62
 844 1030 844 1030 807 993 c 0,63,64
 776 962 776 962 772 905 c 0,65,66
 763 767 763 767 911 752 c 1,67,68
 1043 752 1043 752 1118 850 c 0,69,70
 1180 931 1180 931 1182 1075 c 1,0,1
285 -8 m 0,71,72
 504 -10 504 -10 616 240 c 1,73,74
 632 128 632 128 727 57 c 0,75,76
 813 -7 813 -7 934 -8 c 0,77,78
 1083 -10 1083 -10 1173.5 76 c 128,-1,79
 1264 162 1264 162 1268 309 c 0,80,81
 1270 405 1270 405 1225 477 c 0,82,83
 1176 555 1176 555 1081 557 c 0,84,85
 911 561 911 561 903 410 c 0,86,87
 901 373 901 373 934 334 c 0,88,89
 959 304 959 304 1020 287 c 1,90,91
 1053 293 1053 293 1075 315 c 1,92,93
 1080 315 1080 315 1096 334 c 1,94,95
 1106 307 1106 307 1120 287 c 1,96,97
 1120 222 1120 222 1065 176 c 0,98,99
 1014 134 1014 134 942 131 c 0,100,101
 857 128 857 128 797 186 c 0,102,103
 741 240 741 240 741 334 c 2,104,-1
 741 385 l 2,105,106
 741 406 741 406 756 418 c 1,107,-1
 764 449 l 1,108,109
 764 479 764 479 741 479 c 2,110,-1
 639 479 l 2,111,112
 598 479 598 479 569 418 c 0,113,114
 435 131 435 131 291 131 c 0,115,116
 251 131 251 131 209 170 c 1,117,118
 177 212 177 212 176 256 c 0,119,120
 174 389 174 389 330 496 c 0,121,122
 503 614 503 614 514 791 c 0,123,124
 516 817 516 817 508 836 c 1,125,126
 508 1092 508 1092 260 1092 c 0,127,128
 43 1092 43 1092 6 758 c 0,129,130
 6 752 6 752 12 733 c 1,131,132
 15 728 15 728 20.5 719 c 128,-1,133
 26 710 26 710 29 705 c 1,134,-1
 121 705 l 2,135,136
 130 705 130 705 137 715 c 1,137,138
 146 734 146 734 160 766 c 1,139,140
 184 951 184 951 285 961 c 1,141,142
 320 961 320 961 343.5 922.5 c 128,-1,143
 367 884 367 884 369 844 c 0,144,145
 373 700 373 700 221 588 c 0,146,147
 31 447 31 447 29 279 c 0,148,149
 27 165 27 165 99 81 c 1,150,151
 173 -7 173 -7 285 -8 c 0,71,72
EndSplineSet
Validated: 37
EndChar

StartChar: five
Encoding: 3221 3221 54
Width: 1210
GlyphClass: 2
Flags: W
LayerCount: 2
Fore
SplineSet
319 289 m 1,0,1
 344 495 344 495 559 618 c 1,2,3
 649 618 649 618 708 556 c 128,-1,4
 767 494 767 494 772 403 c 0,5,6
 773 387 773 387 768 375 c 1,7,8
 768 282 768 282 668 207 c 0,9,10
 587 146 587 146 483 127 c 1,11,12
 412 127 412 127 367 172 c 0,13,14
 319 219 319 219 319 289 c 1,0,1
1139 1065 m 0,15,16
 1211 1101 1211 1101 1210 1169 c 0,17,18
 1208 1328 1208 1328 1118 1331 c 0,19,20
 1049 1334 1049 1334 1049 1284 c 0,21,22
 1049 1278 1049 1278 1059 1249 c 1,23,24
 1062 1236 1062 1236 1071 1214 c 1,25,26
 1071 1139 1071 1139 909 1139 c 0,27,28
 726 1139 726 1139 483 1096 c 0,29,30
 245 1054 245 1054 59 983 c 0,31,32
 -2 960 -2 960 -2 913 c 0,33,34
 -2 880 -2 880 8 864 c 1,35,36
 14 858 14 858 51 852 c 1,37,38
 68 852 68 852 76 856 c 1,39,-1
 166 883 l 1,40,41
 335 952 335 952 506 952 c 0,42,43
 592 952 592 952 592 874 c 0,44,45
 592 754 592 754 483 735 c 1,46,-1
 90 627 l 1,47,48
 41 627 41 627 29 567 c 1,49,50
 29 489 29 489 82 489 c 0,51,52
 130 489 130 489 150 506 c 1,53,-1
 336 575 l 1,54,55
 180 469 180 469 180 289 c 0,56,57
 180 154 180 154 264 78 c 0,58,59
 345 5 345 5 483 2 c 0,60,61
 648 -1 648 -1 768 102 c 1,62,63
 885 204 885 204 909 375 c 1,64,65
 909 406 909 406 911 424 c 1,66,67
 911 600 911 600 784 657 c 1,68,69
 815 682 815 682 897 682 c 2,70,-1
 944 682 l 2,71,72
 991 682 991 682 991 651 c 2,73,-1
 991 627 l 1,74,-1
 975 604 l 1,75,76
 980 603 980 603 989 600 c 128,-1,77
 998 597 998 597 1004 596 c 1,78,79
 1017 596 1017 596 1044 588 c 1,80,81
 1128 588 1128 588 1130 713 c 0,82,83
 1131 757 1131 757 1081 786 c 0,84,85
 1038 812 1038 812 991 813 c 0,86,87
 906 815 906 815 801 797 c 0,88,89
 762 790 762 790 684 758 c 1,90,91
 716 774 716 774 733 827 c 1,92,93
 740 854 740 854 754 883 c 1,94,95
 754 912 754 912 727 950 c 0,96,97
 706 980 706 980 668 983 c 1,98,99
 681 983 681 983 726 992 c 0,100,101
 786 1004 786 1004 827 1010 c 0,102,103
 926 1026 926 1026 1073 1042 c 0,104,105
 1099 1045 1099 1045 1139 1065 c 0,15,16
EndSplineSet
Validated: 41
Substitution2: "Single Substitution lookup 17 subtable" glyph131
EndChar

StartChar: six
Encoding: 3222 3222 55
Width: 1755
GlyphClass: 2
Flags: W
LayerCount: 2
Fore
SplineSet
145 285 m 0,0,1
 144 346 144 346 192 384 c 0,2,3
 234 418 234 418 299 424 c 1,4,5
 370 424 370 424 539 307 c 1,6,7
 393 137 393 137 285 137 c 0,8,9
 149 137 149 137 145 285 c 0,0,1
299 -2 m 0,10,11
 454 -4 454 -4 639 246 c 1,12,13
 919 -1 919 -1 1085 -2 c 0,14,15
 1282 -4 1282 -4 1436 264 c 0,16,17
 1567 493 1567 493 1567 709 c 0,18,19
 1567 872 1567 872 1487 1044 c 0,20,21
 1393 1246 1393 1246 1241 1251 c 0,22,23
 1203 1253 1203 1253 1130 1233 c 0,24,25
 1046 1210 1046 1210 1040 1182 c 1,26,27
 1040 1082 1040 1082 1110 1073 c 1,28,29
 1171 1135 1171 1135 1225 1135 c 0,30,31
 1305 1135 1305 1135 1366 952 c 0,32,33
 1411 817 1411 817 1411 702 c 0,34,35
 1411 569 1411 569 1313 367 c 0,36,37
 1203 141 1203 141 1085 137 c 0,38,39
 1023 135 1023 135 725 346 c 1,40,41
 887 609 887 609 893 825 c 0,42,43
 896 931 896 931 807 1014 c 0,44,45
 723 1092 723 1092 608 1096 c 0,46,47
 532 1098 532 1098 426 995 c 0,48,49
 326 897 326 897 307 817 c 1,50,51
 315 811 315 811 340 786 c 0,52,53
 371 756 371 756 393 756 c 0,54,55
 402 756 402 756 418 774 c 1,56,57
 424 785 424 785 438 811 c 1,58,59
 544 960 544 960 633 965 c 0,60,61
 668 966 668 966 708 912 c 128,-1,62
 748 858 748 858 748 817 c 0,63,64
 748 648 748 648 594 424 c 1,65,66
 413 555 413 555 307 555 c 0,67,68
 175 555 175 555 88.5 483.5 c 128,-1,69
 2 412 2 412 -2 285 c 0,70,71
 -11 2 -11 2 299 -2 c 0,10,11
EndSplineSet
Validated: 41
Substitution2: "Single Substitution lookup 17 subtable" glyph132
EndChar

StartChar: seven
Encoding: 3223 3223 56
Width: 1202
GlyphClass: 2
Flags: W
LayerCount: 2
Fore
SplineSet
995 408 m 2,0,1
 995 383 995 383 993 365 c 0,2,3
 983 271 983 271 932 127 c 0,4,5
 869 -50 869 -50 801 -53 c 1,6,7
 698 -38 698 -38 698 0 c 1,8,9
 705 34 705 34 768 109 c 1,10,11
 798 159 798 159 838 365 c 1,12,13
 838 377 838 377 842 389 c 1,14,-1
 842 430 l 2,15,16
 842 586 842 586 776 692 c 0,17,18
 701 813 701 813 553 813 c 0,19,20
 380 813 380 813 264 686 c 0,21,22
 152 564 152 564 150 387 c 1,23,24
 145 371 145 371 145 315 c 0,25,26
 145 268 145 268 156 193 c 1,27,28
 158 167 158 167 166 117 c 1,29,30
 171 106 171 106 182 80 c 1,31,32
 186 78 186 78 188 70 c 1,33,34
 188 39 188 39 158 16 c 0,35,36
 125 -8 125 -8 96 -8 c 1,37,38
 49 1 49 1 23 135 c 0,39,40
 9 206 9 206 6 307 c 1,41,42
 6 307 6 307 10 387 c 0,43,44
 26 693 26 693 305 860 c 1,45,46
 278 860 278 860 150 805 c 0,47,48
 148 804 148 804 123 801 c 1,49,50
 118 802 118 802 109.5 803 c 128,-1,51
 101 804 101 804 96 805 c 1,52,53
 49 805 49 805 49 836 c 0,54,55
 49 913 49 913 127 944 c 1,56,57
 253 1017 253 1017 430 1061 c 1,58,59
 491 1072 491 1072 696 1112 c 0,60,61
 827 1138 827 1138 827 1190 c 0,62,63
 827 1201 827 1201 815 1223 c 1,64,65
 811 1236 811 1236 805 1260 c 1,66,67
 805 1307 805 1307 874 1307 c 1,68,69
 946 1298 946 1298 965 1182 c 1,70,71
 965 1159 965 1159 967 1143 c 1,72,73
 967 1076 967 1076 895 1040 c 0,74,75
 858 1022 858 1022 807 1016 c 1,76,77
 772 1013 772 1013 733 1004 c 1,78,79
 658 994 658 994 567 973 c 0,80,81
 444 945 444 945 389 905 c 1,82,83
 394 908 394 908 459 920 c 1,84,85
 539 920 539 920 559 922 c 1,86,87
 766 922 766 922 887 784 c 0,88,89
 995 661 995 661 995 440 c 2,90,-1
 995 408 l 2,0,1
EndSplineSet
Validated: 1
Substitution2: "Single Substitution lookup 17 subtable" glyph133
EndChar

StartChar: eight
Encoding: 3224 3224 57
Width: 1825
GlyphClass: 2
Flags: W
LayerCount: 2
Fore
SplineSet
1669 1145 m 1,0,1
 1669 1054 1669 1054 1540 1022 c 0,2,3
 1497 1011 1497 1011 1382 1010 c 0,4,5
 1247 1008 1247 1008 1081 993 c 0,6,7
 911 978 911 978 782 954 c 1,8,9
 891 908 891 908 891 762 c 0,10,11
 891 669 891 669 817 608 c 0,12,13
 751 554 751 554 651 553 c 0,14,15
 410 551 410 551 410 807 c 0,16,17
 410 890 410 890 457 909 c 1,18,19
 323 909 323 909 147 846 c 0,20,21
 129 839 129 839 92 831 c 1,22,-1
 85 830 l 1,23,24
 51 823 51 823 39 823 c 0,25,26
 -8 823 -8 823 -8 877 c 0,27,28
 -8 954 -8 954 131 979 c 1,29,30
 499 1118 499 1118 1368 1118 c 0,31,32
 1530 1118 1530 1118 1530 1192 c 0,33,34
 1530 1205 1530 1205 1518 1225 c 1,35,36
 1511 1241 1511 1241 1507 1262 c 1,37,38
 1507 1309 1507 1309 1577 1309 c 1,39,40
 1649 1300 1649 1300 1667 1184 c 1,41,42
 1667 1161 1667 1161 1669 1145 c 1,0,1
1671 592 m 0,43,44
 1673 509 1673 509 1620 459 c 0,45,46
 1572 414 1572 414 1487 414 c 1,47,48
 1487 414 1487 414 1456 408 c 1,49,50
 1381 408 1381 408 1339 475 c 1,51,52
 1247 -6 1247 -6 866 -6 c 0,53,54
 769 -6 769 -6 696 57 c 0,55,56
 628 117 628 117 612 219 c 1,57,58
 501 -6 501 -6 295 -6 c 0,59,60
 166 -6 166 -6 88 88 c 0,61,62
 16 174 16 174 16 311 c 0,63,64
 16 406 16 406 80 479 c 0,65,66
 141 549 141 549 240 553 c 0,67,68
 299 555 299 555 339 515 c 128,-1,69
 379 475 379 475 379 414 c 0,70,71
 379 367 379 367 348 336 c 128,-1,72
 317 305 317 305 270 305 c 0,73,74
 242 305 242 305 216 325 c 128,-1,75
 190 345 190 345 186 375 c 1,76,77
 162 366 162 366 162 281 c 0,78,79
 162 216 162 216 198 177 c 128,-1,80
 234 138 234 138 301 135 c 1,81,82
 448 150 448 150 573 414 c 1,83,84
 589 467 589 467 635 467 c 2,85,-1
 713 467 l 1,86,87
 730 463 730 463 741 455 c 1,88,-1
 752 444 l 1,89,90
 743 431 743 431 743 397 c 1,91,92
 721 375 721 375 721 328 c 0,93,94
 721 248 721 248 767 191.5 c 128,-1,95
 813 135 813 135 891 135 c 0,96,97
 1010 135 1010 135 1104 289 c 0,98,99
 1176 407 1176 407 1192 553 c 1,100,101
 1192 614 1192 614 1139 614 c 1,102,103
 1125 609 1125 609 1092 594 c 1,104,105
 1073 589 1073 589 1044 575 c 1,106,-1
 1030 567 l 1,107,108
 1012 578 1012 578 1007 584 c 0,109,110
 998 593 998 593 994 609 c 0,111,112
 991 621 991 621 991 637 c 0,113,114
 991 696 991 696 1065 733 c 0,115,116
 1122 762 1122 762 1192 762 c 0,117,118
 1255 762 1255 762 1298 725 c 0,119,120
 1336 693 1336 693 1339 645 c 1,121,122
 1341 649 1341 649 1354 662 c 1,123,124
 1358 662 1358 662 1370 668 c 1,125,126
 1399 668 1399 668 1401 614 c 0,127,128
 1402 574 1402 574 1427 553 c 0,129,130
 1457 528 1457 528 1487 528 c 1,131,132
 1498 534 1498 534 1520 549 c 1,133,134
 1528 560 1528 560 1532 592 c 1,135,136
 1532 606 1532 606 1487 723 c 1,137,138
 1478 729 1478 729 1448 774 c 1,139,140
 1432 794 1432 794 1432 807 c 1,141,142
 1446 816 1446 816 1483 838 c 1,143,144
 1541 870 1541 870 1556 870 c 1,145,146
 1595 863 1595 863 1636 748 c 0,147,148
 1670 654 1670 654 1671 592 c 0,43,44
682 -207 m 1,149,150
 642 -309 642 -309 580 -307 c 0,151,152
 545 -306 545 -306 514 -229 c 0,153,154
 489 -169 489 -169 487 -121 c 0,155,156
 486 -87 486 -87 514 -23 c 0,157,158
 544 46 544 46 573 49 c 1,159,-1
 651 49 l 1,160,161
 666 26 666 26 666 2 c 0,162,163
 666 -12 666 -12 662 -20 c 1,164,165
 662 -23 662 -23 651 -68 c 1,166,167
 635 -87 635 -87 635 -106 c 0,168,169
 635 -154 635 -154 651 -168 c 1,170,-1
 682 -207 l 1,149,150
743 762 m 0,171,172
 743 819 743 819 703 865.5 c 128,-1,173
 663 912 663 912 604 924 c 1,174,175
 549 881 549 881 549 807 c 0,176,177
 549 754 549 754 576 714 c 0,178,179
 607 668 607 668 657 668 c 1,180,181
 743 677 743 677 743 762 c 0,171,172
EndSplineSet
Validated: 37
Substitution2: "Single Substitution lookup 17 subtable" glyph134
EndChar

StartChar: nine
Encoding: 3225 3225 58
Width: 1450
GlyphClass: 2
Flags: W
LayerCount: 2
Fore
SplineSet
911 793 m 1,0,1
 911 676 911 676 803 676 c 1,2,3
 725 685 725 685 725 745 c 0,4,5
 725 870 725 870 834 870 c 0,6,7
 868 870 868 870 891 846 c 0,8,9
 908 827 908 827 911 793 c 1,0,1
1251 319 m 0,10,11
 1251 170 1251 170 1159 86 c 0,12,13
 1071 5 1071 5 920 2 c 0,14,15
 806 -1 806 -1 713 67 c 128,-1,16
 620 135 620 135 602 250 c 1,17,18
 491 2 491 2 268 2 c 0,19,20
 162 2 162 2 87 89 c 128,-1,21
 12 176 12 176 12 289 c 0,22,23
 12 457 12 457 207 598 c 0,24,25
 357 706 357 706 354 854 c 0,26,27
 354 894 354 894 328 932 c 1,28,29
 308 971 308 971 268 971 c 1,30,31
 170 961 170 961 145 776 c 1,32,33
 137 755 137 755 121 725 c 1,34,35
 115 719 115 719 106 715 c 1,36,-1
 12 715 l 1,37,38
 10 721 10 721 0 743 c 0,39,40
 -5 753 -5 753 -10 768 c 1,41,42
 30 1102 30 1102 246 1102 c 0,43,44
 359 1102 359 1102 426 1042 c 1,45,46
 488 988 488 988 494 901 c 1,47,48
 575 1016 575 1016 678 1079 c 0,49,50
 778 1141 778 1141 881 1141 c 0,51,52
 1009 1141 1009 1141 1096 1075 c 0,53,54
 1190 1004 1190 1004 1190 877 c 0,55,56
 1190 811 1190 811 1169 755 c 1,57,58
 1142 679 1142 679 1090 676 c 1,59,60
 1057 679 1057 679 1030 696 c 1,61,62
 1006 720 1006 720 1004 745 c 1,63,64
 1034 801 1034 801 1034 870 c 0,65,66
 1034 933 1034 933 989.5 975 c 128,-1,67
 945 1017 945 1017 881 1016 c 0,68,69
 690 1013 690 1013 446 662 c 1,70,71
 431 588 431 588 315 506 c 0,72,73
 160 396 160 396 160 266 c 0,74,75
 160 216 160 216 193.5 178.5 c 128,-1,76
 227 141 227 141 276 141 c 0,77,78
 416 141 416 141 555 428 c 1,79,80
 577 489 577 489 625 489 c 2,81,-1
 725 489 l 2,82,83
 748 489 748 489 748 459 c 1,84,-1
 741 428 l 1,85,86
 725 421 725 421 725 395 c 2,87,-1
 725 344 l 2,88,89
 725 254 725 254 780.5 197.5 c 128,-1,90
 836 141 836 141 926 141 c 0,91,92
 996 141 996 141 1050 185.5 c 128,-1,93
 1104 230 1104 230 1104 297 c 1,94,95
 1087 320 1087 320 1081 344 c 1,96,97
 1065 328 1065 328 1061 326 c 1,98,99
 1046 313 1046 313 1004 297 c 1,100,101
 949 312 949 312 920 344 c 0,102,103
 886 381 886 381 887 420 c 0,104,105
 892 569 892 569 1065 567 c 0,106,107
 1158 566 1158 566 1210 487 c 0,108,109
 1251 426 1251 426 1251 319 c 0,10,11
EndSplineSet
Validated: 33
Substitution2: "Single Substitution lookup 17 subtable" glyph135
EndChar

StartChar: colon
Encoding: 3226 3226 59
Width: 1538
GlyphClass: 2
Flags: W
LayerCount: 2
Fore
SplineSet
1460 618 m 0,0,1
 1461 594 1461 594 1432 537 c 0,2,3
 1408 490 1408 490 1376 487 c 1,4,5
 1350 487 1350 487 1326 500 c 128,-1,6
 1302 513 1302 513 1298 535 c 1,7,8
 1303 559 1303 559 1313 573 c 1,9,-1
 1313 596 l 1,10,11
 1318 607 1318 607 1292 625 c 1,12,13
 1290 625 1290 625 1282 627 c 1,14,15
 1224 612 1224 612 1159 573 c 1,16,17
 1260 558 1260 558 1260 317 c 0,18,19
 1260 0 1260 0 926 0 c 0,20,21
 812 0 812 0 723 68 c 0,22,23
 630 138 630 138 612 248 c 1,24,25
 502 0 502 0 279 0 c 0,26,27
 172 0 172 0 97.5 87 c 128,-1,28
 23 174 23 174 23 287 c 0,29,30
 23 457 23 457 217 596 c 0,31,32
 367 703 367 703 365 852 c 0,33,34
 364 892 364 892 338 930 c 1,35,36
 319 968 319 968 279 967 c 1,37,38
 181 962 181 962 156 774 c 1,39,40
 151 761 151 761 131 723 c 0,41,42
 128 719 128 719 117 713 c 1,43,-1
 23 713 l 1,44,45
 22 714 22 714 21 715 c 0,46,47
 18 721 18 721 8 741 c 0,48,49
 0 757 0 757 0 766 c 1,50,51
 40 1100 40 1100 256 1100 c 0,52,53
 504 1100 504 1100 504 844 c 1,54,55
 505 836 505 836 506 820.5 c 128,-1,56
 507 805 507 805 508 797 c 1,57,58
 502 622 502 622 326 504 c 0,59,60
 170 400 170 400 170 264 c 0,61,62
 170 218 170 218 204.5 178.5 c 128,-1,63
 239 139 239 139 287 139 c 0,64,65
 427 139 427 139 565 426 c 1,66,67
 587 487 587 487 635 487 c 2,68,-1
 735 487 l 2,69,70
 758 487 758 487 758 457 c 1,71,-1
 752 426 l 1,72,73
 735 416 735 416 735 393 c 2,74,-1
 735 340 l 2,75,76
 735 257 735 257 793 197 c 1,77,78
 845 141 845 141 934 139 c 0,79,80
 1007 138 1007 138 1059.5 191 c 128,-1,81
 1112 244 1112 244 1112 317 c 0,82,83
 1112 370 1112 370 1085 440 c 0,84,85
 1056 518 1056 518 1012 535 c 1,86,87
 1004 528 1004 528 983 518 c 1,88,89
 970 516 970 516 934 510 c 1,90,91
 928 504 928 504 895 504 c 1,92,93
 881 518 881 518 881 526 c 1,94,95
 876 537 876 537 866 573 c 1,96,97
 877 600 877 600 887 616 c 1,98,99
 897 629 897 629 920 643 c 1,100,-1
 1012 682 l 1,101,102
 1029 706 1029 706 1038 741 c 1,103,104
 1040 756 1040 756 1042 821 c 1,105,106
 1044 850 1044 850 1004 877 c 1,107,108
 1000 882 1000 882 950 911 c 1,109,110
 909 911 909 911 862 909 c 0,111,112
 840 908 840 908 805 895 c 1,113,114
 799 891 799 891 782 881 c 1,115,116
 769 872 769 872 758 872 c 1,117,118
 736 876 736 876 721 897 c 1,119,120
 705 927 705 927 705 950 c 1,121,122
 711 996 711 996 791 1042 c 1,123,124
 873 1075 873 1075 1001 1102 c 1,125,126
 1051 1110 1051 1110 1151 1130 c 1,127,128
 1236 1151 1236 1151 1239 1192 c 0,129,130
 1240 1204 1240 1204 1225 1225 c 1,131,132
 1222 1238 1222 1238 1214 1262 c 1,133,134
 1214 1309 1214 1309 1284 1309 c 1,135,136
 1355 1300 1355 1300 1376 1184 c 1,137,138
 1376 1161 1376 1161 1378 1145 c 1,139,140
 1378 1083 1378 1083 1307 1042 c 1,141,142
 1260 1025 1260 1025 1221 1016 c 1,143,144
 1181 1013 1181 1013 1133 1004 c 0,145,146
 1097 998 1097 998 1059 981 c 1,147,148
 1108 972 1108 972 1144 926.5 c 128,-1,149
 1180 881 1180 881 1182 827 c 1,150,151
 1183 754 1183 754 1159 713 c 1,152,153
 1246 758 1246 758 1313 758 c 0,154,155
 1364 758 1364 758 1409 707 c 1,156,157
 1458 660 1458 660 1460 618 c 0,0,1
EndSplineSet
Validated: 33
Substitution2: "Single Substitution lookup 17 subtable" glyph136
EndChar

StartChar: semicolon
Encoding: 3227 3227 60
Width: 1430
GlyphClass: 2
Flags: W
LayerCount: 2
Fore
SplineSet
1249 518 m 0,0,1
 1249 319 1249 319 1155 168 c 0,2,3
 1050 0 1050 0 854 0 c 0,4,5
 759 0 759 0 685 43 c 0,6,7
 602 92 602 92 584 178 c 1,8,9
 553 96 553 96 470.5 48 c 128,-1,10
 388 0 388 0 297 0 c 0,11,12
 136 0 136 0 61 193 c 0,13,14
 10 325 10 325 10 518 c 0,15,16
 10 733 10 733 80 891 c 0,17,18
 172 1100 172 1100 358 1100 c 1,19,20
 434 1084 434 1084 469 1040 c 1,21,22
 514 995 514 995 514 930 c 0,23,24
 514 875 514 875 469 821 c 0,25,26
 428 773 428 773 375 774 c 0,27,28
 250 776 250 776 250 866 c 1,29,30
 158 759 158 759 158 510 c 0,31,32
 158 384 158 384 188 287 c 0,33,34
 235 139 235 139 336 139 c 0,35,36
 402 139 402 139 459 217 c 0,37,38
 494 265 494 265 522 365 c 0,39,40
 526 378 526 378 547 428 c 0,41,42
 563 467 563 467 584 473 c 1,43,-1
 668 473 l 2,44,45
 715 473 715 473 715 434 c 1,46,47
 712 427 712 427 707 406 c 1,48,49
 707 389 707 389 698 381 c 1,50,51
 698 376 698 376 696 354 c 1,52,53
 696 330 696 330 698 309 c 1,54,55
 698 234 698 234 743 186.5 c 128,-1,56
 788 139 788 139 862 139 c 0,57,58
 962 139 962 139 1030 287 c 0,59,60
 1084 403 1084 403 1085 518 c 0,61,62
 1087 664 1087 664 1026 786 c 0,63,64
 953 933 953 933 815 936 c 1,65,66
 785 929 785 929 731 905 c 1,67,68
 712 905 712 905 698 897 c 1,69,70
 637 897 637 897 637 936 c 1,71,72
 631 981 631 981 662 1012 c 1,73,74
 664 1016 664 1016 698 1044 c 1,75,76
 780 1085 780 1085 905 1114 c 1,77,78
 939 1119 939 1119 1007 1134.5 c 128,-1,79
 1075 1150 1075 1150 1075 1192 c 0,80,81
 1075 1205 1075 1205 1063 1225 c 1,82,83
 1059 1238 1059 1238 1053 1262 c 1,84,85
 1053 1309 1053 1309 1122 1309 c 1,86,87
 1194 1300 1194 1300 1212 1184 c 1,88,89
 1212 1161 1212 1161 1214 1145 c 1,90,91
 1214 1078 1214 1078 1143 1042 c 0,92,93
 1079 1010 1079 1010 979 1014 c 1,94,95
 1100 968 1100 968 1174 831 c 0,96,97
 1249 691 1249 691 1249 518 c 0,0,1
668 -248 m 1,98,99
 668 -276 668 -276 636.5 -306.5 c 128,-1,100
 605 -337 605 -337 575 -340 c 1,101,102
 537 -340 537 -340 504 -268 c 0,103,104
 477 -210 477 -210 475 -162 c 0,105,106
 474 -122 474 -122 497 -66 c 0,107,108
 525 0 525 0 559 0 c 2,109,-1
 637 0 l 1,110,111
 640 -1 640 -1 645 -6 c 0,112,113
 662 -26 662 -26 662 -31 c 1,114,115
 646 -61 646 -61 637 -109 c 1,116,117
 629 -117 629 -117 629 -139 c 0,118,119
 629 -152 629 -152 635 -168 c 1,120,121
 635 -193 635 -193 637 -201 c 1,122,123
 653 -216 653 -216 664 -236 c 0,124,125
 665 -237 665 -237 668 -248 c 1,98,99
EndSplineSet
Validated: 33
Substitution2: "Single Substitution lookup 17 subtable" glyph137
EndChar

StartChar: less
Encoding: 3228 3228 61
Width: 1477
GlyphClass: 2
Flags: W
LayerCount: 2
Fore
SplineSet
1264 317 m 0,0,1
 1261 0 1261 0 932 0 c 0,2,3
 811 0 811 0 725 63 c 0,4,5
 643 124 643 124 614 248 c 1,6,7
 498 0 498 0 281 0 c 0,8,9
 174 0 174 0 98 88 c 0,10,11
 27 171 27 171 27 287 c 0,12,13
 27 462 27 462 219 596 c 0,14,15
 369 700 369 700 367 852 c 0,16,17
 366 892 366 892 340 930 c 1,18,19
 321 968 321 968 281 967 c 1,20,21
 186 962 186 962 158 774 c 1,22,23
 158 756 158 756 145 734.5 c 128,-1,24
 132 713 132 713 119 713 c 2,25,-1
 27 713 l 1,26,27
 21 719 21 719 10 741 c 0,28,29
 2 759 2 759 2 766 c 0,30,31
 42 1100 42 1100 250 1100 c 1,32,33
 377 1084 377 1084 430 1040 c 1,34,35
 488 1001 488 1001 506 930 c 1,36,37
 531 860 531 860 604 817 c 0,38,39
 674 776 674 776 754 774 c 0,40,41
 845 772 845 772 905 850 c 0,42,43
 961 922 961 922 963 1022 c 1,44,45
 964 1123 964 1123 932 1139 c 1,46,47
 893 1169 893 1169 893 1214 c 0,48,49
 893 1278 893 1278 940 1278 c 0,50,51
 1024 1278 1024 1278 1075 1188 c 0,52,53
 1116 1116 1116 1116 1118 1022 c 0,54,55
 1122 851 1122 851 1016 752 c 0,56,57
 915 657 915 657 737 657 c 0,58,59
 598 657 598 657 506 774 c 1,60,61
 506 631 506 631 328 504 c 0,62,63
 172 393 172 393 172 264 c 0,64,65
 172 218 172 218 206.5 178.5 c 128,-1,66
 241 139 241 139 289 139 c 0,67,68
 433 139 433 139 567 426 c 0,69,70
 596 487 596 487 637 487 c 2,71,-1
 737 487 l 2,72,73
 762 487 762 487 762 457 c 0,74,75
 762 444 762 444 748 424 c 1,76,77
 743 424 743 424 737 393 c 1,78,-1
 737 340 l 2,79,80
 737 258 737 258 797 199 c 1,81,82
 854 141 854 141 940 139 c 0,83,84
 1008 138 1008 138 1063 182.5 c 128,-1,85
 1118 227 1118 227 1118 295 c 1,86,87
 1105 313 1105 313 1094 340 c 1,88,89
 1079 326 1079 326 1073 322 c 1,90,91
 1053 304 1053 304 1016 295 c 1,92,93
 961 311 961 311 932 340 c 1,94,95
 901 381 901 381 901 418 c 0,96,97
 904 567 904 567 1079 565 c 0,98,99
 1172 564 1172 564 1223 485 c 0,100,101
 1264 421 1264 421 1264 317 c 0,0,1
EndSplineSet
Validated: 33
Substitution2: "Single Substitution lookup 17 subtable" glyph138
EndChar

StartChar: equal
Encoding: 3229 3229 62
Width: 2521
GlyphClass: 2
Flags: W
LayerCount: 2
Fore
SplineSet
2314 516 m 0,0,1
 2314 302 2314 302 2220 162 c 0,2,3
 2112 0 2112 0 1905 0 c 0,4,5
 1653 0 1653 0 1548 168 c 1,6,7
 1548 165 1548 165 1528 139 c 0,8,9
 1417 0 1417 0 1231 0 c 0,10,11
 1083 0 1083 0 971 72 c 0,12,13
 907 112 907 112 874 172 c 1,14,15
 721 0 721 0 420 0 c 0,16,17
 244 0 244 0 144 94 c 0,18,19
 41 190 41 190 41 365 c 1,20,21
 54 494 54 494 142 602 c 0,22,23
 225 703 225 703 350 758 c 1,24,25
 301 781 301 781 229 782 c 0,26,27
 154 784 154 784 31 807 c 1,28,29
 2 827 2 827 2 866 c 1,30,31
 33 950 33 950 127 983 c 1,32,33
 290 1066 290 1066 489 1102 c 1,34,35
 558 1113 558 1113 637 1128 c 1,36,37
 725 1150 725 1150 727 1192 c 0,38,39
 728 1204 728 1204 715 1225 c 1,40,41
 709 1241 709 1241 705 1262 c 1,42,43
 705 1309 705 1309 774 1309 c 1,44,45
 846 1300 846 1300 864 1184 c 1,46,47
 864 1161 864 1161 866 1145 c 1,48,49
 866 1081 866 1081 795 1042 c 0,50,51
 752 1019 752 1019 612 1010 c 1,52,53
 406 995 406 995 197 883 c 1,54,55
 405 883 405 883 498 844 c 1,56,57
 622 897 622 897 692 897 c 1,58,59
 730 894 730 894 756 881 c 1,60,61
 784 861 784 861 784 844 c 0,62,63
 784 791 784 791 676 791 c 1,64,65
 774 770 774 770 863 636.5 c 128,-1,66
 952 503 952 503 954 395 c 0,67,68
 955 370 955 370 952 356 c 1,69,70
 983 341 983 341 1006 287 c 0,71,72
 1063 147 1063 147 1239 145 c 0,73,74
 1361 144 1361 144 1425 276 c 0,75,76
 1470 369 1470 369 1470 516 c 0,77,78
 1470 784 1470 784 1282 942 c 1,79,80
 1222 903 1222 903 1161 903 c 0,81,82
 1107 903 1107 903 1094 991 c 0,83,84
 1091 1010 1091 1010 1130 1044 c 1,85,86
 1146 1063 1146 1063 1184 1081 c 1,87,88
 1210 1092 1210 1092 1264 1100 c 1,89,90
 1370 1100 1370 1100 1477 975 c 0,91,92
 1544 896 1544 896 1587 795 c 0,93,94
 1640 670 1640 670 1640 516 c 0,95,96
 1640 428 1640 428 1626 356 c 1,97,98
 1657 341 1657 341 1679 287 c 0,99,100
 1737 147 1737 147 1913 145 c 0,101,102
 2035 144 2035 144 2097 276 c 0,103,104
 2144 376 2144 376 2144 516 c 0,105,106
 2144 784 2144 784 1956 942 c 1,107,108
 1896 903 1896 903 1835 903 c 0,109,110
 1780 903 1780 903 1767 991 c 0,111,112
 1765 1010 1765 1010 1804 1044 c 1,113,114
 1820 1063 1820 1063 1858 1081 c 1,115,116
 1887 1093 1887 1093 1937 1100 c 1,117,118
 2044 1100 2044 1100 2150 975 c 0,119,120
 2314 783 2314 783 2314 516 c 0,0,1
1628 -248 m 1,121,122
 1623 -270 1623 -270 1589 -307 c 0,123,124
 1562 -337 1562 -337 1536 -340 c 1,125,126
 1500 -340 1500 -340 1466 -276 c 0,127,128
 1436 -219 1436 -219 1436 -162 c 0,129,130
 1436 -115 1436 -115 1458 -68 c 1,131,132
 1480 0 1480 0 1520 0 c 2,133,-1
 1597 0 l 2,134,135
 1606 0 1606 0 1606 -8 c 2,136,-1
 1606 -31 l 2,137,138
 1606 -49 1606 -49 1602 -70 c 1,139,140
 1601 -81 1601 -81 1597 -109 c 1,141,142
 1589 -114 1589 -114 1589 -139 c 0,143,144
 1589 -160 1589 -160 1590 -173 c 128,-1,145
 1591 -186 1591 -186 1597 -209 c 0,146,147
 1598 -210 1598 -210 1616 -236 c 1,148,-1
 1628 -248 l 1,121,122
815 395 m 0,149,150
 818 500 818 500 724 617.5 c 128,-1,151
 630 735 630 735 522 735 c 1,152,153
 395 692 395 692 301 592 c 0,154,155
 212 497 212 497 180 365 c 1,156,157
 180 348 180 348 178 336 c 1,158,159
 178 245 178 245 264 186 c 0,160,161
 333 139 333 139 436 139 c 0,162,163
 609 139 609 139 710.5 208 c 128,-1,164
 812 277 812 277 815 395 c 0,149,150
EndSplineSet
Validated: 33
Substitution2: "Single Substitution lookup 17 subtable" glyph139
EndChar

StartChar: greater
Encoding: 3230 3230 63
Width: 2017
GlyphClass: 2
Flags: W
LayerCount: 2
Fore
SplineSet
1819 784 m 0,0,1
 1819 590 1819 590 1735 592 c 0,2,3
 1699 593 1699 593 1675.5 612.5 c 128,-1,4
 1652 632 1652 632 1649 668 c 1,5,6
 1652 696 1652 696 1659 715 c 1,7,8
 1672 728 1672 728 1671 776 c 0,9,10
 1669 924 1669 924 1540 924 c 0,11,12
 1454 924 1454 924 1372 850 c 0,13,14
 1297 782 1297 782 1253 676 c 1,15,16
 1247 383 1247 383 1061 227 c 1,17,18
 1300 -37 1300 -37 1300 -176 c 1,19,20
 1298 -196 1298 -196 1262 -219 c 1,21,22
 1231 -234 1231 -234 1200 -238 c 1,23,24
 1152 -238 1152 -238 1130 -129 c 1,25,26
 1026 90 1026 90 967 158 c 1,27,28
 917 108 917 108 780 47 c 0,29,30
 661 -6 661 -6 573 -6 c 0,31,32
 452 -6 452 -6 384.5 47.5 c 128,-1,33
 317 101 317 101 317 188 c 0,34,35
 317 319 317 319 418 410 c 0,36,37
 515 498 515 498 651 498 c 0,38,39
 797 498 797 498 991 328 c 1,40,41
 1045 390 1045 390 1075 485 c 0,42,43
 1108 587 1108 587 1108 676 c 0,44,45
 1108 769 1108 769 1058.5 834 c 128,-1,46
 1009 899 1009 899 922 901 c 0,47,48
 786 905 786 905 721 776 c 0,49,50
 685 706 685 706 653 662 c 1,51,52
 629 637 629 637 580 637 c 1,53,54
 526 653 526 653 526 676 c 1,55,56
 525 688 525 688 525 699 c 0,57,58
 525 711 525 711 525.5 724 c 128,-1,59
 526 737 526 737 535 754 c 1,60,61
 539 764 539 764 543 776 c 1,62,63
 506 901 506 901 371 901 c 0,64,65
 283 901 283 901 216.5 840 c 128,-1,66
 150 779 150 779 147 692 c 1,67,68
 163 637 163 637 209 637 c 0,69,70
 225 637 225 637 256 606 c 1,71,72
 248 578 248 578 215 545 c 1,73,74
 167 506 167 506 147 506 c 0,75,76
 80 506 80 506 41 575 c 0,77,78
 10 630 10 630 10 707 c 0,79,80
 10 863 10 863 118 947.5 c 128,-1,81
 226 1032 226 1032 379 1032 c 1,82,83
 601 1001 601 1001 627 870 c 1,84,85
 724 1032 724 1032 922 1032 c 1,86,87
 1068 1017 1068 1017 1151 954 c 0,88,89
 1192 923 1192 923 1214 862 c 1,90,91
 1318 1055 1318 1055 1540 1055 c 0,92,93
 1662 1055 1662 1055 1740.5 981.5 c 128,-1,94
 1819 908 1819 908 1819 784 c 0,0,1
883 250 m 1,95,96
 763 360 763 360 657 381 c 1,97,98
 572 378 572 378 518.5 326 c 128,-1,99
 465 274 465 274 465 188 c 0,100,101
 465 166 465 166 500 145 c 1,102,103
 539 128 539 128 580 127 c 0,104,105
 698 125 698 125 883 250 c 1,95,96
EndSplineSet
Validated: 33
Substitution2: "Single Substitution lookup 17 subtable" glyph140
EndChar

StartChar: question
Encoding: 3231 3231 64
Width: 1548
GlyphClass: 2
Flags: W
LayerCount: 2
Fore
SplineSet
1337 420 m 0,0,1
 1337 265 1337 265 1219 135 c 0,2,3
 1097 2 1097 2 942 2 c 0,4,5
 837 2 837 2 756 51 c 0,6,7
 669 104 669 104 647 205 c 1,8,9
 494 2 494 2 307 2 c 0,10,11
 187 2 187 2 102 100 c 1,12,13
 22 195 22 195 20 319 c 1,14,15
 19 513 19 513 106 575 c 1,16,17
 20 683 20 683 20 846 c 0,18,19
 20 922 20 922 78 1049 c 0,20,21
 141 1188 141 1188 207 1188 c 0,22,23
 231 1188 231 1188 252 1155 c 1,24,25
 270 1134 270 1134 291 1079 c 1,26,27
 168 978 168 978 168 815 c 0,28,29
 168 700 168 700 221 684 c 1,30,31
 249 702 249 702 276 709 c 0,32,33
 281 710 281 710 338 715 c 1,34,35
 366 723 366 723 389 692 c 0,36,37
 406 670 406 670 416 606 c 1,38,39
 413 574 413 574 360 543 c 0,40,41
 315 516 315 516 276 514 c 0,42,43
 244 513 244 513 238 522 c 1,44,45
 168 474 168 474 168 319 c 0,46,47
 168 250 168 250 211 197 c 0,48,49
 257 140 257 140 322 141 c 1,50,51
 479 146 479 146 586 375 c 1,52,53
 617 475 617 475 664 475 c 2,54,-1
 717 475 l 2,55,56
 756 475 756 475 756 436 c 1,57,58
 748 424 748 424 748 416 c 2,59,-1
 748 397 l 1,60,61
 733 383 733 383 733 344 c 0,62,63
 733 260 733 260 795 199 c 1,64,65
 852 141 852 141 942 141 c 256,66,67
 1032 141 1032 141 1114 236 c 0,68,69
 1192 325 1192 325 1198 420 c 1,70,71
 1168 566 1168 566 1081 575 c 1,72,73
 1057 545 1057 545 1026 537 c 1,74,75
 1002 540 1002 540 973 569 c 1,76,77
 942 609 942 609 942 629 c 0,78,79
 942 647 942 647 956 676 c 1,80,81
 997 693 997 693 1063 780 c 0,82,83
 1123 859 1123 859 1128 909 c 1,84,85
 1128 1001 1128 1001 1044 1040 c 0,86,87
 1015 1054 1015 1054 1012 1102 c 1,88,89
 1015 1123 1015 1123 1042 1143 c 0,90,91
 1066 1160 1066 1160 1090 1163 c 1,92,93
 1153 1163 1153 1163 1218 1078 c 0,94,95
 1279 999 1279 999 1282 932 c 1,96,97
 1252 788 1252 788 1174 684 c 1,98,99
 1251 684 1251 684 1299 586 c 1,100,101
 1337 506 1337 506 1337 420 c 0,0,1
EndSplineSet
Validated: 33
Substitution2: "Single Substitution lookup 17 subtable" glyph141
EndChar

StartChar: at
Encoding: 3232 3232 65
Width: 1161
GlyphClass: 2
Flags: W
LayerCount: 2
Fore
SplineSet
954 395 m 0,0,1
 954 195 954 195 779 89 c 0,2,3
 633 0 633 0 420 0 c 0,4,5
 244 0 244 0 144 94 c 0,6,7
 41 190 41 190 41 365 c 1,8,9
 54 494 54 494 142 602 c 0,10,11
 225 703 225 703 350 758 c 1,12,13
 301 781 301 781 229 782 c 0,14,15
 154 784 154 784 31 807 c 1,16,17
 2 827 2 827 2 866 c 1,18,19
 33 950 33 950 127 983 c 1,20,21
 290 1066 290 1066 489 1102 c 1,22,23
 558 1113 558 1113 637 1128 c 1,24,25
 725 1150 725 1150 727 1192 c 0,26,27
 728 1204 728 1204 715 1225 c 1,28,29
 709 1241 709 1241 705 1262 c 1,30,31
 705 1309 705 1309 774 1309 c 1,32,33
 846 1300 846 1300 864 1184 c 1,34,35
 864 1161 864 1161 866 1145 c 1,36,37
 866 1081 866 1081 795 1042 c 0,38,39
 752 1019 752 1019 612 1010 c 1,40,41
 406 995 406 995 197 883 c 1,42,43
 405 883 405 883 498 844 c 1,44,45
 622 897 622 897 692 897 c 1,46,47
 730 894 730 894 756 881 c 1,48,49
 784 861 784 861 784 844 c 0,50,51
 784 791 784 791 676 791 c 1,52,53
 775 769 775 769 866 635 c 0,54,55
 954 505 954 505 954 395 c 0,0,1
815 395 m 0,56,57
 818 500 818 500 724 617.5 c 128,-1,58
 630 735 630 735 522 735 c 1,59,60
 395 692 395 692 301 592 c 0,61,62
 212 497 212 497 180 365 c 1,63,64
 180 348 180 348 178 336 c 1,65,66
 178 245 178 245 264 186 c 0,67,68
 333 139 333 139 436 139 c 0,69,70
 609 139 609 139 710.5 208 c 128,-1,71
 812 277 812 277 815 395 c 0,56,57
569 487 m 0,72,73
 569 444 569 444 546 413 c 0,74,75
 520 379 520 379 477 379 c 0,76,77
 430 379 430 379 399.5 416 c 128,-1,78
 369 453 369 453 369 487 c 0,79,80
 369 526 369 526 399 563 c 0,81,82
 427 596 427 596 477 596 c 0,83,84
 514 596 514 596 545 559 c 0,85,86
 569 529 569 529 569 487 c 0,72,73
EndSplineSet
Validated: 33
Substitution2: "Single Substitution lookup 17 subtable" glyph142
EndChar

StartChar: A
Encoding: 3233 3233 66
Width: 1489
GlyphClass: 2
Flags: W
LayerCount: 2
Fore
SplineSet
1282 289 m 0,0,1
 1282 158 1282 158 1151 70 c 0,2,3
 1039 -6 1039 -6 895 -6 c 0,4,5
 803 -6 803 -6 735 49 c 0,6,7
 664 107 664 107 655 197 c 1,8,9
 614 104 614 104 537 49 c 0,10,11
 457 -8 457 -8 360 -6 c 0,12,13
 49 -2 49 -2 51 367 c 0,14,15
 52 533 52 533 154 673 c 0,16,17
 250 804 250 804 408 877 c 1,18,19
 338 877 338 877 129 784 c 1,20,21
 101 762 101 762 43 762 c 1,22,23
 38 761 38 761 33 761 c 0,24,25
 -4 761 -4 761 -2 823 c 0,26,27
 -1 860 -1 860 23 877 c 0,28,29
 56 901 56 901 121 924 c 0,30,31
 354 1007 354 1007 627 1069 c 1,32,33
 679 1074 679 1074 825 1102 c 1,34,35
 875 1110 875 1110 975 1130 c 1,36,37
 1060 1151 1060 1151 1063 1192 c 0,38,39
 1064 1204 1064 1204 1051 1225 c 1,40,41
 1044 1241 1044 1241 1040 1262 c 1,42,43
 1040 1309 1040 1309 1110 1309 c 1,44,45
 1182 1300 1182 1300 1200 1184 c 1,46,47
 1200 1161 1200 1161 1202 1145 c 1,48,49
 1202 1078 1202 1078 1128 1040 c 0,50,51
 1060 1005 1060 1005 956 1004 c 1,52,53
 868 1002 868 1002 756 979 c 0,54,55
 595 946 595 946 438 893 c 1,56,57
 464 896 464 896 598 913 c 1,58,59
 646 918 646 918 717 924 c 1,60,61
 1081 918 1081 918 1081 707 c 0,62,63
 1081 684 1081 684 1083 664 c 1,64,65
 1083 602 1083 602 1059 584 c 1,66,67
 1160 568 1160 568 1223 483 c 0,68,69
 1282 404 1282 404 1282 289 c 0,0,1
1143 289 m 0,70,71
 1143 467 1143 467 995 467 c 1,72,73
 959 397 959 397 911 397 c 1,74,75
 899 400 899 400 874 424 c 1,76,77
 836 472 836 472 834 498 c 1,78,-1
 834 506 l 1,79,80
 840 511 840 511 872 539 c 1,81,82
 902 563 902 563 915 604 c 0,83,84
 926 636 926 636 926 707 c 0,85,86
 926 766 926 766 836 795 c 0,87,88
 774 814 774 814 702 815 c 0,89,90
 482 817 482 817 340 707 c 0,91,92
 190 590 190 590 190 375 c 0,93,94
 190 287 190 287 231 211 c 0,95,96
 280 119 280 119 360 119 c 0,97,98
 464 119 464 119 532 221 c 0,99,100
 588 305 588 305 608 414 c 1,101,102
 608 467 608 467 686 467 c 0,103,104
 746 467 746 467 748 389 c 1,105,106
 749 304 749 304 786 221 c 0,107,108
 831 122 831 122 911 119 c 1,109,110
 1143 153 1143 153 1143 289 c 0,70,71
EndSplineSet
Validated: 33
Substitution2: "Single Substitution lookup 17 subtable" glyph143
EndChar

StartChar: B
Encoding: 3234 3234 67
Width: 1489
GlyphClass: 2
Flags: W
LayerCount: 2
Fore
SplineSet
1282 289 m 0,0,1
 1282 158 1282 158 1151 70 c 0,2,3
 1039 -6 1039 -6 895 -6 c 0,4,5
 803 -6 803 -6 735 49 c 0,6,7
 664 107 664 107 655 197 c 1,8,9
 614 104 614 104 537 49 c 0,10,11
 457 -8 457 -8 360 -6 c 0,12,13
 49 -2 49 -2 51 367 c 0,14,15
 52 533 52 533 154 673 c 0,16,17
 250 804 250 804 408 877 c 1,18,19
 338 877 338 877 129 784 c 1,20,21
 101 762 101 762 43 762 c 1,22,23
 38 761 38 761 33 761 c 0,24,25
 -4 761 -4 761 -2 823 c 0,26,27
 -1 860 -1 860 23 877 c 0,28,29
 56 901 56 901 121 924 c 0,30,31
 354 1007 354 1007 627 1069 c 1,32,33
 679 1074 679 1074 825 1102 c 1,34,35
 875 1110 875 1110 975 1130 c 1,36,37
 1060 1151 1060 1151 1063 1192 c 0,38,39
 1064 1204 1064 1204 1051 1225 c 1,40,41
 1044 1241 1044 1241 1040 1262 c 1,42,43
 1040 1309 1040 1309 1110 1309 c 1,44,45
 1182 1300 1182 1300 1200 1184 c 1,46,47
 1200 1161 1200 1161 1202 1145 c 1,48,49
 1202 1078 1202 1078 1128 1040 c 0,50,51
 1060 1005 1060 1005 956 1004 c 1,52,53
 868 1002 868 1002 756 979 c 0,54,55
 595 946 595 946 438 893 c 1,56,57
 464 896 464 896 598 913 c 1,58,59
 646 918 646 918 717 924 c 1,60,61
 1081 918 1081 918 1081 707 c 0,62,63
 1081 684 1081 684 1083 664 c 1,64,65
 1083 602 1083 602 1059 584 c 1,66,67
 1160 568 1160 568 1223 483 c 0,68,69
 1282 404 1282 404 1282 289 c 0,0,1
698 -256 m 1,70,71
 696 -281 696 -281 668 -322 c 0,72,73
 646 -353 646 -353 614 -356 c 1,74,75
 572 -356 572 -356 539 -281 c 0,76,77
 514 -224 514 -224 514 -170 c 0,78,79
 514 -133 514 -133 537 -78 c 1,80,81
 561 -16 561 -16 598 -16 c 2,82,-1
 668 -16 l 2,83,84
 698 -16 698 -16 698 -47 c 1,85,-1
 668 -117 l 1,86,87
 668 -127 668 -127 665.5 -130 c 128,-1,88
 663 -133 663 -133 653 -147 c 1,89,90
 653 -168 653 -168 657 -182 c 0,91,92
 660 -189 660 -189 672 -207 c 1,93,94
 676 -218 676 -218 698 -256 c 1,70,71
1143 289 m 0,95,96
 1143 467 1143 467 995 467 c 1,97,98
 959 397 959 397 911 397 c 1,99,100
 899 400 899 400 874 424 c 1,101,102
 836 472 836 472 834 498 c 1,103,-1
 834 506 l 1,104,105
 840 511 840 511 872 539 c 1,106,107
 902 563 902 563 915 604 c 0,108,109
 926 636 926 636 926 707 c 0,110,111
 926 766 926 766 836 795 c 0,112,113
 774 814 774 814 702 815 c 0,114,115
 482 817 482 817 340 707 c 0,116,117
 190 590 190 590 190 375 c 0,118,119
 190 287 190 287 231 211 c 0,120,121
 280 119 280 119 360 119 c 0,122,123
 464 119 464 119 532 221 c 0,124,125
 588 305 588 305 608 414 c 1,126,127
 608 467 608 467 686 467 c 0,128,129
 746 467 746 467 748 389 c 1,130,131
 749 304 749 304 786 221 c 0,132,133
 831 122 831 122 911 119 c 1,134,135
 1143 153 1143 153 1143 289 c 0,95,96
EndSplineSet
Validated: 33
Substitution2: "Single Substitution lookup 17 subtable" glyph144
EndChar

StartChar: C
Encoding: 3235 3235 68
Width: 1518
GlyphClass: 2
Flags: W
LayerCount: 2
Fore
SplineSet
1313 524 m 1,0,1
 1297 362 1297 362 1237 215 c 0,2,3
 1152 6 1152 6 1034 6 c 0,4,5
 826 6 826 6 823 180 c 0,6,7
 823 199 823 199 825 215 c 1,8,9
 825 333 825 333 893 440 c 0,10,11
 967 557 967 557 1081 563 c 1,12,13
 1101 555 1101 555 1159 539 c 1,14,-1
 1174 608 l 1,15,16
 1170 747 1170 747 1118 856 c 0,17,18
 1062 973 1062 973 995 973 c 0,19,20
 925 973 925 973 860 909 c 0,21,22
 799 850 799 850 772 748 c 0,23,24
 750 664 750 664 725 664 c 2,25,-1
 633 664 l 1,26,27
 600 669 600 669 600 717 c 0,28,29
 600 728 600 728 602 741 c 1,30,31
 602 828 602 828 528 903 c 0,32,33
 460 973 460 973 369 973 c 0,34,35
 279 973 279 973 222 898 c 0,36,37
 187 852 187 852 182 780 c 0,38,39
 182 774 182 774 180 756 c 1,40,41
 180 666 180 666 238 633 c 1,42,43
 242 643 242 643 268 653 c 1,44,45
 299 653 299 653 315 655 c 1,46,47
 330 655 330 655 360 594 c 0,48,49
 377 561 377 561 377 547 c 1,50,51
 370 538 370 538 360 535 c 1,52,53
 360 535 360 535 330 516 c 1,54,55
 258 516 258 516 201 438 c 1,56,57
 155 377 155 377 152 291 c 0,58,59
 149 227 149 227 188 187 c 128,-1,60
 227 147 227 147 291 145 c 1,61,62
 383 144 383 144 430 238 c 1,63,64
 446 252 446 252 459 264 c 1,65,66
 467 264 467 264 469 268 c 1,67,68
 501 272 501 272 533.5 251 c 128,-1,69
 566 230 566 230 569 199 c 1,70,71
 554 110 554 110 455 53 c 0,72,73
 373 6 373 6 268 6 c 256,74,75
 163 6 163 6 86 98 c 0,76,77
 12 187 12 187 12 299 c 0,78,79
 12 443 12 443 113 547 c 1,80,81
 38 603 38 603 33 735 c 0,82,83
 32 756 32 756 37 780 c 1,84,85
 37 917 37 917 126.5 1009.5 c 128,-1,86
 216 1102 216 1102 354 1104 c 0,87,88
 451 1105 451 1105 546.5 1051 c 128,-1,89
 642 997 642 997 686 911 c 1,90,91
 808 1104 808 1104 965 1104 c 0,92,93
 1184 1104 1184 1104 1264 911 c 0,94,95
 1310 800 1310 800 1313 524 c 1,0,1
1159 408 m 1,96,97
 1152 415 1152 415 1130 424 c 0,98,99
 1116 430 1116 430 1104 430 c 0,100,101
 1048 430 1048 430 1004 346 c 0,102,103
 965 273 965 273 965 215 c 1,104,105
 968 183 968 183 979 168 c 0,106,107
 997 145 997 145 1004 145 c 0,108,109
 1082 151 1082 151 1159 408 c 1,96,97
EndSplineSet
Validated: 33
Substitution2: "Single Substitution lookup 17 subtable" glyph145
EndChar

StartChar: D
Encoding: 3236 3236 69
Width: 1178
GlyphClass: 2
Flags: W
LayerCount: 2
Fore
SplineSet
995 399 m 0,0,1
 995 265 995 265 807 129 c 0,2,3
 625 -2 625 -2 446 -2 c 0,4,5
 313 -2 313 -2 175 74 c 0,6,7
 16 162 16 162 12 285 c 0,8,9
 9 379 9 379 90 508 c 1,10,-1
 207 446 l 1,11,12
 176 415 176 415 152 291 c 1,13,14
 152 234 152 234 274 180 c 0,15,16
 369 139 369 139 446 137 c 1,17,18
 541 136 541 136 692 221 c 0,19,20
 850 310 850 310 850 399 c 0,21,22
 850 492 850 492 772 539 c 1,23,24
 602 344 602 344 463 346 c 0,25,26
 408 347 408 347 361.5 396 c 128,-1,27
 315 445 315 445 315 500 c 0,28,29
 315 584 315 584 430 666 c 0,30,31
 531 738 531 738 625 741 c 0,32,33
 691 744 691 744 733 709 c 1,34,35
 734 721 734 721 737 748 c 1,36,37
 737 762 737 762 741 772 c 1,38,39
 757 879 757 879 455 956 c 1,40,41
 400 949 400 949 281 901 c 0,42,43
 166 855 166 855 113 850 c 1,44,45
 29 850 29 850 29 903 c 1,46,47
 44 959 44 959 98 965 c 1,48,49
 340 1058 340 1058 580 1102 c 0,50,51
 629 1110 629 1110 731 1130 c 1,52,53
 814 1151 814 1151 817 1192 c 0,54,55
 818 1204 818 1204 805 1225 c 1,56,57
 801 1238 801 1238 795 1262 c 1,58,59
 795 1309 795 1309 864 1309 c 1,60,61
 936 1300 936 1300 954 1184 c 1,62,63
 954 1161 954 1161 956 1145 c 1,64,65
 956 1081 956 1081 885 1042 c 1,66,67
 837 1022 837 1022 698 995 c 1,68,69
 689 995 689 995 655 989 c 1,70,71
 709 977 709 977 797 924 c 1,72,73
 895 863 895 863 887 817 c 1,74,75
 887 711 887 711 850 655 c 1,76,77
 995 541 995 541 995 399 c 0,0,1
678 616 m 1,78,-1
 602 625 l 1,79,80
 574 625 574 625 518.5 580.5 c 128,-1,81
 463 536 463 536 463 508 c 0,82,83
 463 477 463 477 485 477 c 1,84,85
 508 480 508 480 584 532 c 1,86,87
 655 582 655 582 678 616 c 1,78,-1
EndSplineSet
Validated: 33
Substitution2: "Single Substitution lookup 17 subtable" glyph146
EndChar

StartChar: E
Encoding: 3237 3237 70
Width: 1477
GlyphClass: 2
Flags: W
LayerCount: 2
Fore
SplineSet
1296 457 m 0,0,1
 1296 270 1296 270 1204 141 c 0,2,3
 1104 2 1104 2 924 0 c 0,4,5
 820 -1 820 -1 748 49 c 0,6,7
 672 102 672 102 653 201 c 1,8,9
 624 107 624 107 545 53 c 128,-1,10
 466 -1 466 -1 367 0 c 0,11,12
 53 2 53 2 57 379 c 0,13,14
 59 550 59 550 157 681 c 128,-1,15
 255 812 255 812 414 883 c 1,16,17
 262 883 262 883 135 813 c 1,18,19
 110 791 110 791 49 791 c 0,20,21
 2 791 2 791 2 844 c 0,22,23
 2 875 2 875 23 893 c 1,24,25
 49 910 49 910 119 936 c 0,26,27
 372 1032 372 1032 608 1073 c 2,28,-1
 772 1102 l 1,29,30
 843 1113 843 1113 922.5 1129.5 c 128,-1,31
 1002 1146 1002 1146 1010 1192 c 1,32,33
 1010 1202 1010 1202 995 1225 c 1,34,35
 992 1238 992 1238 985 1262 c 1,36,37
 985 1309 985 1309 1055 1309 c 1,38,39
 1127 1300 1127 1300 1145 1184 c 1,40,41
 1145 1161 1145 1161 1149 1145 c 1,42,43
 1149 1084 1149 1084 1075 1042 c 0,44,45
 1034 1019 1034 1019 903 1006 c 0,46,47
 853 1001 853 1001 758 989 c 1,48,49
 610 965 610 965 498 913 c 1,50,51
 540 927 540 927 612 932 c 0,52,53
 669 935 669 935 737 936 c 0,54,55
 951 938 951 938 1120 807 c 0,56,57
 1296 670 1296 670 1296 457 c 0,0,1
707 -248 m 1,58,59
 707 -270 707 -270 676 -307 c 0,60,61
 652 -336 652 -336 623 -340 c 1,62,63
 588 -340 588 -340 555 -268 c 0,64,65
 528 -210 528 -210 528 -162 c 0,66,67
 528 -108 528 -108 556.5 -54 c 128,-1,68
 585 0 585 0 614 0 c 2,69,-1
 676 0 l 2,70,71
 698 0 698 0 698 -31 c 0,72,73
 698 -86 698 -86 676 -109 c 1,74,-1
 668 -139 l 1,75,76
 668 -152 668 -152 674 -166 c 1,77,78
 674 -188 674 -188 676 -201 c 1,79,80
 692 -216 692 -216 702 -236 c 1,81,82
 704 -237 704 -237 707 -248 c 1,58,59
1149 457 m 0,83,84
 1149 593 1149 593 1012 709 c 1,85,86
 878 821 878 821 723 821 c 0,87,88
 499 821 499 821 360 714 c 0,89,90
 205 596 205 596 205 379 c 0,91,92
 205 293 205 293 246 221 c 0,93,94
 292 139 292 139 375 139 c 0,95,96
 507 139 507 139 584 326 c 0,97,98
 599 364 599 364 614 418 c 1,99,100
 614 473 614 473 684 473 c 0,101,102
 768 473 768 473 768 418 c 2,103,-1
 768 340 l 2,104,105
 768 257 768 257 811 197 c 0,106,107
 851 140 851 140 924 139 c 0,108,109
 1042 137 1042 137 1102 246 c 0,110,111
 1149 331 1149 331 1149 457 c 0,83,84
768 705 m 0,112,113
 768 596 768 596 668 596 c 0,114,115
 567 596 567 596 567 705 c 1,116,117
 577 797 577 797 668 797 c 0,118,119
 768 797 768 797 768 705 c 0,112,113
EndSplineSet
Validated: 33
Substitution2: "Single Substitution lookup 17 subtable" glyph147
EndChar

StartChar: F
Encoding: 3238 3238 71
Width: 1477
GlyphClass: 2
Flags: W
LayerCount: 2
Fore
SplineSet
1296 457 m 0,0,1
 1296 270 1296 270 1204 141 c 0,2,3
 1104 2 1104 2 924 0 c 0,4,5
 820 -1 820 -1 748 49 c 0,6,7
 672 102 672 102 653 201 c 1,8,9
 624 107 624 107 545 53 c 128,-1,10
 466 -1 466 -1 367 0 c 0,11,12
 53 2 53 2 57 379 c 0,13,14
 59 550 59 550 157 681 c 128,-1,15
 255 812 255 812 414 883 c 1,16,17
 262 883 262 883 135 813 c 1,18,19
 110 791 110 791 49 791 c 0,20,21
 2 791 2 791 2 844 c 0,22,23
 2 875 2 875 23 893 c 1,24,25
 49 910 49 910 119 936 c 0,26,27
 372 1032 372 1032 608 1073 c 2,28,-1
 772 1102 l 1,29,30
 843 1113 843 1113 922.5 1129.5 c 128,-1,31
 1002 1146 1002 1146 1010 1192 c 1,32,33
 1010 1202 1010 1202 995 1225 c 1,34,35
 992 1238 992 1238 985 1262 c 1,36,37
 985 1309 985 1309 1055 1309 c 1,38,39
 1127 1300 1127 1300 1145 1184 c 1,40,41
 1145 1161 1145 1161 1149 1145 c 1,42,43
 1149 1084 1149 1084 1075 1042 c 0,44,45
 1034 1019 1034 1019 903 1006 c 0,46,47
 853 1001 853 1001 758 989 c 1,48,49
 610 965 610 965 498 913 c 1,50,51
 540 927 540 927 612 932 c 0,52,53
 669 935 669 935 737 936 c 0,54,55
 951 938 951 938 1120 807 c 0,56,57
 1296 670 1296 670 1296 457 c 0,0,1
1149 457 m 0,58,59
 1149 593 1149 593 1012 709 c 1,60,61
 878 821 878 821 723 821 c 0,62,63
 499 821 499 821 360 714 c 0,64,65
 205 596 205 596 205 379 c 0,66,67
 205 293 205 293 246 221 c 0,68,69
 292 139 292 139 375 139 c 0,70,71
 507 139 507 139 584 326 c 0,72,73
 599 364 599 364 614 418 c 1,74,75
 614 473 614 473 684 473 c 0,76,77
 768 473 768 473 768 418 c 2,78,-1
 768 340 l 2,79,80
 768 257 768 257 811 197 c 0,81,82
 851 140 851 140 924 139 c 0,83,84
 1042 137 1042 137 1102 246 c 0,85,86
 1149 331 1149 331 1149 457 c 0,58,59
EndSplineSet
Validated: 33
Substitution2: "Single Substitution lookup 17 subtable" glyph148
EndChar

StartChar: G
Encoding: 3239 3239 72
Width: 1477
GlyphClass: 2
Flags: W
LayerCount: 2
Fore
SplineSet
1296 457 m 0,0,1
 1296 270 1296 270 1204 141 c 0,2,3
 1104 2 1104 2 924 0 c 0,4,5
 820 -1 820 -1 748 49 c 0,6,7
 672 102 672 102 653 201 c 1,8,9
 624 107 624 107 545 53 c 128,-1,10
 466 -1 466 -1 367 0 c 0,11,12
 53 2 53 2 57 379 c 0,13,14
 59 550 59 550 157 681 c 128,-1,15
 255 812 255 812 414 883 c 1,16,17
 262 883 262 883 135 813 c 1,18,19
 110 791 110 791 49 791 c 0,20,21
 2 791 2 791 2 844 c 0,22,23
 2 875 2 875 23 893 c 1,24,25
 49 910 49 910 119 936 c 0,26,27
 372 1032 372 1032 608 1073 c 2,28,-1
 772 1102 l 1,29,30
 843 1113 843 1113 922.5 1129.5 c 128,-1,31
 1002 1146 1002 1146 1010 1192 c 1,32,33
 1010 1202 1010 1202 995 1225 c 1,34,35
 992 1238 992 1238 985 1262 c 1,36,37
 985 1309 985 1309 1055 1309 c 1,38,39
 1127 1300 1127 1300 1145 1184 c 1,40,41
 1145 1161 1145 1161 1149 1145 c 1,42,43
 1149 1084 1149 1084 1075 1042 c 0,44,45
 1034 1019 1034 1019 903 1006 c 0,46,47
 853 1001 853 1001 758 989 c 1,48,49
 610 965 610 965 498 913 c 1,50,51
 540 927 540 927 612 932 c 0,52,53
 669 935 669 935 737 936 c 0,54,55
 951 938 951 938 1120 807 c 0,56,57
 1296 670 1296 670 1296 457 c 0,0,1
707 -248 m 1,58,59
 707 -270 707 -270 676 -307 c 0,60,61
 652 -336 652 -336 623 -340 c 1,62,63
 588 -340 588 -340 555 -268 c 0,64,65
 528 -210 528 -210 528 -162 c 0,66,67
 528 -108 528 -108 556.5 -54 c 128,-1,68
 585 0 585 0 614 0 c 2,69,-1
 676 0 l 2,70,71
 698 0 698 0 698 -31 c 0,72,73
 698 -86 698 -86 676 -109 c 1,74,-1
 668 -139 l 1,75,76
 668 -152 668 -152 674 -166 c 1,77,78
 674 -188 674 -188 676 -201 c 1,79,80
 692 -216 692 -216 702 -236 c 1,81,82
 704 -237 704 -237 707 -248 c 1,58,59
1149 457 m 0,83,84
 1149 593 1149 593 1012 709 c 1,85,86
 878 821 878 821 723 821 c 0,87,88
 499 821 499 821 360 714 c 0,89,90
 205 596 205 596 205 379 c 0,91,92
 205 293 205 293 246 221 c 0,93,94
 292 139 292 139 375 139 c 0,95,96
 507 139 507 139 584 326 c 0,97,98
 599 364 599 364 614 418 c 1,99,100
 614 473 614 473 684 473 c 0,101,102
 768 473 768 473 768 418 c 2,103,-1
 768 340 l 2,104,105
 768 257 768 257 811 197 c 0,106,107
 851 140 851 140 924 139 c 0,108,109
 1042 137 1042 137 1102 246 c 0,110,111
 1149 331 1149 331 1149 457 c 0,83,84
EndSplineSet
Validated: 33
Substitution2: "Single Substitution lookup 17 subtable" glyph149
EndChar

StartChar: H
Encoding: 3240 3240 73
Width: 1282
GlyphClass: 2
Flags: W
LayerCount: 2
Fore
SplineSet
1102 381 m 0,0,1
 1102 360 1102 360 1100 346 c 1,2,3
 1100 204 1100 204 1030 109 c 0,4,5
 956 8 956 8 813 6 c 0,6,7
 635 4 635 4 418 291 c 0,8,9
 381 339 381 339 336 365 c 0,10,11
 298 386 298 386 248 393 c 1,12,13
 171 384 171 384 156 258 c 0,14,15
 154 234 154 234 150 201 c 1,16,17
 150 114 150 114 193 76 c 0,18,19
 226 46 226 46 240 12 c 1,20,21
 237 -10 237 -10 193 -43 c 0,22,23
 158 -69 158 -69 123 -72 c 1,24,25
 65 -72 65 -72 29 61 c 0,26,27
 3 155 3 155 0 246 c 1,28,29
 15 367 15 367 76 451 c 0,30,31
 146 547 146 547 264 547 c 0,32,33
 338 547 338 547 399 506 c 0,34,35
 443 477 443 477 513 382 c 0,36,37
 590 278 590 278 633 242 c 0,38,39
 752 140 752 140 827 137 c 1,40,41
 871 140 871 140 915 219 c 0,42,43
 953 286 953 286 961 346 c 1,44,45
 961 565 961 565 721 743 c 0,46,47
 499 908 499 908 270 911 c 1,48,-1
 186 887 l 1,49,50
 156 881 156 881 139 881 c 0,51,52
 99 881 99 881 96 924 c 0,53,54
 96 934 96 934 100 950 c 1,55,56
 100 991 100 991 217 1034 c 0,57,58
 344 1081 344 1081 545 1110 c 1,59,60
 625 1120 625 1120 782 1151 c 1,61,62
 864 1173 864 1173 870 1212 c 1,63,64
 870 1221 870 1221 856 1247 c 1,65,66
 853 1260 853 1260 846 1282 c 1,67,68
 846 1329 846 1329 915 1329 c 1,69,70
 987 1320 987 1320 1006 1204 c 1,71,72
 1006 1182 1006 1182 1010 1167 c 1,73,74
 1010 1104 1010 1104 936 1063 c 0,75,76
 910 1049 910 1049 827 1034 c 0,77,78
 818 1033 818 1033 657 1010 c 0,79,80
 549 994 549 994 496 973 c 1,81,82
 679 940 679 940 885 756 c 0,83,84
 1102 561 1102 561 1102 381 c 0,0,1
EndSplineSet
Validated: 33
Substitution2: "Single Substitution lookup 17 subtable" glyph150
EndChar

StartChar: I
Encoding: 3242 3242 74
Width: 1516
GlyphClass: 2
Flags: W
LayerCount: 2
Fore
SplineSet
1268 1184 m 1,0,1
 1268 1113 1268 1113 1194 1079 c 0,2,3
 1084 1028 1084 1028 887 1004 c 0,4,5
 826 997 826 997 741 983 c 1,6,7
 856 937 856 937 856 774 c 0,8,9
 856 669 856 669 793.5 613 c 128,-1,10
 731 557 731 557 625 557 c 0,11,12
 521 557 521 557 444 623 c 0,13,14
 372 685 372 685 369 791 c 1,15,16
 384 901 384 901 424 913 c 1,17,18
 287 908 287 908 121 844 c 1,19,-1
 43 844 l 1,20,21
 35 845 35 845 16 860 c 0,22,23
 10 866 10 866 6 883 c 1,24,25
 6 959 6 959 90 983 c 0,26,27
 316 1047 316 1047 567 1081 c 1,28,29
 647 1089 647 1089 813 1110 c 0,30,31
 875 1118 875 1118 999 1139 c 1,32,33
 1122 1164 1122 1164 1128 1231 c 0,34,35
 1128 1241 1128 1241 1114 1264 c 1,36,37
 1111 1277 1111 1277 1104 1300 c 1,38,39
 1104 1348 1104 1348 1174 1348 c 1,40,41
 1245 1339 1245 1339 1264 1223 c 1,42,43
 1264 1200 1264 1200 1268 1184 c 1,0,1
1360 557 m 0,44,45
 1360 354 1360 354 1224 179 c 0,46,47
 1078 -8 1078 -8 881 -8 c 0,48,49
 774 -8 774 -8 695.5 56.5 c 128,-1,50
 617 121 617 121 602 225 c 1,51,52
 553 131 553 131 473 68 c 0,53,54
 387 0 387 0 285 0 c 0,55,56
 154 0 154 0 76 96 c 0,57,58
 6 182 6 182 6 317 c 0,59,60
 6 419 6 419 67.5 488 c 128,-1,61
 129 557 129 557 229 557 c 0,62,63
 291 557 291 557 330 518 c 128,-1,64
 369 479 369 479 369 418 c 0,65,66
 369 381 369 381 346.5 338 c 128,-1,67
 324 295 324 295 285 295 c 0,68,69
 235 295 235 295 207 322 c 0,70,71
 176 351 176 351 176 379 c 1,72,73
 152 373 152 373 152 287 c 0,74,75
 152 223 152 223 188 180 c 1,76,77
 230 142 230 142 291 139 c 1,78,79
 438 155 438 155 563 418 c 1,80,81
 579 473 579 473 625 473 c 2,82,-1
 702 473 l 2,83,84
 710 473 710 473 727 459 c 1,85,86
 731 459 731 459 741 449 c 1,87,88
 733 435 733 435 733 403 c 1,89,90
 709 379 709 379 709 334 c 0,91,92
 709 257 709 257 757 198 c 128,-1,93
 805 139 805 139 881 139 c 0,94,95
 1017 139 1017 139 1120 285 c 0,96,97
 1212 415 1212 415 1212 557 c 0,98,99
 1212 618 1212 618 1159 618 c 1,100,101
 1150 615 1150 615 1104 596 c 2,102,-1
 1051 573 l 1,103,104
 1004 606 1004 606 1004 643 c 0,105,106
 1004 705 1004 705 1092 741 c 0,107,108
 1147 764 1147 764 1229 766 c 0,109,110
 1290 767 1290 767 1329 688 c 0,111,112
 1360 627 1360 627 1360 557 c 0,44,45
717 774 m 0,113,114
 717 835 717 835 674 882.5 c 128,-1,115
 631 930 631 930 578 936 c 1,116,117
 516 887 516 887 516 791 c 0,118,119
 516 746 516 746 547 707 c 1,120,121
 579 675 579 675 625 674 c 0,122,123
 717 672 717 672 717 774 c 0,113,114
EndSplineSet
Validated: 33
Substitution2: "Single Substitution lookup 17 subtable" glyph151
EndChar

StartChar: J
Encoding: 3243 3243 75
Width: 1516
GlyphClass: 2
Flags: W
LayerCount: 2
Fore
SplineSet
1268 1184 m 1,0,1
 1268 1113 1268 1113 1194 1079 c 0,2,3
 1084 1028 1084 1028 887 1004 c 0,4,5
 826 997 826 997 741 983 c 1,6,7
 856 937 856 937 856 774 c 0,8,9
 856 669 856 669 793.5 613 c 128,-1,10
 731 557 731 557 625 557 c 0,11,12
 521 557 521 557 444 623 c 0,13,14
 372 685 372 685 369 791 c 1,15,16
 384 901 384 901 424 913 c 1,17,18
 287 908 287 908 121 844 c 1,19,-1
 43 844 l 1,20,21
 35 845 35 845 16 860 c 0,22,23
 10 866 10 866 6 883 c 1,24,25
 6 959 6 959 90 983 c 0,26,27
 316 1047 316 1047 567 1081 c 1,28,29
 647 1089 647 1089 813 1110 c 0,30,31
 875 1118 875 1118 999 1139 c 1,32,33
 1122 1164 1122 1164 1128 1231 c 0,34,35
 1128 1241 1128 1241 1114 1264 c 1,36,37
 1111 1277 1111 1277 1104 1300 c 1,38,39
 1104 1348 1104 1348 1174 1348 c 1,40,41
 1245 1339 1245 1339 1264 1223 c 1,42,43
 1264 1200 1264 1200 1268 1184 c 1,0,1
1360 557 m 0,44,45
 1360 354 1360 354 1224 179 c 0,46,47
 1078 -8 1078 -8 881 -8 c 0,48,49
 774 -8 774 -8 695.5 56.5 c 128,-1,50
 617 121 617 121 602 225 c 1,51,52
 553 131 553 131 473 68 c 0,53,54
 387 0 387 0 285 0 c 0,55,56
 154 0 154 0 76 96 c 0,57,58
 6 182 6 182 6 317 c 0,59,60
 6 419 6 419 67.5 488 c 128,-1,61
 129 557 129 557 229 557 c 0,62,63
 291 557 291 557 330 518 c 128,-1,64
 369 479 369 479 369 418 c 0,65,66
 369 381 369 381 346.5 338 c 128,-1,67
 324 295 324 295 285 295 c 0,68,69
 235 295 235 295 207 322 c 0,70,71
 176 351 176 351 176 379 c 1,72,73
 152 373 152 373 152 287 c 0,74,75
 152 223 152 223 188 180 c 1,76,77
 230 142 230 142 291 139 c 1,78,79
 438 155 438 155 563 418 c 1,80,81
 579 473 579 473 625 473 c 2,82,-1
 702 473 l 2,83,84
 710 473 710 473 727 459 c 1,85,86
 731 459 731 459 741 449 c 1,87,88
 733 435 733 435 733 403 c 1,89,90
 709 379 709 379 709 334 c 0,91,92
 709 257 709 257 757 198 c 128,-1,93
 805 139 805 139 881 139 c 0,94,95
 1017 139 1017 139 1120 285 c 0,96,97
 1212 415 1212 415 1212 557 c 0,98,99
 1212 618 1212 618 1159 618 c 1,100,101
 1150 615 1150 615 1104 596 c 2,102,-1
 1051 573 l 1,103,104
 1004 606 1004 606 1004 643 c 0,105,106
 1004 705 1004 705 1092 741 c 0,107,108
 1147 764 1147 764 1229 766 c 0,109,110
 1290 767 1290 767 1329 688 c 0,111,112
 1360 627 1360 627 1360 557 c 0,44,45
633 -248 m 1,113,114
 633 -270 633 -270 602 -307 c 0,115,116
 578 -337 578 -337 547 -340 c 1,117,118
 512 -340 512 -340 479 -268 c 0,119,120
 455 -214 455 -214 455 -162 c 0,121,122
 455 -111 455 -111 483 -53 c 1,123,124
 510 0 510 0 539 0 c 2,125,-1
 616 0 l 1,126,127
 625 -14 625 -14 625 -31 c 0,128,129
 625 -54 625 -54 624 -66.5 c 128,-1,130
 623 -79 623 -79 616 -109 c 1,131,132
 608 -117 608 -117 602 -139 c 1,133,134
 602 -195 602 -195 616 -201 c 1,135,-1
 633 -248 l 1,113,114
717 774 m 0,136,137
 717 835 717 835 674 882.5 c 128,-1,138
 631 930 631 930 578 936 c 1,139,140
 516 887 516 887 516 791 c 0,141,142
 516 746 516 746 547 707 c 1,143,144
 579 675 579 675 625 674 c 0,145,146
 717 672 717 672 717 774 c 0,136,137
EndSplineSet
Validated: 33
Substitution2: "Single Substitution lookup 17 subtable" glyph152
EndChar

StartChar: K
Encoding: 3244 3244 76
Width: 1452
GlyphClass: 2
Flags: W
LayerCount: 2
Fore
SplineSet
1243 508 m 0,0,1
 1243 486 1243 486 1241 420 c 0,2,3
 1241 407 1241 407 1233 340 c 0,4,5
 1215 188 1215 188 1124 92 c 0,6,7
 1037 0 1037 0 885 0 c 0,8,9
 769 0 769 0 686 68 c 0,10,11
 607 132 607 132 592 248 c 1,12,13
 463 0 463 0 250 0 c 0,14,15
 135 0 135 0 63 86 c 0,16,17
 -6 169 -6 169 -6 287 c 1,18,19
 21 461 21 461 219 596 c 0,20,21
 389 712 389 712 389 852 c 0,22,23
 389 864 389 864 393 877 c 1,24,25
 384 965 384 965 319 967 c 1,26,27
 226 968 226 968 180 774 c 1,28,-1
 156 723 l 1,29,30
 148 715 148 715 135 713 c 1,31,-1
 41 713 l 1,32,33
 39 719 39 719 31 735 c 1,34,35
 30 744 30 744 27 766 c 1,36,37
 100 1100 100 1100 319 1100 c 0,38,39
 545 1100 545 1100 545 844 c 0,40,41
 545 658 545 658 319 504 c 0,42,43
 163 397 163 397 150 264 c 0,44,45
 144 212 144 212 178 178 c 0,46,47
 218 138 218 138 281 139 c 0,48,49
 451 141 451 141 559 426 c 1,50,51
 559 487 559 487 629 487 c 2,52,-1
 731 487 l 2,53,54
 754 487 754 487 745 457 c 1,55,56
 739 432 739 432 731.5 425.5 c 128,-1,57
 724 419 724 419 715 340 c 256,58,59
 706 261 706 261 762 199 c 0,60,61
 815 139 815 139 901 139 c 0,62,63
 989 139 989 139 1043 201 c 0,64,65
 1094 259 1094 259 1094 348 c 0,66,67
 1094 609 1094 609 1059 741 c 0,68,69
 1014 910 1014 910 915 991 c 0,70,71
 915 992 915 992 913 999 c 0,72,73
 913 1001 913 1001 911 1006 c 1,74,75
 911 1020 911 1020 913 1022 c 0,76,77
 927 1033 927 1033 961 1079 c 0,78,79
 990 1119 990 1119 1001 1122 c 1,80,81
 1128 1122 1128 1122 1194 864 c 0,82,83
 1240 683 1240 683 1243 508 c 0,0,1
EndSplineSet
Validated: 33
Substitution2: "Single Substitution lookup 17 subtable" glyph153
EndChar

StartChar: L
Encoding: 3245 3245 77
Width: 1452
GlyphClass: 2
Flags: W
LayerCount: 2
Fore
SplineSet
1243 436 m 0,0,1
 1243 260 1243 260 1167 141 c 0,2,3
 1078 2 1078 2 911 2 c 0,4,5
 793 2 793 2 698 72 c 0,6,7
 613 134 613 134 594 236 c 1,8,9
 549 136 549 136 457 68 c 0,10,11
 369 2 369 2 260 2 c 0,12,13
 155 2 155 2 78 88 c 0,14,15
 6 168 6 168 6 281 c 0,16,17
 6 454 6 454 199 592 c 0,18,19
 360 708 360 708 360 854 c 0,20,21
 360 893 360 893 330 930 c 0,22,23
 304 961 304 961 260 963 c 0,24,25
 234 964 234 964 197 909 c 1,26,27
 174 877 174 877 156 811 c 0,28,29
 143 767 143 767 133 750 c 0,30,31
 115 719 115 719 82 715 c 1,32,-1
 51 715 l 2,33,34
 -2 715 -2 715 -2 768 c 1,35,36
 32 1085 32 1085 285 1085 c 0,37,38
 500 1085 500 1085 500 846 c 0,39,40
 500 643 500 643 307 506 c 0,41,42
 168 407 168 407 168 266 c 0,43,44
 168 133 168 133 276 127 c 1,45,46
 438 160 438 160 555 420 c 1,47,48
 561 447 561 447 580 469 c 0,49,50
 594 486 594 486 616 489 c 1,51,-1
 725 489 l 1,52,53
 741 473 741 473 741 459 c 1,54,55
 739 457 739 457 735 440 c 0,56,57
 735 438 735 438 734 428 c 128,-1,58
 733 418 733 418 727 414 c 1,59,60
 725 408 725 408 725 336 c 0,61,62
 725 246 725 246 784.5 188 c 128,-1,63
 844 130 844 130 934 127 c 1,64,65
 1017 142 1017 142 1061 251 c 0,66,67
 1095 334 1095 334 1096 436 c 0,68,69
 1098 612 1098 612 1009.5 756 c 128,-1,70
 921 900 921 900 764 963 c 1,71,72
 731 950 731 950 709 940 c 1,73,74
 678 940 678 940 664 954 c 0,75,76
 647 971 647 971 647 1001 c 0,77,78
 647 1081 647 1081 856 1110 c 0,79,80
 923 1119 923 1119 965 1130 c 0,81,82
 1051 1153 1051 1153 1051 1192 c 0,83,84
 1051 1205 1051 1205 1038 1225 c 1,85,86
 1034 1238 1034 1238 1026 1262 c 1,87,88
 1026 1309 1026 1309 1096 1309 c 1,89,90
 1166 1300 1166 1300 1188 1184 c 1,91,92
 1188 1161 1188 1161 1190 1145 c 1,93,94
 1190 1079 1190 1079 1118 1042 c 0,95,96
 1077 1021 1077 1021 1019.5 1019.5 c 128,-1,97
 962 1018 962 1018 926 1001 c 1,98,99
 1073 939 1073 939 1159 780 c 0,100,101
 1243 626 1243 626 1243 436 c 0,0,1
639 -242 m 1,102,103
 636 -264 636 -264 602 -301 c 1,104,105
 567 -333 567 -333 547 -336 c 1,106,107
 513 -336 513 -336 477 -270 c 0,108,109
 446 -214 446 -214 446 -158 c 0,110,111
 446 -114 446 -114 469 -61 c 1,112,113
 495 2 495 2 532 2 c 2,114,-1
 608 2 l 1,115,116
 616 -12 616 -12 616 -29 c 0,117,118
 616 -49 616 -49 615 -62.5 c 128,-1,119
 614 -76 614 -76 608 -106 c 1,120,121
 602 -113 602 -113 602 -135 c 0,122,123
 602 -150 602 -150 606 -166 c 1,124,125
 606 -193 606 -193 608 -205 c 1,126,127
 617 -220 617 -220 627 -229 c 1,128,-1
 639 -242 l 1,102,103
EndSplineSet
Validated: 33
Substitution2: "Single Substitution lookup 17 subtable" glyph154
EndChar

StartChar: M
Encoding: 3246 3246 78
Width: 2177
GlyphClass: 2
Flags: W
LayerCount: 2
Fore
SplineSet
1972 516 m 0,0,1
 1972 301 1972 301 1876 161 c 0,2,3
 1766 0 1766 0 1561 0 c 0,4,5
 1409 0 1409 0 1300 72 c 0,6,7
 1245 108 1245 108 1210 162 c 1,8,9
 1104 0 1104 0 872 0 c 0,10,11
 771 0 771 0 694 63 c 128,-1,12
 617 126 617 126 602 225 c 1,13,14
 491 0 491 0 285 0 c 0,15,16
 157 0 157 0 80 76 c 0,17,18
 6 148 6 148 6 279 c 0,19,20
 6 386 6 386 63 465 c 0,21,22
 130 557 130 557 229 557 c 0,23,24
 291 557 291 557 330 518 c 128,-1,25
 369 479 369 479 369 418 c 0,26,27
 369 371 369 371 348 338 c 1,28,29
 328 295 328 295 285 295 c 0,30,31
 235 295 235 295 207 322 c 0,32,33
 176 351 176 351 176 379 c 1,34,35
 152 373 152 373 152 287 c 0,36,37
 152 223 152 223 188 180 c 1,38,39
 230 142 230 142 291 139 c 1,40,41
 438 155 438 155 563 418 c 1,42,43
 579 473 579 473 625 473 c 2,44,-1
 702 473 l 1,45,46
 712 470 712 470 731 459 c 1,47,-1
 741 449 l 1,48,49
 733 435 733 435 733 403 c 1,50,51
 709 379 709 379 709 334 c 0,52,53
 709 246 709 246 764 190 c 1,54,55
 814 141 814 141 895 139 c 0,56,57
 1004 137 1004 137 1081 242 c 0,58,59
 1151 336 1151 336 1151 449 c 0,60,61
 1151 603 1151 603 1001 725 c 0,62,63
 856 844 856 844 655 844 c 2,64,-1
 369 844 l 1,65,66
 180 842 180 842 90 813 c 1,67,68
 49 816 49 816 31 825 c 1,69,70
 5 842 5 842 6 866 c 0,71,72
 8 930 8 930 68 952 c 1,73,74
 328 1052 328 1052 563 1083 c 1,75,76
 697 1096 697 1096 963 1141 c 1,77,78
 1048 1162 1048 1162 1051 1202 c 0,79,80
 1051 1214 1051 1214 1038 1237 c 1,81,82
 1034 1249 1034 1249 1026 1272 c 1,83,84
 1026 1319 1026 1319 1096 1319 c 1,85,86
 1166 1310 1166 1310 1188 1194 c 1,87,88
 1188 1171 1188 1171 1190 1155 c 1,89,90
 1190 1085 1190 1085 1118 1053 c 1,91,92
 1029 1012 1029 1012 944 1012 c 0,93,94
 617 1009 617 1009 477 952 c 1,95,96
 522 961 522 961 563 961 c 2,97,-1
 678 961 l 2,98,99
 916 961 916 961 1094 825 c 0,100,101
 1288 678 1288 678 1290 449 c 0,102,103
 1291 400 1291 400 1282 356 c 1,104,105
 1314 340 1314 340 1337 287 c 0,106,107
 1397 147 1397 147 1569 145 c 0,108,109
 1694 144 1694 144 1755 276 c 0,110,111
 1800 374 1800 374 1800 516 c 0,112,113
 1800 784 1800 784 1612 942 c 1,114,115
 1552 903 1552 903 1491 903 c 0,116,117
 1435 903 1435 903 1425 991 c 1,118,119
 1419 1007 1419 1007 1460 1044 c 0,120,121
 1486 1068 1486 1068 1516 1081 c 1,122,123
 1538 1092 1538 1092 1595 1100 c 1,124,125
 1700 1100 1700 1100 1806 975 c 0,126,127
 1972 780 1972 780 1972 516 c 0,0,1
EndSplineSet
Validated: 33
Substitution2: "Single Substitution lookup 17 subtable" glyph155
EndChar

StartChar: N
Encoding: 3247 3247 79
Width: 2482
GlyphClass: 2
Flags: W
LayerCount: 2
Fore
SplineSet
2302 516 m 0,0,1
 2302 305 2302 305 2206 162 c 0,2,3
 2097 0 2097 0 1892 0 c 0,4,5
 1636 0 1636 0 1532 172 c 1,6,7
 1413 -8 1413 -8 1184 -10 c 0,8,9
 1060 -11 1060 -11 965 59 c 0,10,11
 879 123 879 123 827 246 c 1,12,13
 716 -11 716 -11 449 -10 c 0,14,15
 2 -8 2 -8 2 455 c 2,16,-1
 2 498 l 1,17,18
 3 502 3 502 8 555 c 0,19,20
 29 773 29 773 173.5 931.5 c 128,-1,21
 318 1090 318 1090 543 1090 c 0,22,23
 733 1090 733 1090 842 946 c 0,24,25
 934 825 934 825 934 618 c 0,26,27
 934 604 934 604 932 569 c 0,28,29
 932 558 932 558 930 532 c 1,30,31
 924 508 924 508 913 459 c 1,32,-1
 905 416 l 1,33,34
 992 129 992 129 1192 129 c 0,35,36
 1319 129 1319 129 1403 252 c 0,37,38
 1454 327 1454 327 1477 496 c 0,39,40
 1477 501 1477 501 1481 526 c 1,41,-1
 1481 578 l 1,42,43
 1475 897 1475 897 1309 995 c 1,44,45
 1047 995 1047 995 1053 1059 c 1,46,47
 1053 1099 1053 1099 1088 1122 c 0,48,49
 1119 1143 1119 1143 1161 1143 c 0,50,51
 1181 1143 1181 1143 1208 1135 c 1,52,53
 1223 1120 1223 1120 1249 1120 c 0,54,55
 1268 1120 1268 1120 1290 1122 c 1,56,-1
 1329 1122 l 2,57,58
 1405 1122 1405 1122 1479 1141 c 0,59,60
 1564 1162 1564 1162 1567 1200 c 0,61,62
 1567 1210 1567 1210 1554 1233 c 1,63,64
 1550 1246 1550 1246 1542 1270 c 1,65,66
 1542 1317 1542 1317 1612 1317 c 1,67,68
 1683 1308 1683 1308 1704 1192 c 1,69,70
 1704 1169 1704 1169 1706 1153 c 1,71,72
 1706 1035 1706 1035 1501 1020 c 1,73,74
 1626 910 1626 910 1626 500 c 0,75,76
 1626 416 1626 416 1612 356 c 1,77,78
 1643 342 1643 342 1667 287 c 0,79,80
 1727 147 1727 147 1898 145 c 0,81,82
 2022 144 2022 144 2085 276 c 0,83,84
 2132 376 2132 376 2132 516 c 0,85,86
 2132 784 2132 784 1944 942 c 1,87,88
 1884 903 1884 903 1823 903 c 0,89,90
 1768 903 1768 903 1755 991 c 0,91,92
 1753 1009 1753 1009 1790 1044 c 0,93,94
 1814 1067 1814 1067 1845 1081 c 0,95,96
 1868 1092 1868 1092 1925 1100 c 1,97,98
 2030 1100 2030 1100 2136 975 c 0,99,100
 2302 780 2302 780 2302 516 c 0,0,1
782 563 m 1,101,102
 782 705 782 705 733 815 c 0,103,104
 671 955 671 955 543 956 c 0,105,106
 384 958 384 958 270 827 c 0,107,108
 168 710 168 710 147 547 c 1,109,110
 150 334 150 334 215 236 c 0,111,112
 285 129 285 129 434 129 c 256,113,114
 583 129 583 129 686 274 c 0,115,116
 767 389 767 389 782 563 c 1,101,102
EndSplineSet
Validated: 33
Substitution2: "Single Substitution lookup 17 subtable" glyph156
EndChar

StartChar: O
Encoding: 3248 3248 80
Width: 1161
GlyphClass: 2
Flags: W
LayerCount: 2
Fore
SplineSet
954 395 m 0,0,1
 954 195 954 195 779 89 c 0,2,3
 633 0 633 0 420 0 c 0,4,5
 244 0 244 0 144 94 c 0,6,7
 41 190 41 190 41 365 c 1,8,9
 54 494 54 494 142 602 c 0,10,11
 225 703 225 703 350 758 c 1,12,13
 301 781 301 781 229 782 c 0,14,15
 154 784 154 784 31 807 c 1,16,17
 2 827 2 827 2 866 c 1,18,19
 33 950 33 950 127 983 c 1,20,21
 290 1066 290 1066 489 1102 c 1,22,23
 558 1113 558 1113 637 1128 c 1,24,25
 725 1150 725 1150 727 1192 c 0,26,27
 728 1204 728 1204 715 1225 c 1,28,29
 709 1241 709 1241 705 1262 c 1,30,31
 705 1309 705 1309 774 1309 c 1,32,33
 846 1300 846 1300 864 1184 c 1,34,35
 864 1161 864 1161 866 1145 c 1,36,37
 866 1081 866 1081 795 1042 c 0,38,39
 752 1019 752 1019 612 1010 c 1,40,41
 406 995 406 995 197 883 c 1,42,43
 405 883 405 883 498 844 c 1,44,45
 622 897 622 897 692 897 c 1,46,47
 730 894 730 894 756 881 c 1,48,49
 784 861 784 861 784 844 c 0,50,51
 784 791 784 791 676 791 c 1,52,53
 775 769 775 769 866 635 c 0,54,55
 954 505 954 505 954 395 c 0,0,1
815 395 m 0,56,57
 818 500 818 500 724 617.5 c 128,-1,58
 630 735 630 735 522 735 c 1,59,60
 395 692 395 692 301 592 c 0,61,62
 212 497 212 497 180 365 c 1,63,64
 180 348 180 348 178 336 c 1,65,66
 178 245 178 245 264 186 c 0,67,68
 333 139 333 139 436 139 c 0,69,70
 609 139 609 139 710.5 208 c 128,-1,71
 812 277 812 277 815 395 c 0,56,57
EndSplineSet
Validated: 33
Substitution2: "Single Substitution lookup 17 subtable" glyph157
EndChar

StartChar: P
Encoding: 3249 3249 81
Width: 1569
GlyphClass: 2
Flags: W
LayerCount: 2
Fore
SplineSet
1413 629 m 0,0,1
 1413 622 1413 622 1411 567 c 0,2,3
 1410 530 1410 530 1403 508 c 1,4,-1
 1403 477 l 1,5,6
 1366 267 1366 267 1224 132.5 c 128,-1,7
 1082 -2 1082 -2 862 -2 c 0,8,9
 724 -2 724 -2 645 106 c 1,10,11
 531 -2 531 -2 397 -2 c 0,12,13
 214 -2 214 -2 111 97.5 c 128,-1,14
 8 197 8 197 8 379 c 0,15,16
 8 428 8 428 16 477 c 1,17,-1
 16 508 l 1,18,19
 40 690 40 690 147 825 c 0,20,21
 264 973 264 973 444 973 c 0,22,23
 536 973 536 973 598 903 c 0,24,25
 647 848 647 848 647 772 c 0,26,27
 647 757 647 757 645 741 c 1,28,29
 645 694 645 694 614 664 c 1,30,-1
 846 664 l 1,31,32
 846 709 846 709 862 725 c 1,33,34
 878 833 878 833 946 903 c 128,-1,35
 1014 973 1014 973 1124 973 c 0,36,37
 1272 973 1272 973 1348 870 c 0,38,39
 1410 786 1410 786 1413 629 c 0,0,1
1155 741 m 0,40,41
 1155 766 1155 766 1153 780 c 1,42,43
 1138 817 1138 817 1094 817 c 0,44,45
 1061 817 1061 817 1039 791 c 128,-1,46
 1017 765 1017 765 1015.5 743 c 128,-1,47
 1014 721 1014 721 1012 709 c 1,48,49
 1012 664 1012 664 1079 664 c 0,50,51
 1155 664 1155 664 1155 741 c 0,40,41
489 741 m 1,52,53
 486 777 486 777 467 797 c 1,54,55
 455 814 455 814 428 817 c 1,56,57
 336 817 336 817 336 741 c 1,58,59
 335 732 335 732 330 713 c 1,60,61
 330 665 330 665 397 664 c 0,62,63
 474 662 474 662 489 741 c 1,52,53
1264 602 m 1,64,65
 1197 508 1197 508 1049 508 c 2,66,-1
 367 508 l 2,67,68
 226 508 226 508 180 602 c 1,69,70
 180 587 180 587 172 553 c 0,71,72
 166 527 166 527 166 508 c 2,73,-1
 166 477 l 2,74,75
 166 463 166 463 160 446 c 1,76,-1
 160 418 l 2,77,78
 160 297 160 297 236 229 c 0,79,80
 304 168 304 168 428 168 c 0,81,82
 488 168 488 168 538.5 215.5 c 128,-1,83
 589 263 589 263 598 322 c 1,84,-1
 614 354 l 1,85,-1
 768 354 l 1,86,-1
 754 322 l 1,87,88
 754 309 754 309 752 295 c 1,89,90
 752 169 752 169 893 168 c 1,91,92
 1029 166 1029 166 1128 252 c 0,93,94
 1220 331 1220 331 1249 477 c 1,95,-1
 1249 508 l 2,96,97
 1249 528 1249 528 1257 555 c 1,98,99
 1264 586 1264 586 1264 602 c 1,64,65
EndSplineSet
Validated: 33
Substitution2: "Single Substitution lookup 17 subtable" glyph158
EndChar

StartChar: Q
Encoding: 3250 3250 82
Width: 1489
GlyphClass: 2
Flags: W
LayerCount: 2
Fore
SplineSet
1268 674 m 0,0,1
 1268 659 1268 659 1262 643 c 1,2,-1
 1262 596 l 1,3,4
 1231 308 1231 308 1052 150.5 c 128,-1,5
 873 -7 873 -7 580 -8 c 1,6,7
 329 -10 329 -10 175 119 c 0,8,9
 10 257 10 257 10 504 c 2,10,-1
 10 545 l 1,11,12
 11 548 11 548 16 596 c 0,13,14
 40 795 40 795 123 926 c 0,15,16
 226 1088 226 1088 410 1092 c 1,17,18
 567 1061 567 1061 557 922 c 0,19,20
 545 752 545 752 365 752 c 1,21,22
 248 767 248 767 248 836 c 1,23,24
 186 762 186 762 162 612 c 0,25,26
 162 606 162 606 161 584.5 c 128,-1,27
 160 563 160 563 160 545 c 0,28,29
 157 350 157 350 274 238 c 0,30,31
 385 131 385 131 588 131 c 0,32,33
 804 131 804 131 954 246 c 0,34,35
 1114 368 1114 368 1114 580 c 0,36,37
 1114 705 1114 705 1075 823 c 0,38,39
 1024 980 1024 980 922 983 c 1,40,41
 922 1000 922 1000 909 1006 c 0,42,43
 902 1009 902 1009 891 1014 c 1,44,45
 906 1122 906 1122 975 1122 c 0,46,47
 1118 1122 1118 1122 1200 961 c 0,48,49
 1261 840 1261 840 1268 674 c 0,0,1
EndSplineSet
Validated: 33
Substitution2: "Single Substitution lookup 17 subtable" glyph159
EndChar

StartChar: R
Encoding: 3251 3251 83
Width: 1225
GlyphClass: 2
Flags: W
LayerCount: 2
Fore
SplineSet
1161 1145 m 0,0,1
 1163 1059 1163 1059 967 1006 c 1,2,3
 1042 962 1042 962 1038 844 c 0,4,5
 1035 737 1035 737 891 627 c 0,6,7
 791 551 791 551 651 487 c 1,8,9
 854 382 854 382 854 256 c 0,10,11
 854 244 854 244 852 231 c 1,12,13
 849 107 849 107 723 47 c 0,14,15
 625 0 625 0 487 0 c 0,16,17
 373 0 373 0 280 56 c 0,18,19
 171 121 171 121 168 227 c 0,20,21
 168 244 168 244 170 256 c 1,22,23
 170 417 170 417 371 510 c 1,24,25
 285 523 285 523 117 657 c 1,26,27
 101 654 101 654 53 627 c 0,28,29
 39 618 39 618 31 618 c 1,30,31
 -23 630 -23 630 -23 705 c 0,32,33
 -23 726 -23 726 18 745 c 0,34,35
 33 752 33 752 53 766 c 1,36,37
 26 802 26 802 10 842 c 1,38,39
 2 891 2 891 0 913 c 1,40,41
 0 1019 0 1019 63.5 1085.5 c 128,-1,42
 127 1152 127 1152 231 1153 c 0,43,44
 426 1155 426 1155 426 930 c 1,45,46
 411 830 411 830 256 743 c 1,47,48
 354 621 354 621 518 565 c 1,49,50
 882 697 882 697 897 844 c 1,51,52
 900 853 900 853 900 862 c 0,53,54
 900 913 900 913 811 971 c 1,55,56
 765 961 765 961 709 936 c 0,57,58
 658 913 658 913 651 913 c 1,59,60
 634 916 634 916 614 934 c 0,61,62
 599 948 599 948 596 967 c 1,63,64
 596 1004 596 1004 705 1069 c 1,65,66
 746 1088 746 1088 803 1104 c 1,67,68
 844 1113 844 1113 926 1133 c 0,69,70
 1020 1156 1020 1156 1022 1192 c 0,71,72
 1023 1204 1023 1204 1010 1225 c 1,73,74
 1004 1241 1004 1241 999 1262 c 1,75,76
 999 1311 999 1311 1069 1309 c 0,77,78
 1111 1308 1111 1308 1141 1247 c 1,79,80
 1160 1195 1160 1195 1161 1145 c 0,0,1
279 936 m 0,81,82
 279 1038 279 1038 225 1038 c 0,83,84
 162 1038 162 1038 162 936 c 1,85,86
 161 924 161 924 158 897 c 1,87,88
 158 842 158 842 193 827 c 1,89,90
 279 877 279 877 279 936 c 0,81,82
713 248 m 1,91,92
 713 275 713 275 657 319 c 1,93,94
 623 347 623 347 504 418 c 1,95,96
 319 342 319 342 309 256 c 1,97,98
 312 194 312 194 379 156 c 0,99,100
 437 123 437 123 504 123 c 0,101,102
 556 123 556 123 627 160 c 0,103,104
 704 200 704 200 713 248 c 1,91,92
EndSplineSet
Validated: 33
Substitution2: "Single Substitution lookup 17 subtable" glyph160
EndChar

StartChar: S
Encoding: 3253 3253 84
Width: 1470
GlyphClass: 2
Flags: W
LayerCount: 2
Fore
SplineSet
1290 449 m 0,0,1
 1290 249 1290 249 1182 127 c 0,2,3
 1070 0 1070 0 872 0 c 0,4,5
 771 0 771 0 694 63 c 128,-1,6
 617 126 617 126 602 225 c 1,7,8
 491 0 491 0 285 0 c 0,9,10
 157 0 157 0 80 76 c 0,11,12
 6 148 6 148 6 279 c 0,13,14
 6 386 6 386 63 465 c 0,15,16
 130 557 130 557 229 557 c 0,17,18
 291 557 291 557 330 518 c 128,-1,19
 369 479 369 479 369 418 c 0,20,21
 369 371 369 371 348 338 c 1,22,23
 328 295 328 295 285 295 c 0,24,25
 235 295 235 295 207 322 c 0,26,27
 176 351 176 351 176 379 c 1,28,29
 152 373 152 373 152 287 c 0,30,31
 152 223 152 223 188 180 c 1,32,33
 230 142 230 142 291 139 c 1,34,35
 438 155 438 155 563 418 c 1,36,37
 579 473 579 473 625 473 c 2,38,-1
 702 473 l 1,39,40
 712 470 712 470 731 459 c 1,41,-1
 741 449 l 1,42,43
 733 435 733 435 733 403 c 1,44,45
 709 379 709 379 709 334 c 0,46,47
 709 246 709 246 764 190 c 1,48,49
 814 141 814 141 895 139 c 0,50,51
 1004 137 1004 137 1081 242 c 0,52,53
 1151 336 1151 336 1151 449 c 0,54,55
 1151 603 1151 603 1001 725 c 0,56,57
 856 844 856 844 655 844 c 2,58,-1
 369 844 l 1,59,60
 180 842 180 842 90 813 c 1,61,62
 49 816 49 816 31 825 c 1,63,64
 5 842 5 842 6 866 c 0,65,66
 8 930 8 930 68 952 c 1,67,68
 328 1052 328 1052 563 1083 c 1,69,70
 697 1096 697 1096 963 1141 c 1,71,72
 1048 1162 1048 1162 1051 1202 c 0,73,74
 1051 1214 1051 1214 1038 1237 c 1,75,76
 1034 1249 1034 1249 1026 1272 c 1,77,78
 1026 1319 1026 1319 1096 1319 c 1,79,80
 1166 1310 1166 1310 1188 1194 c 1,81,82
 1188 1171 1188 1171 1190 1155 c 1,83,84
 1190 1085 1190 1085 1118 1053 c 1,85,86
 1029 1012 1029 1012 944 1012 c 0,87,88
 617 1009 617 1009 477 952 c 1,89,90
 522 961 522 961 563 961 c 2,91,-1
 678 961 l 2,92,93
 913 961 913 961 1094 825 c 0,94,95
 1290 678 1290 678 1290 449 c 0,0,1
EndSplineSet
Validated: 33
Substitution2: "Single Substitution lookup 17 subtable" glyph161
EndChar

StartChar: T
Encoding: 3254 3254 85
Width: 1319
GlyphClass: 2
Flags: W
LayerCount: 2
Fore
SplineSet
1163 555 m 0,0,1
 1164 539 1164 539 1161 516 c 1,2,3
 1161 269 1161 269 961 121 c 0,4,5
 783 -10 783 -10 526 -10 c 0,6,7
 384 -10 384 -10 250 51 c 0,8,9
 98 121 98 121 98 233 c 0,10,11
 98 338 98 338 199 414 c 0,12,13
 289 482 289 482 426 494 c 1,14,15
 521 501 521 501 575 549 c 1,16,17
 639 604 639 604 651 686 c 1,18,19
 651 725 651 725 604 772 c 1,20,21
 513 772 513 772 440 702 c 1,22,23
 457 702 457 702 457 664 c 1,24,25
 447 617 447 617 409.5 585.5 c 128,-1,26
 372 554 372 554 326 555 c 0,27,28
 203 557 203 557 209 686 c 1,29,30
 227 785 227 785 338 838 c 0,31,32
 414 874 414 874 543 881 c 1,33,34
 514 926 514 926 426 950 c 1,35,36
 349 943 349 943 291 924 c 1,37,38
 252 916 252 916 47 842 c 1,39,40
 -8 848 -8 848 -8 926 c 1,41,42
 164 1024 164 1024 418 1081 c 0,43,44
 501 1100 501 1100 604 1112 c 0,45,46
 664 1118 664 1118 735 1128 c 0,47,48
 828 1140 828 1140 885 1155 c 0,49,50
 970 1178 970 1178 973 1219 c 0,51,52
 973 1228 973 1228 961 1251 c 1,53,54
 954 1268 954 1268 950 1288 c 1,55,56
 950 1336 950 1336 1020 1333 c 0,57,58
 1088 1330 1088 1330 1110 1210 c 1,59,60
 1110 1188 1110 1188 1112 1171 c 1,61,62
 1112 1099 1112 1099 1042 1069 c 0,63,64
 995 1048 995 1048 872 1026 c 1,65,66
 823 1022 823 1022 721 1012 c 1,67,68
 641 1002 641 1002 573 981 c 1,69,70
 669 966 669 966 713 881 c 1,71,72
 875 881 875 881 1006 801 c 0,73,74
 1160 706 1160 706 1163 555 c 0,0,1
1022 516 m 1,75,76
 1019 615 1019 615 940 686 c 0,77,78
 872 747 872 747 766 772 c 1,79,80
 782 707 782 707 782 672 c 1,81,82
 767 534 767 534 672.5 447 c 128,-1,83
 578 360 578 360 440 360 c 1,84,85
 262 330 262 330 256 260 c 1,86,87
 259 191 259 191 371 156 c 0,88,89
 451 130 451 130 543 129 c 0,90,91
 705 127 705 127 854 237.5 c 128,-1,92
 1003 348 1003 348 1022 516 c 1,75,76
EndSplineSet
Validated: 33
Substitution2: "Single Substitution lookup 17 subtable" exclamdown
EndChar

StartChar: U
Encoding: 3255 3255 86
Width: 1509
GlyphClass: 2
Flags: W
LayerCount: 2
Fore
SplineSet
1268 1159 m 1,0,1
 1268 1084 1268 1084 1194 1055 c 0,2,3
 1134 1031 1134 1031 883 1004 c 0,4,5
 840 999 840 999 735 983 c 1,6,7
 852 937 852 937 852 782 c 0,8,9
 852 565 852 565 618 565 c 0,10,11
 517 565 517 565 441 628 c 128,-1,12
 365 691 365 691 365 791 c 1,13,14
 380 901 380 901 418 913 c 1,15,16
 289 908 289 908 123 844 c 1,17,-1
 47 844 l 1,18,19
 36 846 36 846 18 860 c 1,20,21
 12 866 12 866 8 883 c 1,22,23
 8 958 8 958 92 983 c 0,24,25
 318 1049 318 1049 616 1085 c 1,26,27
 723 1096 723 1096 830 1107 c 0,28,29
 956 1120 956 1120 1039 1142.5 c 128,-1,30
 1122 1165 1122 1165 1128 1204 c 1,31,32
 1128 1213 1128 1213 1114 1239 c 1,33,34
 1111 1251 1111 1251 1104 1274 c 1,35,36
 1104 1324 1104 1324 1174 1321 c 256,37,38
 1244 1318 1244 1318 1264 1198 c 1,39,40
 1264 1174 1264 1174 1268 1159 c 1,0,1
1354 565 m 0,41,42
 1351 269 1351 269 1114 90 c 1,43,-1
 1208 -160 l 1,44,45
 1208 -176 1208 -176 1210 -193 c 1,46,47
 1210 -209 1210 -209 1208 -219 c 1,48,-1
 1208 -240 l 1,49,50
 1196 -247 1196 -247 1190 -248 c 1,51,52
 1169 -256 1169 -256 1130 -260 c 1,53,-1
 1114 -246 l 2,54,55
 1113 -245 1113 -245 1113 -245 c 2,56,57
 1100 -233 1100 -233 1100 -221 c 1,58,-1
 999 27 l 1,59,60
 935 2 935 2 874 2 c 0,61,62
 769 2 769 2 688 68 c 0,63,64
 611 130 611 130 596 236 c 1,65,66
 550 140 550 140 472 79 c 0,67,68
 385 10 385 10 287 10 c 0,69,70
 156 10 156 10 78 106 c 0,71,72
 8 192 8 192 8 328 c 0,73,74
 8 425 8 425 69 495 c 128,-1,75
 130 565 130 565 231 565 c 0,76,77
 312 565 312 565 345 505 c 0,78,79
 360 477 360 477 365 428 c 1,80,81
 365 387 365 387 346 350 c 0,82,83
 323 304 323 304 287 305 c 0,84,85
 178 307 178 307 178 397 c 1,86,87
 156 386 156 386 156 297 c 0,88,89
 156 234 156 234 190 190 c 1,90,91
 232 152 232 152 295 150 c 1,92,93
 435 165 435 165 557 428 c 1,94,95
 572 479 572 479 618 479 c 2,96,-1
 696 479 l 2,97,98
 706 479 706 479 723 467 c 1,99,100
 725 467 725 467 735 457 c 1,101,102
 727 436 727 436 727 414 c 1,103,104
 707 404 707 404 705 385 c 1,105,-1
 705 344 l 2,106,107
 705 267 705 267 752 207 c 0,108,109
 794 153 794 153 874 150 c 1,110,111
 922 153 922 153 946 162 c 1,112,-1
 813 496 l 1,113,114
 813 535 813 535 844 565 c 1,115,-1
 897 580 l 1,116,117
 910 575 910 575 922 563 c 0,118,119
 931 554 931 554 952 526 c 1,120,-1
 1061 238 l 1,121,122
 1208 376 1208 376 1208 565 c 0,123,124
 1208 627 1208 627 1153 627 c 1,125,126
 1144 623 1144 623 1100 604 c 2,127,-1
 1044 580 l 1,128,129
 1012 605 1012 605 1006 614 c 1,130,131
 999 633 999 633 999 651 c 0,132,133
 999 713 999 713 1085 748 c 1,134,135
 1148 772 1148 772 1223 774 c 0,136,137
 1284 776 1284 776 1323 698 c 0,138,139
 1354 634 1354 634 1354 565 c 0,41,42
713 782 m 0,140,141
 713 829 713 829 666 883 c 1,142,143
 621 933 621 933 573 936 c 1,144,145
 510 885 510 885 510 791 c 0,146,147
 510 753 510 753 545 715 c 0,148,149
 574 683 574 683 618 682 c 0,150,151
 713 680 713 680 713 782 c 0,140,141
EndSplineSet
Validated: 33
Substitution2: "Single Substitution lookup 17 subtable" cent
EndChar

StartChar: V
Encoding: 3256 3256 87
Width: 1450
GlyphClass: 2
Flags: W
LayerCount: 2
Fore
SplineSet
1214 1184 m 1,0,1
 1214 1122 1214 1122 1143 1081 c 1,2,3
 1099 1057 1099 1057 956 1040 c 1,4,5
 870 1031 870 1031 754 1012 c 1,6,7
 805 946 805 946 811 854 c 0,8,9
 812 844 812 844 807 825 c 0,10,11
 755 614 755 614 567 616 c 0,12,13
 492 617 492 617 445 675 c 128,-1,14
 398 733 398 733 395 811 c 0,15,16
 395 822 395 822 397 842 c 1,17,18
 401 852 401 852 428 926 c 0,19,20
 433 940 433 940 444 965 c 1,21,22
 350 948 350 948 172 895 c 1,23,24
 145 898 145 898 123 915 c 0,25,26
 110 925 110 925 102 956 c 1,27,28
 106 967 106 967 117 991 c 1,29,30
 129 1012 129 1012 158 1020 c 0,31,32
 396 1086 396 1086 633 1118 c 1,33,34
 693 1124 693 1124 838 1141 c 0,35,36
 922 1151 922 1151 971 1164 c 0,37,38
 1073 1191 1073 1191 1075 1231 c 0,39,40
 1076 1243 1076 1243 1063 1264 c 1,41,42
 1059 1277 1059 1277 1053 1300 c 1,43,44
 1053 1348 1053 1348 1122 1348 c 1,45,46
 1194 1339 1194 1339 1212 1223 c 1,47,48
 1212 1200 1212 1200 1214 1184 c 1,0,1
1270 508 m 0,49,50
 1270 485 1270 485 1264 463 c 1,51,52
 1242 302 1242 302 1151 176 c 0,53,54
 1045 31 1045 31 893 31 c 0,55,56
 778 31 778 31 705 106 c 0,57,58
 669 143 669 143 592 285 c 1,59,60
 548 395 548 395 436 393 c 0,61,62
 218 389 218 389 166 178 c 1,63,64
 166 162 166 162 162 147 c 1,65,66
 162 123 162 123 166 86 c 2,67,-1
 172 31 l 1,68,69
 184 19 184 19 207 0 c 1,70,71
 207 0 207 0 211 -16 c 1,72,73
 199 -33 199 -33 150 -76 c 1,74,75
 108 -105 108 -105 80 -109 c 1,76,77
 6 -94 6 -94 6 72 c 0,78,79
 6 321 6 321 166 444 c 0,80,81
 280 532 280 532 451 532 c 0,82,83
 666 532 666 532 731 315 c 1,84,85
 828 170 828 170 915 170 c 0,86,87
 980 170 980 170 1040 260 c 0,88,89
 1116 373 1116 373 1124 485 c 0,90,91
 1124 492 1124 492 1128 510 c 1,92,93
 1128 628 1128 628 985 795 c 0,94,95
 976 805 976 805 950 834 c 0,96,97
 945 839 945 839 932 850 c 1,98,99
 963 903 963 903 1032 903 c 0,100,101
 1116 903 1116 903 1200 745 c 0,102,103
 1270 614 1270 614 1270 508 c 0,49,50
662 825 m 1,104,105
 663 837 663 837 663 849 c 0,106,107
 663 924 663 924 606 981 c 1,108,109
 572 959 572 959 555 905 c 1,110,111
 552 899 552 899 537 842 c 1,112,113
 537 786 537 786 543 768 c 1,114,115
 549 734 549 734 584 733 c 0,116,117
 636 731 636 731 662 825 c 1,104,105
EndSplineSet
Validated: 33
Substitution2: "Single Substitution lookup 17 subtable" sterling
EndChar

StartChar: W
Encoding: 3257 3257 88
Width: 1567
GlyphClass: 2
Flags: W
LayerCount: 2
Fore
SplineSet
1386 473 m 0,0,1
 1387 449 1387 449 1382 426 c 1,2,3
 1382 398 1382 398 1380 387 c 0,4,5
 1306 6 1306 6 1001 8 c 0,6,7
 795 10 795 10 645 295 c 1,8,9
 409 -8 409 -8 236 -8 c 0,10,11
 6 -8 6 -8 6 258 c 2,12,-1
 6 295 l 2,13,14
 6 319 6 319 10 340 c 0,15,16
 57 577 57 577 297 743 c 1,17,-1
 227 836 l 1,18,19
 204 828 204 828 162 811 c 1,20,21
 158 808 158 808 152 803 c 1,22,23
 150 803 150 803 141 797 c 1,24,25
 101 804 101 804 88 815 c 1,26,27
 72 841 72 841 72 860 c 0,28,29
 72 929 72 929 197 967 c 1,30,31
 530 1123 530 1123 1063 1128 c 0,32,33
 1108 1129 1108 1129 1154.5 1149.5 c 128,-1,34
 1201 1170 1201 1170 1204 1200 c 1,35,36
 1204 1211 1204 1211 1192 1233 c 1,37,38
 1188 1246 1188 1246 1182 1270 c 1,39,40
 1182 1317 1182 1317 1251 1317 c 1,41,42
 1339 1305 1339 1305 1343 1153 c 0,43,44
 1345 1094 1345 1094 1284 1059 c 1,45,46
 1233 1023 1233 1023 1163 1022 c 0,47,48
 873 1019 873 1019 682 983 c 0,49,50
 476 944 476 944 350 883 c 1,51,-1
 420 797 l 1,52,53
 606 922 606 922 715 922 c 0,54,55
 737 922 737 922 752 887 c 1,56,57
 762 853 762 853 762 827 c 1,58,59
 759 825 759 825 748 821 c 1,60,61
 748 821 748 821 731 805 c 1,62,63
 701 800 701 800 625 756 c 0,64,65
 577 729 577 729 522 696 c 1,66,67
 546 690 546 690 569 645 c 1,68,69
 599 597 599 597 653 518 c 1,70,71
 930 782 930 782 1110 782 c 0,72,73
 1381 782 1381 782 1386 473 c 0,0,1
1231 424 m 1,74,-1
 1231 457 l 1,75,76
 1222 667 1222 667 1110 666 c 1,77,78
 1023 664 1023 664 731 410 c 1,79,80
 913 147 913 147 1024 147 c 0,81,82
 1111 147 1111 147 1167 227 c 0,83,84
 1209 286 1209 286 1225 387 c 1,85,86
 1225 403 1225 403 1231 424 c 1,74,-1
559 403 m 1,87,88
 483 580 483 580 381 651 c 1,89,90
 166 525 166 525 166 340 c 1,91,92
 165 338 165 338 160 295 c 1,93,94
 160 248 160 248 186 201 c 0,95,96
 217 146 217 146 258 147 c 0,97,98
 339 149 339 149 559 403 c 1,87,88
EndSplineSet
Validated: 33
Substitution2: "Single Substitution lookup 17 subtable" currency
EndChar

StartChar: X
Encoding: 3262 3262 89
Width: 1278
GlyphClass: 4
Flags: W
LayerCount: 2
Fore
SplineSet
1159 555 m 0,0,1
 1159 477 1159 477 1104 477 c 0,2,3
 1042 477 1042 477 1044 479 c 1,4,5
 1033 484 1033 484 1012 500 c 1,6,7
 1012 305 1012 305 940 168 c 0,8,9
 851 -2 851 -2 672 -2 c 0,10,11
 573 -2 573 -2 506.5 77 c 128,-1,12
 440 156 440 156 438 276 c 1,13,14
 437 439 437 439 573 545 c 0,15,16
 691 636 691 636 864 639 c 1,17,18
 818 840 818 840 500 940 c 0,19,20
 282 1009 282 1009 6 1012 c 1,21,-1
 6 1120 l 1,22,23
 301 1120 301 1120 598 1014 c 0,24,25
 983 876 983 876 989 625 c 1,26,27
 1159 615 1159 615 1159 555 c 0,0,1
872 469 m 2,28,-1
 872 516 l 1,29,30
 748 513 748 513 667 439.5 c 128,-1,31
 586 366 586 366 586 260 c 0,32,33
 586 203 586 203 614.5 162.5 c 128,-1,34
 643 122 643 122 678 121 c 0,35,36
 780 119 780 119 833 251 c 0,37,38
 872 349 872 349 872 469 c 2,28,-1
EndSplineSet
Validated: 33
EndChar

StartChar: Y
Encoding: 3263 3263 90
Width: 16
GlyphClass: 4
Flags: W
LayerCount: 2
Fore
SplineSet
-170 1432 m 1,0,1
 -170 1394 -170 1394 -256 1348 c 1,2,3
 -217 1318 -217 1318 -217 1153 c 0,4,5
 -217 1053 -217 1053 -256 1014 c 1,6,-1
 -403 1014 l 1,7,8
 -381 1042 -381 1042 -377 1073 c 1,9,10
 -376 1097 -376 1097 -371 1153 c 1,11,12
 -371 1232 -371 1232 -403 1262 c 1,13,14
 -474 1200 -474 1200 -573 1200 c 0,15,16
 -827 1200 -827 1200 -827 1401 c 0,17,18
 -827 1496 -827 1496 -754 1554 c 0,19,20
 -684 1610 -684 1610 -565 1610 c 0,21,22
 -415 1610 -415 1610 -326 1487 c 1,23,-1
 -270 1526 l 1,24,-1
 -231 1526 l 1,25,26
 -215 1520 -215 1520 -190 1487 c 1,27,28
 -173 1458 -173 1458 -170 1432 c 1,0,1
-434 1386 m 1,29,30
 -481 1486 -481 1486 -580 1495 c 1,31,32
 -627 1489 -627 1489 -655 1466 c 1,33,34
 -675 1446 -675 1446 -682 1401 c 1,35,36
 -682 1323 -682 1323 -596 1323 c 256,37,38
 -510 1323 -510 1323 -434 1386 c 1,29,30
EndSplineSet
Validated: 1
EndChar

StartChar: Z
Encoding: 3264 3264 91
Width: 776
GlyphClass: 4
Flags: W
LayerCount: 2
Fore
SplineSet
698 797 m 0,0,1
 698 656 698 656 608 569 c 0,2,3
 523 487 523 487 381 487 c 0,4,5
 294 487 294 487 211 557 c 0,6,7
 143 614 143 614 96 705 c 1,8,9
 63 636 63 636 63 573 c 0,10,11
 63 388 63 388 187 269 c 128,-1,12
 311 150 311 150 498 147 c 0,13,14
 553 147 553 147 553 78 c 1,15,16
 545 40 545 40 532 23 c 1,17,18
 507 0 507 0 475 0 c 0,19,20
 235 0 235 0 72.5 167 c 128,-1,21
 -90 334 -90 334 -90 573 c 0,22,23
 -90 678 -90 678 18 883 c 1,24,25
 15 890 15 890 8 912.5 c 128,-1,26
 1 935 1 935 -6 999 c 1,27,28
 -6 1012 -6 1012 27 1034 c 1,29,30
 43 1043 43 1043 96 1075 c 1,31,32
 111 1041 111 1041 111 983 c 1,33,34
 212 1100 212 1100 381 1100 c 0,35,36
 522 1100 522 1100 614 1014 c 0,37,38
 698 936 698 936 698 797 c 0,0,1
-170 1432 m 1,39,40
 -170 1394 -170 1394 -256 1348 c 1,41,42
 -217 1318 -217 1318 -217 1153 c 0,43,44
 -217 1053 -217 1053 -256 1014 c 1,45,-1
 -403 1014 l 1,46,47
 -381 1042 -381 1042 -377 1073 c 1,48,49
 -376 1097 -376 1097 -371 1153 c 1,50,51
 -371 1232 -371 1232 -403 1262 c 1,52,53
 -474 1200 -474 1200 -573 1200 c 0,54,55
 -827 1200 -827 1200 -827 1401 c 0,56,57
 -827 1496 -827 1496 -754 1554 c 0,58,59
 -684 1610 -684 1610 -565 1610 c 0,60,61
 -415 1610 -415 1610 -326 1487 c 1,62,-1
 -270 1526 l 1,63,-1
 -231 1526 l 1,64,65
 -215 1520 -215 1520 -190 1487 c 1,66,67
 -173 1458 -173 1458 -170 1432 c 1,39,40
553 797 m 0,68,69
 553 866 553 866 500 920 c 1,70,71
 454 965 454 965 381 967 c 0,72,73
 266 969 266 969 180 852 c 1,74,75
 241 625 241 625 389 627 c 0,76,77
 460 628 460 628 506.5 679 c 128,-1,78
 553 730 553 730 553 797 c 0,68,69
-434 1386 m 1,79,80
 -481 1486 -481 1486 -580 1495 c 1,81,82
 -627 1489 -627 1489 -655 1466 c 1,83,84
 -675 1446 -675 1446 -682 1401 c 1,85,86
 -682 1323 -682 1323 -596 1323 c 256,87,88
 -510 1323 -510 1323 -434 1386 c 1,79,80
EndSplineSet
Validated: 33
EndChar

StartChar: bracketleft
Encoding: 65546 -1 92
Width: 627
GlyphClass: 4
Flags: W
LayerCount: 2
Fore
SplineSet
446 516 m 0,0,1
 446 305 446 305 350 162 c 0,2,3
 242 0 242 0 37 0 c 0,4,5
 -91 0 -91 0 -193 51 c 1,6,7
 -306 109 -306 109 -344 225 c 1,8,9
 -344 291 -344 291 -281 371 c 1,10,11
 -219 362 -219 362 -188 287 c 0,12,13
 -131 147 -131 147 43 145 c 0,14,15
 167 144 167 144 229 276 c 0,16,17
 276 376 276 376 276 516 c 0,18,19
 276 784 276 784 88 942 c 1,20,21
 28 903 28 903 -33 903 c 0,22,23
 -87 903 -87 903 -100 991 c 0,24,25
 -103 1010 -103 1010 -63 1044 c 1,26,27
 -48 1063 -48 1063 -10 1081 c 1,28,29
 19 1093 19 1093 70 1100 c 1,30,31
 174 1100 174 1100 281 975 c 0,32,33
 355 888 355 888 393 795 c 0,34,35
 446 666 446 666 446 516 c 0,0,1
EndSplineSet
Validated: 33
EndChar

StartChar: backslash
Encoding: 3266 3266 93
Width: 1571
GlyphClass: 4
Flags: W
LayerCount: 2
Fore
SplineSet
1442 485 m 0,0,1
 1444 416 1444 416 1411 399 c 1,2,3
 1375 414 1375 414 1358 424 c 0,4,5
 1323 444 1323 444 1313 446 c 1,6,7
 1296 455 1296 455 1272 455 c 1,8,9
 1272 280 1272 280 1198 152 c 0,10,11
 1110 -2 1110 -2 946 -2 c 0,12,13
 850 -2 850 -2 793 72 c 1,14,15
 737 143 737 143 737 246 c 0,16,17
 737 394 737 394 860 498 c 0,18,19
 971 591 971 591 1124 594 c 1,20,21
 1124 723 1124 723 1061 834 c 1,22,23
 985 965 985 965 862 965 c 0,24,25
 683 965 683 965 567 780 c 0,26,27
 485 649 485 649 451 430 c 0,28,29
 422 249 422 249 322 119 c 0,30,31
 228 -2 228 -2 119 -2 c 0,32,33
 -6 -2 -6 -2 -107 80.5 c 128,-1,34
 -208 163 -208 163 -252 285 c 1,35,-1
 -229 416 l 1,36,37
 -140 406 -140 406 -106 291 c 1,38,39
 -11 137 -11 137 119 137 c 0,40,41
 200 137 200 137 262 288 c 0,42,43
 306 396 306 396 319 508 c 0,44,45
 351 768 351 768 504 926 c 0,46,47
 669 1096 669 1096 877 1096 c 0,48,49
 1061 1096 1061 1096 1174 932 c 0,50,51
 1269 793 1269 793 1272 594 c 1,52,53
 1341 591 1341 591 1393 557 c 0,54,55
 1441 526 1441 526 1442 485 c 0,0,1
1124 469 m 1,56,57
 1032 448 1032 448 965 395 c 1,58,59
 886 335 886 335 885 246 c 0,60,61
 883 137 883 137 963 137 c 0,62,63
 1051 137 1051 137 1097 288 c 0,64,65
 1121 366 1121 366 1124 469 c 1,56,57
EndSplineSet
Validated: 33
Substitution2: "Single Substitution lookup 19 subtable" y
EndChar

StartChar: bracketright
Encoding: 3267 3267 94
Width: 721
GlyphClass: 4
Flags: W
LayerCount: 2
Fore
SplineSet
643 -465 m 0,0,1
 643 -656 643 -656 549 -795 c 0,2,3
 448 -944 448 -944 256 -944 c 0,4,5
 142 -944 142 -944 47.5 -854 c 128,-1,6
 -47 -764 -47 -764 -47 -651 c 0,7,8
 -47 -403 -47 -403 162 -403 c 1,9,10
 214 -409 214 -409 252 -449 c 0,11,12
 287 -485 287 -485 287 -543 c 0,13,14
 287 -593 287 -593 250 -627 c 1,15,16
 220 -666 220 -666 170 -666 c 0,17,18
 92 -666 92 -666 86 -612 c 1,19,20
 92 -836 92 -836 264 -836 c 0,21,22
 376 -836 376 -836 446 -727 c 0,23,24
 510 -629 510 -629 510 -457 c 0,25,26
 510 -195 510 -195 317 -47 c 0,27,28
 302 -35 302 -35 270 0 c 0,29,30
 265 6 265 6 256 23 c 1,31,32
 271 109 271 109 317 109 c 1,33,34
 451 54 451 54 553 -135 c 0,35,36
 643 -303 643 -303 643 -465 c 0,0,1
EndSplineSet
Validated: 1
EndChar

StartChar: asciicircum
Encoding: 3268 3268 95
Width: 645
GlyphClass: 4
Flags: W
LayerCount: 2
Fore
SplineSet
1169 -465 m 0,0,1
 1169 -540 1169 -540 1115 -585 c 128,-1,2
 1061 -630 1061 -630 983 -633 c 0,3,4
 914 -636 914 -636 854 -586 c 1,5,6
 809 -541 809 -541 803 -463 c 1,7,-1
 805 -420 l 1,8,-1
 657 -428 l 1,9,10
 660 -441 660 -441 672 -477 c 1,11,12
 672 -504 672 -504 676 -545 c 1,13,-1
 676 -573 l 2,14,15
 676 -592 676 -592 672 -608 c 1,16,17
 656 -768 656 -768 553.5 -855.5 c 128,-1,18
 451 -943 451 -943 289 -946 c 0,19,20
 148 -949 148 -949 57 -870 c 0,21,22
 -30 -795 -30 -795 -33 -651 c 0,23,24
 -33 -623 -33 -623 -31 -598 c 0,25,26
 -3 -330 -3 -330 209 -317 c 1,27,28
 319 -339 319 -339 319 -423 c 0,29,30
 319 -433 319 -433 317 -444 c 1,31,32
 317 -553 317 -553 178 -565 c 1,33,-1
 135 -553 l 1,34,-1
 121 -598 l 1,35,36
 121 -625 121 -625 119 -629 c 1,37,38
 119 -793 119 -793 295 -797 c 0,39,40
 383 -799 383 -799 450 -744.5 c 128,-1,41
 517 -690 517 -690 518 -608 c 0,42,43
 519 -542 519 -542 508 -473 c 0,44,45
 501 -429 501 -429 459 -426 c 1,46,-1
 455 -311 l 1,47,-1
 1053 -311 l 2,48,49
 1063 -311 1063 -311 1069 -309 c 1,50,51
 1169 -341 1169 -341 1169 -465 c 0,0,1
1022 -465 m 1,52,53
 1022 -436 1022 -436 936 -430 c 1,54,55
 950 -442 950 -442 956 -463 c 1,56,57
 956 -484 956 -484 985 -496 c 1,58,59
 1001 -496 1001 -496 1010 -487 c 0,60,61
 1011 -487 1011 -487 1022 -465 c 1,52,53
EndSplineSet
Validated: 33
EndChar

StartChar: underscore
Encoding: 3270 3270 96
Width: 444
GlyphClass: 4
Flags: W
LayerCount: 2
Fore
SplineSet
365 1219 m 1,0,1
 355 1131 355 1131 231 1071 c 1,2,3
 248 1055 248 1055 279 1055 c 0,4,5
 334 1055 334 1055 334 1010 c 0,6,7
 334 982 334 982 309 961 c 1,8,9
 295 944 295 944 256 940 c 1,10,11
 183 940 183 940 117 1010 c 1,12,13
 96 989 96 989 -8 985 c 2,14,-1
 -180 979 l 1,15,-1
 -172 1053 l 1,16,-1
 0 1094 l 1,17,18
 -78 1150 -78 1150 -78 1219 c 0,19,20
 -78 1301 -78 1301 6 1362 c 0,21,22
 74 1411 74 1411 170 1411 c 0,23,24
 252 1411 252 1411 305 1356 c 128,-1,25
 358 1301 358 1301 365 1219 c 1,0,1
225 1219 m 0,26,27
 225 1296 225 1296 162 1296 c 0,28,29
 86 1296 86 1296 86 1219 c 0,30,31
 86 1164 86 1164 123 1124 c 1,32,33
 225 1155 225 1155 225 1219 c 0,26,27
EndSplineSet
Validated: 1
EndChar

StartChar: grave
Encoding: 3271 3271 97
Width: 1343
GlyphClass: 4
Flags: W
LayerCount: 2
Fore
SplineSet
1190 797 m 0,0,1
 1190 656 1190 656 1100 569 c 0,2,3
 1015 487 1015 487 872 487 c 0,4,5
 785 487 785 487 702 557 c 0,6,7
 631 616 631 616 586 705 c 1,8,9
 555 640 555 640 555 573 c 0,10,11
 555 388 555 388 677 269 c 128,-1,12
 799 150 799 150 989 147 c 0,13,14
 1042 147 1042 147 1042 78 c 1,15,16
 1039 46 1039 46 1022 23 c 1,17,18
 996 0 996 0 965 0 c 0,19,20
 727 0 727 0 563 168 c 128,-1,21
 399 336 399 336 399 573 c 0,22,23
 399 678 399 678 508 883 c 1,24,25
 489 921 489 921 485 999 c 0,26,27
 485 1013 485 1013 516 1034 c 1,28,29
 532 1043 532 1043 586 1075 c 1,30,31
 602 1036 602 1036 602 983 c 1,32,33
 700 1100 700 1100 872 1100 c 0,34,35
 1011 1100 1011 1100 1104 1014 c 0,36,37
 1190 934 1190 934 1190 797 c 0,0,1
365 1219 m 1,38,39
 355 1131 355 1131 231 1071 c 1,40,41
 248 1055 248 1055 279 1055 c 0,42,43
 334 1055 334 1055 334 1010 c 0,44,45
 334 982 334 982 309 961 c 1,46,47
 295 944 295 944 256 940 c 1,48,49
 183 940 183 940 117 1010 c 1,50,51
 96 989 96 989 -8 985 c 2,52,-1
 -180 979 l 1,53,-1
 -172 1053 l 1,54,-1
 0 1094 l 1,55,56
 -78 1150 -78 1150 -78 1219 c 0,57,58
 -78 1301 -78 1301 6 1362 c 0,59,60
 74 1411 74 1411 170 1411 c 0,61,62
 252 1411 252 1411 305 1356 c 128,-1,63
 358 1301 358 1301 365 1219 c 1,38,39
1042 797 m 0,64,65
 1042 867 1042 867 991 920 c 0,66,67
 947 965 947 965 872 967 c 0,68,69
 755 969 755 969 672 852 c 1,70,71
 732 625 732 625 881 627 c 0,72,73
 950 628 950 628 996 679 c 128,-1,74
 1042 730 1042 730 1042 797 c 0,64,65
225 1219 m 0,75,76
 225 1296 225 1296 162 1296 c 0,77,78
 86 1296 86 1296 86 1219 c 0,79,80
 86 1164 86 1164 123 1124 c 1,81,82
 225 1155 225 1155 225 1219 c 0,75,76
EndSplineSet
Validated: 33
EndChar

StartChar: a
Encoding: 3272 3272 98
Width: 762
GlyphClass: 4
Flags: W
LayerCount: 2
Fore
SplineSet
365 1219 m 1,0,1
 355 1131 355 1131 231 1071 c 1,2,3
 248 1055 248 1055 279 1055 c 0,4,5
 334 1055 334 1055 334 1010 c 0,6,7
 334 982 334 982 309 961 c 1,8,9
 295 944 295 944 256 940 c 1,10,11
 183 940 183 940 117 1010 c 1,12,13
 96 989 96 989 -8 985 c 2,14,-1
 -180 979 l 1,15,-1
 -172 1053 l 1,16,-1
 0 1094 l 1,17,18
 -78 1150 -78 1150 -78 1219 c 0,19,20
 -78 1301 -78 1301 6 1362 c 0,21,22
 74 1411 74 1411 170 1411 c 0,23,24
 252 1411 252 1411 305 1356 c 128,-1,25
 358 1301 358 1301 365 1219 c 1,0,1
684 -672 m 0,26,27
 684 -826 684 -826 586 -932 c 0,28,29
 492 -1033 492 -1033 336 -1034 c 1,30,31
 192 -1036 192 -1036 101 -952 c 128,-1,32
 10 -868 10 -868 10 -725 c 0,33,34
 10 -645 10 -645 57 -578 c 0,35,36
 100 -516 100 -516 180 -516 c 0,37,38
 246 -516 246 -516 281 -549 c 0,39,40
 319 -586 319 -586 319 -633 c 0,41,42
 319 -756 319 -756 219 -756 c 0,43,44
 150 -756 150 -756 135 -741 c 1,45,46
 138 -820 138 -820 199 -874 c 1,47,48
 256 -926 256 -926 344 -926 c 0,49,50
 436 -926 436 -926 504 -850 c 0,51,52
 567 -779 567 -779 567 -672 c 0,53,54
 567 -587 567 -587 508 -510 c 0,55,56
 456 -442 456 -442 367 -430 c 1,57,-1
 305 -430 l 2,58,59
 258 -430 258 -430 258 -377 c 1,60,61
 273 -322 273 -322 305 -322 c 2,62,-1
 375 -322 l 2,63,64
 421 -322 421 -322 455 -270 c 0,65,66
 476 -238 476 -238 483 -176 c 1,67,68
 483 -59 483 -59 375 -37 c 1,69,70
 359 -24 359 -24 336 -2 c 1,71,72
 329 3 329 3 319 18 c 1,73,74
 329 80 329 80 397 80 c 0,75,76
 480 80 480 80 549 0 c 0,77,78
 614 -76 614 -76 614 -176 c 0,79,80
 614 -330 614 -330 528 -385 c 1,81,82
 684 -461 684 -461 684 -672 c 0,26,27
225 1219 m 0,83,84
 225 1296 225 1296 162 1296 c 0,85,86
 86 1296 86 1296 86 1219 c 0,87,88
 86 1164 86 1164 123 1124 c 1,89,90
 225 1155 225 1155 225 1219 c 0,83,84
EndSplineSet
Validated: 33
EndChar

StartChar: b
Encoding: 3274 3274 99
Width: 1858
GlyphClass: 4
Flags: W
LayerCount: 2
Fore
SplineSet
1726 508 m 1,0,1
 1726 424 1726 424 1696 399 c 1,2,3
 1676 407 1676 407 1640 424 c 1,4,5
 1624 434 1624 434 1597 446 c 0,6,7
 1577 455 1577 455 1556 455 c 1,8,9
 1556 286 1556 286 1481 152 c 0,10,11
 1394 -2 1394 -2 1231 -2 c 0,12,13
 1132 -2 1132 -2 1075 72 c 0,14,15
 1022 140 1022 140 1022 246 c 0,16,17
 1022 395 1022 395 1143 498 c 0,18,19
 1252 591 1252 591 1409 594 c 1,20,21
 1409 720 1409 720 1343 834 c 0,22,23
 1268 965 1268 965 1145 965 c 0,24,25
 968 965 968 965 852 780 c 0,26,27
 772 652 772 652 735 430 c 0,28,29
 706 250 706 250 606 119 c 0,30,31
 514 -2 514 -2 403 -2 c 0,32,33
 278 -2 278 -2 176 80 c 0,34,35
 79 158 79 158 31 285 c 1,36,-1
 53 416 l 1,37,38
 145 406 145 406 178 291 c 1,39,40
 270 137 270 137 403 137 c 0,41,42
 485 137 485 137 547 288 c 0,43,44
 591 396 591 396 604 508 c 0,45,46
 633 748 633 748 774 913 c 0,47,48
 931 1096 931 1096 1161 1096 c 0,49,50
 1347 1096 1347 1096 1458 932 c 0,51,52
 1553 791 1553 791 1556 594 c 1,53,54
 1627 591 1627 591 1677 557 c 0,55,56
 1724 525 1724 525 1726 508 c 1,0,1
365 1219 m 1,57,58
 355 1131 355 1131 231 1071 c 1,59,60
 248 1055 248 1055 279 1055 c 0,61,62
 334 1055 334 1055 334 1010 c 0,63,64
 334 982 334 982 309 961 c 1,65,66
 295 944 295 944 256 940 c 1,67,68
 183 940 183 940 117 1010 c 1,69,70
 96 989 96 989 -8 985 c 2,71,-1
 -180 979 l 1,72,-1
 -172 1053 l 1,73,-1
 0 1094 l 1,74,75
 -78 1150 -78 1150 -78 1219 c 0,76,77
 -78 1301 -78 1301 6 1362 c 0,78,79
 74 1411 74 1411 170 1411 c 0,80,81
 252 1411 252 1411 305 1356 c 128,-1,82
 358 1301 358 1301 365 1219 c 1,57,58
1409 469 m 1,83,84
 1317 448 1317 448 1249 395 c 0,85,86
 1171 335 1171 335 1169 246 c 1,87,88
 1168 137 1168 137 1247 137 c 0,89,90
 1328 137 1328 137 1376 270 c 0,91,92
 1406 352 1406 352 1409 469 c 1,83,84
225 1219 m 0,93,94
 225 1296 225 1296 162 1296 c 0,95,96
 86 1296 86 1296 86 1219 c 0,97,98
 86 1164 86 1164 123 1124 c 1,99,100
 225 1155 225 1155 225 1219 c 0,93,94
EndSplineSet
Validated: 33
EndChar

StartChar: c
Encoding: 3275 3275 100
Width: 2816
GlyphClass: 4
Flags: W
LayerCount: 2
Fore
SplineSet
2687 797 m 0,0,1
 2687 656 2687 656 2597 569 c 0,2,3
 2512 487 2512 487 2370 487 c 0,4,5
 2282 487 2282 487 2199 557 c 0,6,7
 2128 616 2128 616 2083 705 c 1,8,9
 2052 640 2052 640 2052 573 c 0,10,11
 2052 390 2052 390 2175 268 c 0,12,13
 2295 150 2295 150 2484 147 c 0,14,15
 2540 147 2540 147 2540 78 c 1,16,17
 2536 46 2536 46 2519 23 c 1,18,19
 2493 0 2493 0 2462 0 c 0,20,21
 2220 0 2220 0 2058 168 c 128,-1,22
 1896 336 1896 336 1896 573 c 0,23,24
 1896 678 1896 678 2005 883 c 1,25,26
 2000 893 2000 893 1995 913 c 1,27,28
 1985 937 1985 937 1982 999 c 0,29,30
 1982 1013 1982 1013 2013 1034 c 1,31,32
 2030 1043 2030 1043 2083 1075 c 1,33,34
 2097 1041 2097 1041 2097 983 c 1,35,36
 2199 1100 2199 1100 2370 1100 c 0,37,38
 2508 1100 2508 1100 2601 1014 c 0,39,40
 2687 934 2687 934 2687 797 c 0,0,1
1726 508 m 1,41,42
 1726 424 1726 424 1696 399 c 1,43,44
 1676 407 1676 407 1640 424 c 1,45,46
 1624 434 1624 434 1597 446 c 0,47,48
 1577 455 1577 455 1556 455 c 1,49,50
 1556 286 1556 286 1481 152 c 0,51,52
 1394 -2 1394 -2 1231 -2 c 0,53,54
 1132 -2 1132 -2 1075 72 c 0,55,56
 1022 140 1022 140 1022 246 c 0,57,58
 1022 395 1022 395 1143 498 c 0,59,60
 1252 591 1252 591 1409 594 c 1,61,62
 1409 720 1409 720 1343 834 c 0,63,64
 1268 965 1268 965 1145 965 c 0,65,66
 968 965 968 965 852 780 c 0,67,68
 772 652 772 652 735 430 c 0,69,70
 706 250 706 250 606 119 c 0,71,72
 514 -2 514 -2 403 -2 c 0,73,74
 278 -2 278 -2 176 80 c 0,75,76
 79 158 79 158 31 285 c 1,77,-1
 53 416 l 1,78,79
 145 406 145 406 178 291 c 1,80,81
 270 137 270 137 403 137 c 0,82,83
 485 137 485 137 547 288 c 0,84,85
 591 396 591 396 604 508 c 0,86,87
 633 748 633 748 774 913 c 0,88,89
 931 1096 931 1096 1161 1096 c 0,90,91
 1347 1096 1347 1096 1458 932 c 0,92,93
 1553 791 1553 791 1556 594 c 1,94,95
 1627 591 1627 591 1677 557 c 0,96,97
 1724 525 1724 525 1726 508 c 1,41,42
365 1219 m 1,98,99
 355 1131 355 1131 231 1071 c 1,100,101
 248 1055 248 1055 279 1055 c 0,102,103
 334 1055 334 1055 334 1010 c 0,104,105
 334 982 334 982 309 961 c 1,106,107
 295 944 295 944 256 940 c 1,108,109
 183 940 183 940 117 1010 c 1,110,111
 96 989 96 989 -8 985 c 2,112,-1
 -180 979 l 1,113,-1
 -172 1053 l 1,114,-1
 0 1094 l 1,115,116
 -78 1150 -78 1150 -78 1219 c 0,117,118
 -78 1301 -78 1301 6 1362 c 0,119,120
 74 1411 74 1411 170 1411 c 0,121,122
 252 1411 252 1411 305 1356 c 128,-1,123
 358 1301 358 1301 365 1219 c 1,98,99
2540 797 m 0,124,125
 2540 867 2540 867 2488 920 c 0,126,127
 2444 965 2444 965 2370 967 c 0,128,129
 2253 969 2253 969 2167 852 c 1,130,131
 2230 625 2230 625 2376 627 c 0,132,133
 2447 628 2447 628 2493.5 679 c 128,-1,134
 2540 730 2540 730 2540 797 c 0,124,125
1409 469 m 1,135,136
 1317 448 1317 448 1249 395 c 0,137,138
 1171 335 1171 335 1169 246 c 1,139,140
 1168 137 1168 137 1247 137 c 0,141,142
 1328 137 1328 137 1376 270 c 0,143,144
 1406 352 1406 352 1409 469 c 1,135,136
225 1219 m 0,145,146
 225 1296 225 1296 162 1296 c 0,147,148
 86 1296 86 1296 86 1219 c 0,149,150
 86 1164 86 1164 123 1124 c 1,151,152
 225 1155 225 1155 225 1219 c 0,145,146
EndSplineSet
Validated: 33
EndChar

StartChar: d
Encoding: 3276 3276 101
Width: 1038
GlyphClass: 4
Flags: W
LayerCount: 2
Fore
SplineSet
895 1149 m 1,0,1
 895 1087 895 1087 856 1063 c 1,2,-1
 756 1049 l 1,3,4
 756 924 756 924 707 813 c 0,5,6
 645 675 645 675 539 672 c 1,7,8
 440 688 440 688 395 727 c 0,9,10
 347 769 347 769 346 850 c 0,11,12
 344 951 344 951 424 1038 c 0,13,14
 500 1122 500 1122 608 1141 c 1,15,16
 556 1288 556 1288 322 1288 c 1,17,18
 369 1265 369 1265 369 1188 c 0,19,20
 369 1071 369 1071 295 1038 c 0,21,22
 199 996 199 996 -168 993 c 1,23,-1
 -152 1102 l 1,24,25
 124 1105 124 1105 176 1114 c 1,26,27
 246 1136 246 1136 246 1194 c 1,28,29
 239 1238 239 1238 219 1257 c 1,30,31
 187 1280 187 1280 152 1280 c 0,32,33
 52 1280 52 1280 12 1249 c 1,34,35
 -2 1249 -2 1249 -18 1243 c 1,36,37
 -47 1243 -47 1243 -63 1241 c 1,38,39
 -86 1251 -86 1251 -93 1261 c 128,-1,40
 -100 1271 -100 1271 -102 1280 c 1,41,42
 -99 1372 -99 1372 100 1389 c 0,43,44
 197 1397 197 1397 315 1397 c 0,45,46
 452 1397 452 1397 575 1350 c 0,47,48
 729 1291 729 1291 748 1171 c 1,49,50
 774 1185 774 1185 803 1192 c 1,51,52
 834 1192 834 1192 856 1194 c 1,53,54
 870 1194 870 1194 885 1180 c 1,55,56
 891 1171 891 1171 895 1149 c 1,0,1
633 1032 m 1,57,58
 463 968 463 968 463 850 c 1,59,60
 470 809 470 809 524 803 c 1,61,62
 577 806 577 806 608 897 c 0,63,64
 633 968 633 968 633 1032 c 1,57,58
EndSplineSet
Validated: 33
EndChar

StartChar: e
Encoding: 3277 3277 102
Width: 1124
GlyphClass: 4
Flags: W
LayerCount: 2
Fore
SplineSet
518 883 m 0,0,1
 512 1022 512 1022 557 1022 c 0,2,3
 653 1022 653 1022 728 978 c 128,-1,4
 803 934 803 934 805 874 c 0,5,6
 806 815 806 815 759 775 c 128,-1,7
 712 735 712 735 651 735 c 0,8,9
 524 735 524 735 518 883 c 0,0,1
651 618 m 1,10,11
 761 616 761 616 854 688 c 0,12,13
 943 757 943 757 944 874 c 0,14,15
 946 992 946 992 846 1069 c 0,16,17
 756 1139 756 1139 635 1139 c 1,18,19
 695 1221 695 1221 844 1270 c 1,20,21
 913 1282 913 1282 913 1300 c 0,22,23
 913 1327 913 1327 862 1348 c 0,24,25
 826 1362 826 1362 791 1362 c 0,26,27
 712 1362 712 1362 623.5 1309.5 c 128,-1,28
 535 1257 535 1257 465 1161 c 1,29,-1
 -61 1139 l 1,30,-1
 -68 1012 l 1,31,-1
 387 1044 l 1,32,33
 365 974 365 974 365 883 c 0,34,35
 365 771 365 771 449 694 c 0,36,37
 528 622 528 622 651 618 c 1,10,11
EndSplineSet
Validated: 41
EndChar

StartChar: f
Encoding: 3285 3285 103
Width: 1038
GlyphClass: 4
Flags: W
LayerCount: 2
Fore
SplineSet
854 797 m 0,0,1
 854 655 854 655 766.5 571 c 128,-1,2
 679 487 679 487 537 487 c 0,3,4
 451 487 451 487 367 557 c 0,5,6
 296 615 296 615 250 705 c 1,7,8
 219 640 219 640 219 573 c 0,9,10
 219 387 219 387 344 267 c 0,11,12
 466 150 466 150 653 147 c 0,13,14
 707 147 707 147 707 78 c 1,15,16
 703 46 703 46 686 23 c 1,17,18
 664 0 664 0 629 0 c 0,19,20
 391 0 391 0 227 168 c 128,-1,21
 63 336 63 336 63 573 c 0,22,23
 63 678 63 678 172 883 c 1,24,25
 153 921 153 921 150 999 c 0,26,27
 149 1013 149 1013 180 1034 c 1,28,29
 198 1043 198 1043 250 1075 c 1,30,31
 266 1036 266 1036 266 983 c 1,32,33
 368 1100 368 1100 537 1100 c 0,34,35
 675 1100 675 1100 768 1014 c 0,36,37
 854 934 854 934 854 797 c 0,0,1
707 797 m 256,38,39
 707 868 707 868 655 920 c 0,40,41
 609 965 609 965 537 967 c 0,42,43
 422 969 422 969 336 852 c 1,44,45
 397 625 397 625 545 627 c 0,46,47
 614 628 614 628 662 678 c 0,48,49
 707 726 707 726 707 797 c 256,38,39
EndSplineSet
Validated: 33
EndChar

StartChar: g
Encoding: 3286 3286 104
Width: 555
GlyphClass: 4
Flags: W
LayerCount: 2
Fore
SplineSet
477 -618 m 0,0,1
 477 -775 477 -775 379 -881 c 0,2,3
 286 -981 286 -981 129 -983 c 0,4,5
 -13 -984 -13 -984 -105 -899 c 128,-1,6
 -197 -814 -197 -814 -197 -674 c 0,7,8
 -197 -597 -197 -597 -147 -526 c 0,9,10
 -105 -465 -105 -465 -27 -465 c 0,11,12
 37 -465 37 -465 76 -498 c 1,13,14
 113 -538 113 -538 113 -580 c 0,15,16
 113 -705 113 -705 12 -705 c 0,17,18
 -55 -705 -55 -705 -72 -688 c 1,19,20
 -69 -767 -69 -767 -6 -823 c 0,21,22
 51 -874 51 -874 137 -874 c 0,23,24
 228 -874 228 -874 297 -797 c 1,25,26
 360 -725 360 -725 360 -618 c 0,27,28
 360 -532 360 -532 301 -459 c 0,29,30
 246 -391 246 -391 160 -379 c 1,31,-1
 98 -379 l 2,32,33
 51 -379 51 -379 51 -326 c 1,34,35
 67 -270 67 -270 98 -270 c 2,36,-1
 168 -270 l 2,37,38
 216 -270 216 -270 248 -219 c 0,39,40
 276 -175 276 -175 276 -123 c 1,41,42
 279 -9 279 -9 168 16 c 1,43,44
 140 38 140 38 129 49 c 1,45,46
 122 54 122 54 113 70 c 1,47,48
 122 131 122 131 190 131 c 0,49,50
 276 131 276 131 344 51 c 0,51,52
 408 -24 408 -24 408 -123 c 0,53,54
 408 -279 408 -279 322 -334 c 1,55,56
 477 -410 477 -410 477 -618 c 0,0,1
EndSplineSet
Validated: 33
EndChar

StartChar: h
Encoding: 3294 3294 105
Width: 1585
GlyphClass: 2
Flags: W
LayerCount: 2
Fore
SplineSet
1409 629 m 0,0,1
 1410 565 1410 565 1399 508 c 1,2,-1
 1399 477 l 1,3,4
 1358 265 1358 265 1219 131.5 c 128,-1,5
 1080 -2 1080 -2 856 -2 c 0,6,7
 720 -2 720 -2 639 106 c 1,8,9
 527 -2 527 -2 393 -2 c 0,10,11
 211 -2 211 -2 102 100 c 1,12,13
 0 197 0 197 -2 381 c 0,14,15
 -3 430 -3 430 6 477 c 1,16,-1
 6 508 l 1,17,18
 37 700 37 700 139 825 c 0,19,20
 260 973 260 973 438 973 c 0,21,22
 528 973 528 973 586 920 c 0,23,24
 638 872 638 872 643 776 c 0,25,26
 644 763 644 763 639 741 c 0,27,28
 615 637 615 637 535 567 c 1,29,30
 450 495 450 495 346 494 c 0,31,32
 237 492 237 492 176 602 c 1,33,34
 176 598 176 598 168 553 c 1,35,36
 160 526 160 526 160 508 c 2,37,-1
 160 477 l 2,38,39
 160 463 160 463 156 446 c 1,40,-1
 156 418 l 2,41,42
 156 295 156 295 229 229 c 1,43,44
 298 168 298 168 424 168 c 0,45,46
 486 168 486 168 535 215 c 0,47,48
 581 259 581 259 594 322 c 1,49,-1
 608 354 l 1,50,-1
 764 354 l 1,51,-1
 748 322 l 1,52,53
 748 309 748 309 745 295 c 1,54,55
 745 169 745 169 887 168 c 1,56,57
 1021 166 1021 166 1122 252 c 1,58,59
 1214 329 1214 329 1243 477 c 1,60,-1
 1243 508 l 2,61,62
 1243 514 1243 514 1251 555 c 1,63,64
 1260 582 1260 582 1260 602 c 1,65,66
 1190 508 1190 508 1042 508 c 0,67,68
 850 508 850 508 850 682 c 0,69,70
 850 701 850 701 856 741 c 0,71,72
 872 845 872 845 941 908 c 128,-1,73
 1010 971 1010 971 1120 973 c 0,74,75
 1265 975 1265 975 1341 870 c 1,76,77
 1406 783 1406 783 1409 629 c 0,0,1
1151 743 m 0,78,79
 1151 768 1151 768 1149 782 c 1,80,81
 1133 821 1133 821 1090 821 c 0,82,83
 1058 821 1058 821 1032 793 c 1,84,85
 1012 766 1012 766 1011 744.5 c 128,-1,86
 1010 723 1010 723 1006 713 c 1,87,88
 1006 666 1006 666 1073 666 c 0,89,90
 1151 666 1151 666 1151 743 c 0,78,79
485 743 m 1,91,92
 482 780 482 780 463 801 c 0,93,94
 451 813 451 813 424 821 c 1,95,96
 330 821 330 821 330 743 c 1,97,98
 329 738 329 738 328 729 c 128,-1,99
 327 720 327 720 326 715 c 1,100,101
 326 667 326 667 393 666 c 0,102,103
 469 664 469 664 485 743 c 1,91,92
EndSplineSet
Validated: 33
EndChar

StartChar: i
Encoding: 3296 3296 106
Width: 3095
GlyphClass: 2
Flags: W
LayerCount: 2
Fore
SplineSet
2966 485 m 1,0,1
 2966 415 2966 415 2935 399 c 1,2,3
 2915 407 2915 407 2879 424 c 1,4,5
 2863 434 2863 434 2836 446 c 0,6,7
 2816 455 2816 455 2796 455 c 1,8,9
 2796 283 2796 283 2720 152 c 0,10,11
 2631 -2 2631 -2 2470 -2 c 0,12,13
 2370 -2 2370 -2 2314 72 c 0,14,15
 2261 142 2261 142 2261 246 c 0,16,17
 2261 395 2261 395 2382 498 c 0,18,19
 2491 591 2491 591 2648 594 c 1,20,21
 2648 722 2648 722 2583 834 c 1,22,23
 2505 965 2505 965 2384 965 c 0,24,25
 2208 965 2208 965 2091 780 c 0,26,27
 1996 631 1996 631 1974 430 c 1,28,29
 1941 270 1941 270 1870 154 c 0,30,31
 1774 -2 1774 -2 1640 -2 c 0,32,33
 1528 -2 1528 -2 1431 68 c 0,34,35
 1340 133 1340 133 1288 240 c 1,36,37
 1273 204 1273 204 1241 162 c 0,38,39
 1113 -6 1113 -6 934 -6 c 0,40,41
 780 -6 780 -6 602 172 c 1,42,43
 551 92 551 92 464.5 44 c 128,-1,44
 378 -4 378 -4 276 -6 c 0,45,46
 10 -11 10 -11 8 250 c 0,47,48
 7 360 7 360 86 434 c 0,49,50
 160 504 160 504 276 506 c 0,51,52
 367 507 367 507 440 438.5 c 128,-1,53
 513 370 513 370 516 281 c 1,54,55
 647 412 647 412 647 614 c 0,56,57
 647 725 647 725 532 870 c 1,58,59
 532 779 532 779 455 725 c 0,60,61
 387 677 387 677 291 676 c 0,62,63
 191 674 191 674 123 727 c 0,64,65
 59 776 59 776 59 877 c 0,66,67
 59 988 59 988 160 1049 c 0,68,69
 235 1094 235 1094 360 1094 c 0,70,71
 532 1094 532 1094 666 946 c 0,72,73
 793 805 793 805 795 623 c 1,74,75
 796 431 796 431 686 258 c 1,76,77
 803 135 803 135 934 135 c 0,78,79
 1084 135 1084 135 1167 285 c 0,80,81
 1237 410 1237 410 1237 567 c 0,82,83
 1237 722 1237 722 1145 862 c 0,84,85
 1055 999 1055 999 911 1049 c 1,86,87
 851 1010 851 1010 825 1010 c 0,88,89
 802 1010 802 1010 779 1033 c 128,-1,90
 756 1056 756 1056 756 1079 c 0,91,92
 756 1117 756 1117 803 1149 c 0,93,94
 915 1225 915 1225 1067 1287 c 0,95,96
 1244 1360 1244 1360 1352 1358 c 0,97,98
 1566 1354 1566 1354 1561 1155 c 0,99,100
 1560 1118 1560 1118 1546 1085 c 1,101,102
 1529 1040 1529 1040 1499 1040 c 1,103,104
 1471 1043 1471 1043 1440 1059 c 1,105,106
 1410 1080 1410 1080 1407 1094 c 1,107,108
 1398 1102 1398 1102 1407 1124 c 0,109,110
 1408 1129 1408 1129 1411 1143 c 1,111,112
 1411 1161 1411 1161 1413 1180 c 1,113,114
 1413 1206 1413 1206 1393 1219 c 1,115,116
 1377 1234 1377 1234 1352 1233 c 0,117,118
 1186 1228 1186 1228 1020 1124 c 1,119,120
 1368 976 1368 976 1368 567 c 0,121,122
 1368 480 1368 480 1348 395 c 1,123,124
 1356 391 1356 391 1366 381 c 0,125,126
 1395 352 1395 352 1417 291 c 1,127,128
 1509 137 1509 137 1640 137 c 0,129,130
 1724 137 1724 137 1785 287 c 0,131,132
 1829 393 1829 393 1843 508 c 0,133,134
 1877 771 1877 771 2025 926 c 1,135,136
 2189 1096 2189 1096 2400 1096 c 0,137,138
 2586 1096 2586 1096 2697 932 c 0,139,140
 2789 796 2789 796 2796 594 c 1,141,142
 2865 591 2865 591 2916 557 c 0,143,144
 2959 529 2959 529 2966 485 c 1,0,1
2648 469 m 1,145,146
 2556 448 2556 448 2488 395 c 0,147,148
 2410 335 2410 335 2408 246 c 1,149,150
 2407 137 2407 137 2484 137 c 0,151,152
 2567 137 2567 137 2613 270 c 0,153,154
 2641 351 2641 351 2648 469 c 1,145,146
430 901 m 0,155,156
 430 963 430 963 346 963 c 0,157,158
 300 963 300 963 256 936 c 1,159,160
 218 907 218 907 215 877 c 1,161,162
 215 840 215 840 250 815 c 0,163,164
 281 793 281 793 322 793 c 0,165,166
 354 793 354 793 392 830.5 c 128,-1,167
 430 868 430 868 430 901 c 0,155,156
408 250 m 0,168,169
 408 294 408 294 369 338 c 0,170,171
 334 376 334 376 285 375 c 0,172,173
 147 370 147 370 152 250 c 0,174,175
 156 135 156 135 285 135 c 0,176,177
 408 135 408 135 408 250 c 0,168,169
EndSplineSet
Validated: 33
EndChar

StartChar: j
Encoding: 3302 3302 107
Width: 1053
GlyphClass: 2
Flags: W
LayerCount: 2
Fore
SplineSet
193 489 m 0,0,1
 188 647 188 647 285 803 c 0,2,3
 386 965 386 965 547 971 c 0,4,5
 653 974 653 974 723 844 c 0,6,7
 778 741 778 741 780 623 c 0,8,9
 784 461 784 461 686 307 c 0,10,11
 583 145 583 145 416 141 c 0,12,13
 308 139 308 139 246 268 c 0,14,15
 196 371 196 371 193 489 c 0,0,1
408 2 m 0,16,17
 632 -3 632 -3 772 172 c 1,18,19
 895 324 895 324 920 559 c 1,20,21
 920 763 920 763 842 915 c 0,22,23
 748 1100 748 1100 555 1102 c 1,24,25
 329 1103 329 1103 180 903 c 0,26,27
 49 726 49 726 47 489 c 0,28,29
 46 312 46 312 136 169 c 1,30,31
 240 6 240 6 408 2 c 0,16,17
EndSplineSet
Validated: 41
EndChar

StartChar: k
Encoding: 3303 3303 108
Width: 1063
GlyphClass: 2
Flags: W
LayerCount: 2
Fore
SplineSet
285 6 m 1,0,1
 361 6 361 6 385 90 c 1,2,3
 385 116 385 116 346 145 c 1,4,5
 145 228 145 228 145 555 c 0,6,7
 145 726 145 726 235 856 c 1,8,9
 336 1004 336 1004 500 1004 c 0,10,11
 662 1004 662 1004 764 854 c 0,12,13
 855 721 855 721 856 555 c 0,14,15
 858 353 858 353 694 207 c 0,16,17
 670 185 670 185 647 158 c 1,18,19
 641 154 641 154 633 145 c 1,20,21
 633 103 633 103 654.5 73.5 c 128,-1,22
 676 44 676 44 717 37 c 1,23,24
 993 209 993 209 995 555 c 0,25,26
 997 780 997 780 872 950 c 1,27,28
 739 1133 739 1133 516 1135 c 0,29,30
 293 1136 293 1136 145 954 c 0,31,32
 9 787 9 787 8 555 c 0,33,34
 6 150 6 150 285 6 c 1,0,1
EndSplineSet
Validated: 41
EndChar

StartChar: l
Encoding: 3304 3304 109
Width: 1169
GlyphClass: 2
Flags: W
LayerCount: 2
Fore
SplineSet
49 6 m 2,0,-1
 696 6 l 2,1,2
 849 6 849 6 981 188 c 0,3,4
 1106 360 1106 360 1108 516 c 0,5,6
 1112 750 1112 750 995 915 c 1,7,8
 886 1071 886 1071 696 1073 c 0,9,10
 597 1074 597 1074 527.5 1006.5 c 128,-1,11
 458 939 458 939 457 842 c 1,12,13
 455 749 455 749 524 688 c 0,14,15
 585 634 585 634 682 633 c 0,16,17
 787 631 787 631 797 686 c 1,18,19
 797 772 797 772 721 772 c 0,20,21
 673 772 673 772 657 748 c 1,22,23
 604 748 604 748 604 842 c 0,24,25
 604 942 604 942 688 942 c 0,26,27
 812 942 812 942 891 807 c 0,28,29
 952 701 952 701 952 563 c 0,30,31
 952 405 952 405 860 264 c 0,32,33
 777 137 777 137 666 137 c 2,34,-1
 63 137 l 2,35,36
 39 137 39 137 16 109 c 1,37,38
 -6 86 -6 86 -12 59 c 1,39,40
 -12 6 -12 6 49 6 c 2,0,-1
EndSplineSet
Validated: 41
EndChar

StartChar: m
Encoding: 3305 3305 110
Width: 1100
GlyphClass: 2
Flags: W
LayerCount: 2
Fore
SplineSet
336 885 m 1,0,1
 336 964 336 964 444 971 c 0,2,3
 467 972 467 972 545 901 c 1,4,5
 499 836 499 836 420 801 c 1,6,7
 348 801 348 801 336 885 c 1,0,1
152 289 m 0,8,9
 150 327 150 327 182 379 c 1,10,11
 221 427 221 427 260 428 c 0,12,13
 381 430 381 430 475 258 c 1,14,15
 398 141 398 141 285 141 c 0,16,17
 159 141 159 141 152 289 c 0,8,9
285 2 m 0,18,19
 457 2 457 2 584 166 c 1,20,21
 695 2 695 2 870 2 c 0,22,23
 979 2 979 2 1016 96 c 1,24,25
 1000 180 1000 180 963 180 c 1,26,27
 942 172 942 172 932 172 c 1,28,29
 892 141 892 141 854 141 c 0,30,31
 768 141 768 141 676 258 c 1,32,33
 793 396 793 396 793 598 c 0,34,35
 793 737 793 737 731 885 c 1,36,37
 754 918 754 918 784 993 c 1,38,39
 784 1061 784 1061 707 1102 c 1,40,41
 668 1102 668 1102 668 1055 c 1,42,43
 657 1044 657 1044 645 1001 c 1,44,45
 606 1062 606 1062 444 1102 c 1,46,47
 206 1102 206 1102 199 877 c 0,48,49
 196 800 196 800 255 742.5 c 128,-1,50
 314 685 314 685 397 684 c 0,51,52
 524 682 524 682 614 776 c 1,53,54
 652 728 652 728 653 598 c 0,55,56
 655 432 655 432 567 367 c 1,57,58
 475 526 475 526 285 559 c 1,59,60
 177 559 177 559 91.5 478.5 c 128,-1,61
 6 398 6 398 6 289 c 0,62,63
 6 172 6 172 86.5 87 c 128,-1,64
 167 2 167 2 285 2 c 0,18,19
EndSplineSet
Validated: 41
EndChar

StartChar: n
Encoding: 3306 3306 111
Width: 1108
GlyphClass: 2
Flags: W
LayerCount: 2
Fore
SplineSet
150 956 m 1,0,1
 159 1038 159 1038 236 1042 c 0,2,3
 266 1044 266 1044 279 983 c 1,4,5
 279 976 279 976 270 940 c 0,6,7
 263 910 263 910 180 856 c 1,8,9
 150 887 150 887 150 956 c 1,0,1
242 260 m 1,10,11
 266 385 266 385 440 430 c 1,12,13
 636 332 636 332 636 270 c 0,14,15
 636 265 636 265 635 260 c 0,16,17
 632 217 632 217 543 178 c 0,18,19
 471 147 471 147 410 145 c 1,20,21
 345 144 345 144 297 170 c 0,22,23
 239 202 239 202 242 260 c 1,10,11
952 1167 m 1,24,-1
 821 1081 l 1,25,26
 883 1020 883 1020 883 887 c 1,27,28
 837 710 837 710 473 578 c 1,29,30
 296 675 296 675 236 748 c 1,31,32
 376 818 376 818 426 942 c 1,33,34
 426 971 426 971 428 983 c 1,35,36
 428 1161 428 1161 258 1167 c 0,37,38
 170 1170 170 1170 92 1104 c 0,39,40
 40 1059 40 1059 -6 934 c 1,41,42
 -6 924 -6 924 -8 913 c 1,43,-1
 -8 897 l 2,44,45
 -8 835 -8 835 33 772 c 1,46,47
 -43 733 -43 733 -43 709 c 0,48,49
 -43 689 -43 689 -33 664 c 1,50,51
 -27 639 -27 639 -6 633 c 1,52,53
 12 633 12 633 96 678 c 1,54,55
 215 532 215 532 326 508 c 1,56,57
 144 430 144 430 96 260 c 1,58,59
 96 236 96 236 90 209 c 1,60,61
 90 8 90 8 387 6 c 0,62,63
 524 5 524 5 629 61 c 1,64,65
 750 127 750 127 774 252 c 1,66,67
 774 270 774 270 780 289 c 1,68,69
 780 442 780 442 596 494 c 1,70,71
 748 554 748 554 866 645 c 0,72,73
 1030 770 1030 770 1038 887 c 1,74,75
 1044 924 1044 924 1044 961 c 0,76,77
 1044 1094 1044 1094 952 1167 c 1,24,-1
EndSplineSet
Validated: 41
EndChar

StartChar: o
Encoding: 3307 3307 112
Width: 1341
GlyphClass: 2
Flags: W
LayerCount: 2
Fore
SplineSet
1061 1092 m 1,0,1
 1084 1092 1084 1092 1100 1073 c 1,2,3
 1114 1059 1114 1059 1114 1030 c 0,4,5
 1114 889 1114 889 866 821 c 1,6,7
 864 841 864 841 856 891 c 1,8,9
 856 1056 856 1056 1061 1092 c 1,0,1
180 897 m 0,10,11
 193 975 193 975 266 975 c 0,12,13
 322 975 322 975 358 930 c 1,14,15
 328 848 328 848 242 836 c 1,16,17
 208 836 208 836 188 852 c 1,18,19
 175 865 175 865 180 897 c 0,10,11
127 248 m 0,20,21
 148 366 148 366 276 457 c 0,22,23
 371 524 371 524 518 565 c 1,24,25
 524 547 524 547 524 504 c 2,26,-1
 524 473 l 2,27,28
 524 436 524 436 518 418 c 1,29,30
 500 316 500 316 422 231 c 1,31,32
 340 140 340 140 242 131 c 1,33,34
 187 131 187 131 150 160 c 1,35,36
 117 192 117 192 127 248 c 0,20,21
236 0 m 0,37,38
 388 -2 388 -2 516 135 c 1,39,40
 623 248 623 248 666 418 c 1,41,42
 666 433 666 433 668 449 c 1,43,44
 668 461 668 461 672 479 c 1,45,-1
 672 565 l 2,46,47
 672 602 672 602 666 618 c 1,48,-1
 782 651 l 1,49,50
 782 622 782 622 866 510 c 1,51,52
 911 469 911 469 915 375 c 1,53,54
 917 353 917 353 913 334 c 1,55,56
 868 205 868 205 791 166 c 0,57,58
 743 142 743 142 743 100 c 1,59,60
 741 91 741 91 741 82 c 0,61,62
 741 38 741 38 805 -8 c 1,63,64
 1007 123 1007 123 1061 340 c 0,65,66
 1069 373 1069 373 1069 410 c 0,67,68
 1069 561 1069 561 922 696 c 1,69,70
 1192 752 1192 752 1253 1006 c 1,71,72
 1253 1087 1253 1087 1208 1145 c 0,73,74
 1160 1206 1160 1206 1083 1208 c 0,75,76
 943 1212 943 1212 827 1114 c 0,77,78
 721 1024 721 1024 721 877 c 0,79,80
 721 822 721 822 752 758 c 1,81,-1
 612 727 l 1,82,83
 612 852 612 852 543 944 c 1,84,85
 572 973 572 973 604 1044 c 1,86,87
 604 1068 604 1068 583 1092.5 c 128,-1,88
 562 1117 562 1117 526 1122 c 1,89,90
 496 1122 496 1122 440 1044 c 1,91,92
 440 1052 440 1052 420 1065 c 1,93,94
 388 1074 388 1074 305 1100 c 1,95,96
 207 1100 207 1100 123 1044 c 1,97,98
 48 996 48 996 27 897 c 1,99,100
 27 887 27 887 23 881 c 1,101,-1
 23 870 l 2,102,103
 23 732 23 732 211 705 c 1,104,105
 307 705 307 705 420 836 c 1,106,107
 438 825 438 825 487 682 c 1,108,109
 300 637 300 637 168 528 c 1,110,111
 44 427 44 427 10 287 c 1,112,113
 10 256 10 256 6 225 c 1,114,115
 6 119 6 119 68 59 c 0,116,117
 127 1 127 1 236 0 c 0,37,38
EndSplineSet
Validated: 41
EndChar

StartChar: p
Encoding: 3308 3308 113
Width: 1012
GlyphClass: 2
Flags: W
LayerCount: 2
Fore
SplineSet
414 616 m 1,0,1
 481 669 481 669 584 678 c 1,2,3
 668 678 668 678 668 616 c 1,4,5
 646 531 646 531 537 526 c 0,6,7
 414 521 414 521 414 616 c 1,0,1
252 6 m 2,8,-1
 870 6 l 2,9,10
 893 6 893 6 930 37 c 1,11,12
 959 66 959 66 963 98 c 0,13,14
 963 99 963 99 967 117 c 1,15,16
 965 122 965 122 954 137 c 1,17,-1
 367 137 l 2,18,19
 279 137 279 137 217 190.5 c 128,-1,20
 155 244 155 244 152 328 c 0,21,22
 149 391 149 391 215 494 c 0,23,24
 241 534 241 534 285 547 c 1,25,26
 285 476 285 476 358 434 c 0,27,28
 415 402 415 402 498 399 c 0,29,30
 599 396 599 396 696 457 c 0,31,32
 788 514 788 514 815 616 c 1,33,34
 815 623 815 623 821 657 c 1,35,36
 821 727 821 727 758.5 775.5 c 128,-1,37
 696 824 696 824 623 825 c 1,38,39
 571 827 571 827 504 807 c 0,40,41
 434 786 434 786 397 748 c 1,42,43
 397 785 397 785 399 803 c 1,44,45
 399 815 399 815 403 838 c 1,46,47
 403 924 403 924 379 1024 c 0,48,49
 347 1155 347 1155 276 1159 c 0,50,51
 244 1161 244 1161 205 1128 c 0,52,53
 175 1103 175 1103 160 1059 c 0,54,55
 160 1057 160 1057 163 1049.5 c 128,-1,56
 166 1042 166 1042 190 1026 c 1,57,58
 215 1020 215 1020 252 881 c 1,59,60
 252 873 252 873 251 843.5 c 128,-1,61
 250 814 250 814 250 791 c 2,62,-1
 250 717 l 2,63,64
 250 684 250 684 252 678 c 1,65,66
 38 510 38 510 10 354 c 1,67,68
 10 317 10 317 8 301 c 1,69,70
 8 186 8 186 71 101 c 0,71,72
 141 6 141 6 252 6 c 2,8,-1
EndSplineSet
Validated: 41
EndChar

StartChar: q
Encoding: 3309 3309 114
Width: 983
GlyphClass: 2
Flags: W
LayerCount: 2
Fore
SplineSet
180 6 m 2,0,-1
 891 6 l 2,1,2
 908 6 908 6 932 39 c 1,3,4
 949 71 949 71 952 98 c 1,5,6
 952 128 952 128 922 137 c 1,7,-1
 219 137 l 2,8,9
 193 137 193 137 170 156 c 0,10,11
 152 170 152 170 135 207 c 1,12,13
 135 264 135 264 334 424 c 0,14,15
 620 654 620 654 612 856 c 1,16,17
 604 1094 604 1094 387 1096 c 0,18,19
 283 1097 283 1097 172 1022 c 0,20,21
 54 942 54 942 63 842 c 1,22,23
 63 732 63 732 127 678 c 1,24,25
 206 678 206 678 219 748 c 1,26,27
 219 773 219 773 218 776 c 128,-1,28
 217 779 217 779 211 786 c 1,29,-1
 197 825 l 1,30,31
 197 878 197 878 260 922 c 0,32,33
 313 958 313 958 371 965 c 1,34,35
 408 965 408 965 437.5 924.5 c 128,-1,36
 467 884 467 884 473 842 c 1,37,38
 473 792 473 792 408 702 c 1,39,40
 327 592 327 592 236 516 c 0,41,42
 -6 315 -6 315 -6 221 c 0,43,44
 -6 140 -6 140 43 70 c 1,45,46
 97 6 97 6 180 6 c 2,0,-1
EndSplineSet
Validated: 41
EndChar

StartChar: r
Encoding: 3310 3310 115
Width: 1288
GlyphClass: 2
Flags: W
LayerCount: 2
Fore
SplineSet
250 813 m 1,0,1
 265 874 265 874 309 919.5 c 128,-1,2
 353 965 353 965 418 967 c 0,3,4
 471 968 471 968 477 905 c 1,5,6
 477 887 477 887 473 874 c 1,7,8
 464 758 464 758 350 758 c 0,9,10
 296 758 296 758 280.5 771.5 c 128,-1,11
 265 785 265 785 250 813 c 1,0,1
526 0 m 0,12,13
 744 -2 744 -2 909 106 c 0,14,15
 1082 219 1082 219 1122 426 c 0,16,17
 1130 468 1130 468 1130 498 c 0,18,19
 1130 670 1130 670 975 743 c 1,20,21
 920 756 920 756 885 801 c 0,22,23
 856 837 856 837 860 897 c 0,24,25
 869 1014 869 1014 1153 1022 c 0,26,27
 1208 1023 1208 1023 1247 1108 c 1,28,29
 1247 1129 1247 1129 1190 1143 c 1,30,31
 1149 1152 1149 1152 1114 1153 c 0,32,33
 954 1155 954 1155 844 1085 c 0,34,35
 739 1019 739 1019 721 913 c 1,36,37
 721 883 721 883 715 860 c 1,38,39
 715 704 715 704 854 653 c 0,40,41
 963 614 963 614 975 418 c 1,42,43
 953 276 953 276 823 196 c 0,44,45
 710 126 710 126 557 123 c 0,46,47
 395 120 395 120 270 227 c 0,48,49
 157 325 157 325 150 496 c 0,50,51
 148 528 148 528 158 573 c 1,52,53
 158 592 158 592 197 688 c 1,54,55
 209 679 209 679 268 653 c 1,56,57
 287 650 287 650 336 643 c 1,58,59
 443 643 443 643 525.5 704 c 128,-1,60
 608 765 608 765 627 874 c 1,61,62
 627 885 627 885 629 895 c 1,63,-1
 629 911 l 2,64,65
 629 984 629 984 591.5 1039 c 128,-1,66
 554 1094 554 1094 487 1100 c 1,67,68
 380 1100 380 1100 295 1059 c 0,69,70
 196 1011 196 1011 166 913 c 1,71,72
 166 930 166 930 162 940 c 1,73,74
 162 967 162 967 158 983 c 1,75,76
 158 1014 158 1014 135 1014 c 0,77,78
 102 1014 102 1014 70 954 c 1,79,80
 48 915 48 915 48 882 c 0,81,82
 48 836 48 836 96 774 c 1,83,84
 65 742 65 742 18 573 c 1,85,86
 18 552 18 552 8 524 c 1,87,-1
 8 485 l 2,88,89
 8 278 8 278 161.5 140 c 128,-1,90
 315 2 315 2 526 0 c 0,12,13
EndSplineSet
Validated: 41
EndChar

StartChar: s
Encoding: 3311 3311 116
Width: 1182
GlyphClass: 2
Flags: W
LayerCount: 2
Fore
SplineSet
375 614 m 1,0,1
 388 628 388 628 430 647 c 1,2,3
 454 652 454 652 510 668 c 1,4,5
 592 668 592 668 596 598 c 0,6,7
 598 553 598 553 510 553 c 0,8,9
 421 553 421 553 375 614 c 1,0,1
219 -6 m 0,10,11
 402 -12 402 -12 465 141 c 1,12,13
 465 219 465 219 410 219 c 0,14,15
 382 219 382 219 365 207 c 1,16,17
 344 186 344 186 276 141 c 1,18,19
 258 135 258 135 236 135 c 0,20,21
 209 135 209 135 178 166 c 1,22,23
 164 194 164 194 158 250 c 1,24,25
 155 385 155 385 274 528 c 1,26,27
 312 478 312 478 369 449 c 1,28,29
 418 429 418 429 510 420 c 1,30,31
 593 420 593 420 663 467 c 0,32,33
 743 520 743 520 743 598 c 0,34,35
 743 680 743 680 666 735 c 0,36,37
 599 782 599 782 510 784 c 0,38,39
 458 786 458 786 392.5 764 c 128,-1,40
 327 742 327 742 289 698 c 1,41,42
 219 747 219 747 219 815 c 0,43,44
 219 872 219 872 251.5 909 c 128,-1,45
 284 946 284 946 344 946 c 2,46,-1
 1061 946 l 2,47,48
 1118 946 1118 946 1122 1040 c 0,49,50
 1124 1071 1124 1071 1092 1071 c 2,51,-1
 297 1071 l 2,52,53
 194 1071 194 1071 131 999 c 0,54,55
 75 935 75 935 72 823 c 0,56,57
 69 724 69 724 180 623 c 1,58,59
 10 450 10 450 10 242 c 0,60,61
 10 139 10 139 69 68 c 128,-1,62
 128 -3 128 -3 219 -6 c 0,10,11
EndSplineSet
Validated: 41
EndChar

StartChar: u
Encoding: 65548 -1 118
Width: 377
GlyphClass: 2
Flags: W
LayerCount: 2
Fore
SplineSet
522 1010 m 1,0,1
 460 1010 460 1010 395 999 c 0,2,3
 325 988 325 988 248 963 c 1,4,5
 346 881 346 881 399 741 c 0,6,7
 447 617 447 617 449 473 c 1,8,9
 450 262 450 262 354 119 c 0,10,11
 246 -43 246 -43 39 -43 c 0,12,13
 -100 -43 -100 -43 -205 18 c 0,14,15
 -327 88 -327 88 -348 215 c 1,16,-1
 -328 336 l 1,17,18
 -227 336 -227 336 -186 242 c 0,19,20
 -126 102 -126 102 47 100 c 0,21,22
 167 99 167 99 231 231 c 0,23,24
 279 328 279 328 279 473 c 0,25,26
 279 742 279 742 90 897 c 1,27,28
 29 860 29 860 -31 860 c 0,29,30
 -86 860 -86 860 -98 946 c 0,31,32
 -101 964 -101 964 -63 999 c 1,33,34
 -36 1026 -36 1026 -8 1038 c 1,35,-1
 242 1102 l 2,36,37
 343 1128 343 1128 514 1139 c 1,38,-1
 522 1010 l 1,0,1
EndSplineSet
Validated: 33
EndChar

StartChar: v
Encoding: 65549 -1 119
Width: 745
GlyphClass: 2
Flags: W
LayerCount: 2
Fore
SplineSet
535 489 m 0,0,1
 535 52 535 52 266 -264 c 1,2,3
 -13 -594 -13 -594 -449 -594 c 0,4,5
 -633 -594 -633 -594 -768 -510 c 0,6,7
 -922 -414 -922 -414 -922 -238 c 0,8,9
 -922 -158 -922 -158 -883 -79 c 0,10,11
 -836 17 -836 17 -766 18 c 0,12,13
 -696 20 -696 20 -696 -37 c 0,14,15
 -696 -41 -696 -41 -713 -90 c 1,16,17
 -782 -179 -782 -179 -782 -238 c 0,18,19
 -782 -351 -782 -351 -653 -414 c 0,20,21
 -556 -461 -556 -461 -426 -463 c 0,22,23
 -62 -467 -62 -467 178 -162 c 0,24,25
 395 114 395 114 395 489 c 0,26,27
 395 837 395 837 295 1040 c 0,28,29
 286 1057 286 1057 264 1096 c 1,30,31
 256 1118 256 1118 256 1141 c 0,32,33
 256 1166 256 1166 290 1189 c 0,34,35
 321 1210 321 1210 348 1210 c 0,36,37
 438 1210 438 1210 496 887 c 0,38,39
 535 667 535 667 535 489 c 0,0,1
EndSplineSet
Validated: 33
EndChar

StartChar: x
Encoding: 3265 3265 121
Width: 627
GlyphClass: 4
Flags: W
LayerCount: 2
Fore
SplineSet
446 516 m 0,0,1
 446 305 446 305 350 162 c 0,2,3
 242 0 242 0 37 0 c 0,4,5
 -91 0 -91 0 -193 51 c 1,6,7
 -306 109 -306 109 -344 225 c 1,8,9
 -344 291 -344 291 -281 371 c 1,10,11
 -219 362 -219 362 -188 287 c 0,12,13
 -131 147 -131 147 43 145 c 0,14,15
 167 144 167 144 229 276 c 0,16,17
 276 376 276 376 276 516 c 0,18,19
 276 784 276 784 88 942 c 1,20,21
 28 903 28 903 -33 903 c 0,22,23
 -87 903 -87 903 -100 991 c 0,24,25
 -103 1010 -103 1010 -63 1044 c 1,26,27
 -48 1063 -48 1063 -10 1081 c 1,28,29
 19 1093 19 1093 70 1100 c 1,30,31
 174 1100 174 1100 281 975 c 0,32,33
 355 888 355 888 393 795 c 0,34,35
 446 666 446 666 446 516 c 0,0,1
EndSplineSet
Validated: 33
Substitution2: "Single Substitution lookup 19 subtable" v
EndChar

StartChar: y
Encoding: 65551 -1 122
Width: 1309
GlyphClass: 4
Flags: W
LayerCount: 2
Fore
SplineSet
1155 721 m 1,0,1
 1155 654 1155 654 1135 628 c 0,2,3
 1113 599 1113 599 1049 596 c 1,4,5
 1049 397 1049 397 985 246 c 0,6,7
 902 47 902 47 723 47 c 0,8,9
 634 47 634 47 580 111 c 0,10,11
 531 168 531 168 528 264 c 1,12,13
 525 422 525 422 633 563 c 0,14,15
 730 691 730 691 901 713 c 1,16,17
 879 831 879 831 831 932 c 0,18,19
 764 1074 764 1074 676 1075 c 0,20,21
 538 1077 538 1077 428 883 c 0,22,23
 301 658 301 658 289 403 c 0,24,25
 270 -1 270 -1 23 -250 c 0,26,27
 -244 -518 -244 -518 -586 -518 c 0,28,29
 -731 -518 -731 -518 -846 -414 c 1,30,31
 -956 -313 -956 -313 -956 -186 c 0,32,33
 -956 -114 -956 -114 -933 -49 c 1,34,35
 -901 36 -901 36 -842 39 c 1,36,37
 -827 41 -827 41 -815 41 c 0,38,39
 -756 41 -756 41 -756 -8 c 1,40,41
 -759 -10 -759 -10 -764 -20 c 2,42,-1
 -786 -61 l 2,43,44
 -811 -106 -811 -106 -815 -127 c 1,45,46
 -815 -166 -815 -166 -817 -186 c 1,47,48
 -817 -277 -817 -277 -741 -340 c 128,-1,49
 -665 -403 -665 -403 -569 -403 c 0,50,51
 -260 -403 -260 -403 -49 -150 c 1,52,53
 134 71 134 71 150 403 c 1,54,55
 161 656 161 656 295 905 c 0,56,57
 453 1200 453 1200 684 1200 c 0,58,59
 819 1200 819 1200 926 1065 c 0,60,61
 1027 937 1027 937 1049 743 c 1,62,63
 1081 743 1081 743 1114 741 c 1,64,65
 1153 732 1153 732 1155 721 c 1,0,1
901 573 m 1,66,67
 791 549 791 549 734.5 464.5 c 128,-1,68
 678 380 678 380 676 264 c 0,69,70
 675 186 675 186 731 186 c 0,71,72
 800 186 800 186 850 299 c 0,73,74
 895 401 895 401 901 573 c 1,66,67
EndSplineSet
Validated: 33
EndChar

StartChar: z
Encoding: 65552 -1 123
Width: 1788
GlyphClass: 2
Flags: W
LayerCount: 2
Fore
SplineSet
248 963 m 1,0,1
 346 881 346 881 399 741 c 0,2,3
 447 617 447 617 449 473 c 1,4,5
 450 262 450 262 354 119 c 0,6,7
 246 -43 246 -43 39 -43 c 0,8,9
 -100 -43 -100 -43 -205 18 c 0,10,11
 -327 88 -327 88 -348 215 c 1,12,-1
 -328 336 l 1,13,14
 -227 336 -227 336 -186 242 c 0,15,16
 -126 102 -126 102 47 100 c 0,17,18
 167 99 167 99 231 231 c 0,19,20
 279 328 279 328 279 473 c 0,21,22
 279 742 279 742 90 897 c 1,23,24
 29 860 29 860 -31 860 c 0,25,26
 -86 860 -86 860 -98 946 c 0,27,28
 -101 964 -101 964 -63 999 c 1,29,30
 -36 1026 -36 1026 -8 1038 c 1,31,-1
 242 1102 l 2,32,33
 377 1136 377 1136 514 1139 c 0,34,35
 862 1145 862 1145 1208 973 c 0,36,37
 1499 828 1499 828 1505 625 c 1,38,39
 1675 615 1675 615 1675 555 c 0,40,41
 1675 477 1675 477 1620 477 c 0,42,43
 1559 477 1559 477 1561 479 c 1,44,45
 1549 484 1549 484 1528 500 c 1,46,47
 1528 305 1528 305 1456 168 c 0,48,49
 1367 -2 1367 -2 1188 -2 c 0,50,51
 1090 -2 1090 -2 1023 77 c 128,-1,52
 956 156 956 156 954 276 c 1,53,54
 953 439 953 439 1090 545 c 0,55,56
 1207 636 1207 636 1380 639 c 1,57,58
 1334 840 1334 840 1016 940 c 0,59,60
 794 1010 794 1010 522 1012 c 0,61,62
 358 1013 358 1013 248 963 c 1,0,1
1389 469 m 2,63,-1
 1389 516 l 1,64,65
 1264 513 1264 513 1183 439.5 c 128,-1,66
 1102 366 1102 366 1102 260 c 0,67,68
 1102 203 1102 203 1130.5 162.5 c 128,-1,69
 1159 122 1159 122 1194 121 c 0,70,71
 1296 119 1296 119 1349 251 c 0,72,73
 1389 349 1389 349 1389 469 c 2,63,-1
EndSplineSet
Validated: 33
EndChar

StartChar: bar
Encoding: 65554 -1 125
Width: 721
GlyphClass: 2
Flags: W
LayerCount: 2
Fore
SplineSet
643 -465 m 0,0,1
 643 -656 643 -656 549 -795 c 0,2,3
 448 -944 448 -944 256 -944 c 0,4,5
 142 -944 142 -944 47.5 -854 c 128,-1,6
 -47 -764 -47 -764 -47 -651 c 0,7,8
 -47 -403 -47 -403 162 -403 c 1,9,10
 214 -409 214 -409 252 -449 c 0,11,12
 287 -485 287 -485 287 -543 c 0,13,14
 287 -593 287 -593 250 -627 c 1,15,16
 220 -666 220 -666 170 -666 c 0,17,18
 92 -666 92 -666 86 -612 c 1,19,20
 92 -836 92 -836 264 -836 c 0,21,22
 376 -836 376 -836 446 -727 c 0,23,24
 510 -629 510 -629 510 -457 c 0,25,26
 510 -195 510 -195 317 -47 c 0,27,28
 302 -35 302 -35 270 0 c 0,29,30
 265 6 265 6 256 23 c 1,31,32
 271 109 271 109 317 109 c 1,33,34
 451 54 451 54 553 -135 c 0,35,36
 643 -303 643 -303 643 -465 c 0,0,1
EndSplineSet
Validated: 1
EndChar

StartChar: braceright
Encoding: 65555 -1 126
Width: 645
GlyphClass: 2
Flags: W
LayerCount: 2
Fore
SplineSet
1169 -465 m 0,0,1
 1169 -540 1169 -540 1115 -585 c 128,-1,2
 1061 -630 1061 -630 983 -633 c 0,3,4
 914 -636 914 -636 854 -586 c 1,5,6
 809 -541 809 -541 803 -463 c 1,7,-1
 805 -420 l 1,8,-1
 657 -428 l 1,9,10
 660 -441 660 -441 672 -477 c 1,11,12
 672 -504 672 -504 676 -545 c 1,13,-1
 676 -573 l 2,14,15
 676 -592 676 -592 672 -608 c 1,16,17
 656 -768 656 -768 553.5 -855.5 c 128,-1,18
 451 -943 451 -943 289 -946 c 0,19,20
 148 -949 148 -949 57 -870 c 0,21,22
 -30 -795 -30 -795 -33 -651 c 0,23,24
 -33 -623 -33 -623 -31 -598 c 0,25,26
 -3 -330 -3 -330 209 -317 c 1,27,28
 319 -339 319 -339 319 -423 c 0,29,30
 319 -433 319 -433 317 -444 c 1,31,32
 317 -553 317 -553 178 -565 c 1,33,-1
 135 -553 l 1,34,-1
 121 -598 l 1,35,36
 121 -625 121 -625 119 -629 c 1,37,38
 119 -793 119 -793 295 -797 c 0,39,40
 383 -799 383 -799 450 -744.5 c 128,-1,41
 517 -690 517 -690 518 -608 c 0,42,43
 519 -542 519 -542 508 -473 c 0,44,45
 501 -429 501 -429 459 -426 c 1,46,-1
 455 -311 l 1,47,-1
 1053 -311 l 2,48,49
 1063 -311 1063 -311 1069 -309 c 1,50,51
 1169 -341 1169 -341 1169 -465 c 0,0,1
1022 -465 m 1,52,53
 1022 -436 1022 -436 936 -430 c 1,54,55
 950 -442 950 -442 956 -463 c 1,56,57
 956 -484 956 -484 985 -496 c 1,58,59
 1001 -496 1001 -496 1010 -487 c 0,60,61
 1011 -487 1011 -487 1022 -465 c 1,52,53
EndSplineSet
Validated: 33
EndChar

StartChar: asciitilde
Encoding: 65556 -1 127
Width: 653
GlyphClass: 2
Flags: W
LayerCount: 2
Fore
SplineSet
365 1219 m 1,0,1
 355 1131 355 1131 231 1071 c 1,2,3
 248 1055 248 1055 279 1055 c 0,4,5
 334 1055 334 1055 334 1010 c 0,6,7
 334 982 334 982 309 961 c 1,8,9
 295 944 295 944 256 940 c 1,10,11
 183 940 183 940 117 1010 c 1,12,13
 96 989 96 989 -8 985 c 2,14,-1
 -180 979 l 1,15,-1
 -172 1053 l 1,16,-1
 0 1094 l 1,17,18
 -78 1150 -78 1150 -78 1219 c 0,19,20
 -78 1301 -78 1301 6 1362 c 0,21,22
 74 1411 74 1411 170 1411 c 0,23,24
 252 1411 252 1411 305 1356 c 128,-1,25
 358 1301 358 1301 365 1219 c 1,0,1
524 592 m 0,26,27
 526 509 526 509 473 459 c 0,28,29
 425 414 425 414 338 414 c 1,30,31
 338 414 338 414 307 408 c 1,32,33
 232 408 232 408 190 475 c 1,34,-1
 190 645 l 1,35,36
 199 656 199 656 207 662 c 1,37,38
 214 663 214 663 221 668 c 1,39,40
 252 668 252 668 252 614 c 1,41,42
 258 573 258 573 279 553 c 1,43,44
 309 528 309 528 338 528 c 1,45,46
 349 534 349 534 371 549 c 1,47,48
 377 557 377 557 385 592 c 1,49,50
 385 600 385 600 338 723 c 1,51,52
 324 737 324 737 299 774 c 1,53,54
 285 791 285 791 285 807 c 1,55,56
 307 822 307 822 336 838 c 0,57,58
 396 870 396 870 408 870 c 1,59,60
 446 863 446 863 487 748 c 0,61,62
 523 648 523 648 524 592 c 0,26,27
225 1219 m 0,63,64
 225 1296 225 1296 162 1296 c 0,65,66
 86 1296 86 1296 86 1219 c 0,67,68
 86 1164 86 1164 123 1124 c 1,69,70
 225 1155 225 1155 225 1219 c 0,63,64
EndSplineSet
Validated: 33
EndChar

StartChar: glyph128
Encoding: 65557 -1 128
Width: 627
GlyphClass: 2
Flags: W
LayerCount: 2
Fore
SplineSet
365 1219 m 1,0,1
 355 1131 355 1131 231 1071 c 1,2,3
 248 1055 248 1055 279 1055 c 0,4,5
 334 1055 334 1055 334 1010 c 0,6,7
 334 982 334 982 309 961 c 1,8,9
 295 944 295 944 256 940 c 1,10,11
 183 940 183 940 117 1010 c 1,12,13
 96 989 96 989 -8 985 c 2,14,-1
 -180 979 l 1,15,-1
 -172 1053 l 1,16,-1
 0 1094 l 1,17,18
 -78 1150 -78 1150 -78 1219 c 0,19,20
 -78 1301 -78 1301 6 1362 c 0,21,22
 74 1411 74 1411 170 1411 c 0,23,24
 252 1411 252 1411 305 1356 c 128,-1,25
 358 1301 358 1301 365 1219 c 1,0,1
524 592 m 0,26,27
 526 509 526 509 473 459 c 0,28,29
 425 414 425 414 338 414 c 1,30,31
 338 414 338 414 307 408 c 1,32,33
 232 408 232 408 190 475 c 1,34,-1
 190 645 l 1,35,36
 199 656 199 656 207 662 c 1,37,38
 214 663 214 663 221 668 c 1,39,40
 252 668 252 668 252 614 c 1,41,42
 258 573 258 573 279 553 c 1,43,44
 309 528 309 528 338 528 c 1,45,46
 349 534 349 534 371 549 c 1,47,48
 377 557 377 557 385 592 c 1,49,50
 385 600 385 600 338 723 c 1,51,52
 324 737 324 737 299 774 c 1,53,54
 285 791 285 791 285 807 c 1,55,56
 307 822 307 822 336 838 c 0,57,58
 396 870 396 870 408 870 c 1,59,60
 446 863 446 863 487 748 c 0,61,62
 523 648 523 648 524 592 c 0,26,27
528 -672 m 0,63,64
 528 -826 528 -826 430 -932 c 0,65,66
 337 -1033 337 -1033 180 -1034 c 1,67,68
 45 -1036 45 -1036 -53 -950 c 0,69,70
 -145 -870 -145 -870 -145 -725 c 0,71,72
 -145 -648 -145 -648 -96 -578 c 0,73,74
 -53 -516 -53 -516 27 -516 c 0,75,76
 88 -516 88 -516 127 -549 c 1,77,78
 166 -591 166 -591 166 -633 c 0,79,80
 166 -756 166 -756 63 -756 c 0,81,82
 -6 -756 -6 -756 -20 -741 c 1,83,84
 -17 -821 -17 -821 42 -873.5 c 128,-1,85
 101 -926 101 -926 188 -926 c 0,86,87
 286 -926 286 -926 352 -846 c 0,88,89
 414 -772 414 -772 414 -672 c 0,90,91
 414 -585 414 -585 354 -510 c 1,92,93
 301 -442 301 -442 211 -430 c 1,94,-1
 150 -430 l 2,95,96
 102 -430 102 -430 102 -377 c 1,97,98
 118 -322 118 -322 150 -322 c 2,99,-1
 219 -322 l 2,100,101
 267 -322 267 -322 299 -270 c 0,102,103
 327 -226 327 -226 328 -176 c 0,104,105
 330 -59 330 -59 219 -37 c 1,106,107
 204 -24 204 -24 180 -2 c 0,108,109
 170 8 170 8 166 18 c 1,110,111
 172 80 172 80 242 80 c 0,112,113
 334 80 334 80 399 -4 c 0,114,115
 459 -81 459 -81 459 -176 c 0,116,117
 459 -329 459 -329 375 -385 c 1,118,119
 528 -462 528 -462 528 -672 c 0,63,64
225 1219 m 0,120,121
 225 1296 225 1296 162 1296 c 0,122,123
 86 1296 86 1296 86 1219 c 0,124,125
 86 1164 86 1164 123 1124 c 1,126,127
 225 1155 225 1155 225 1219 c 0,120,121
EndSplineSet
Validated: 33
EndChar

StartChar: glyph129
Encoding: 65558 -1 129
Width: 1935
GlyphClass: 2
Flags: W
LayerCount: 2
Fore
SplineSet
1804 485 m 1,0,1
 1804 415 1804 415 1774 399 c 1,2,3
 1754 407 1754 407 1718 424 c 1,4,5
 1702 434 1702 434 1675 446 c 0,6,7
 1655 455 1655 455 1634 455 c 1,8,9
 1634 283 1634 283 1559 152 c 0,10,11
 1470 -2 1470 -2 1309 -2 c 0,12,13
 1209 -2 1209 -2 1153 72 c 0,14,15
 1100 142 1100 142 1100 246 c 0,16,17
 1100 395 1100 395 1221 498 c 0,18,19
 1330 591 1330 591 1487 594 c 1,20,21
 1487 722 1487 722 1421 834 c 0,22,23
 1344 965 1344 965 1223 965 c 0,24,25
 1047 965 1047 965 930 780 c 0,26,27
 835 631 835 631 813 430 c 1,28,29
 780 270 780 270 709 154 c 0,30,31
 612 -2 612 -2 479 -2 c 0,32,33
 352 -2 352 -2 252 80 c 0,34,35
 157 157 157 157 109 285 c 1,36,-1
 131 416 l 1,37,38
 219 407 219 407 256 291 c 1,39,40
 348 137 348 137 479 137 c 0,41,42
 563 137 563 137 624 287 c 0,43,44
 667 393 667 393 682 508 c 0,45,46
 715 771 715 771 864 926 c 0,47,48
 1028 1096 1028 1096 1239 1096 c 0,49,50
 1425 1096 1425 1096 1536 932 c 0,51,52
 1628 796 1628 796 1634 594 c 1,53,54
 1703 591 1703 591 1755 557 c 0,55,56
 1798 529 1798 529 1804 485 c 1,0,1
365 1219 m 1,57,58
 355 1131 355 1131 231 1071 c 1,59,60
 248 1055 248 1055 279 1055 c 0,61,62
 334 1055 334 1055 334 1010 c 0,63,64
 334 982 334 982 309 961 c 1,65,66
 295 944 295 944 256 940 c 1,67,68
 183 940 183 940 117 1010 c 1,69,70
 96 989 96 989 -8 985 c 2,71,-1
 -180 979 l 1,72,-1
 -172 1053 l 1,73,-1
 0 1094 l 1,74,75
 -78 1150 -78 1150 -78 1219 c 0,76,77
 -78 1301 -78 1301 6 1362 c 0,78,79
 74 1411 74 1411 170 1411 c 0,80,81
 252 1411 252 1411 305 1356 c 128,-1,82
 358 1301 358 1301 365 1219 c 1,57,58
524 592 m 0,83,84
 526 509 526 509 473 459 c 0,85,86
 425 414 425 414 338 414 c 1,87,88
 338 414 338 414 307 408 c 1,89,90
 232 408 232 408 190 475 c 1,91,-1
 190 645 l 1,92,93
 199 656 199 656 207 662 c 1,94,95
 214 663 214 663 221 668 c 1,96,97
 252 668 252 668 252 614 c 1,98,99
 258 573 258 573 279 553 c 1,100,101
 309 528 309 528 338 528 c 1,102,103
 349 534 349 534 371 549 c 1,104,105
 377 557 377 557 385 592 c 1,106,107
 385 600 385 600 338 723 c 1,108,109
 324 737 324 737 299 774 c 1,110,111
 285 791 285 791 285 807 c 1,112,113
 307 822 307 822 336 838 c 0,114,115
 396 870 396 870 408 870 c 1,116,117
 446 863 446 863 487 748 c 0,118,119
 523 648 523 648 524 592 c 0,83,84
1487 469 m 1,120,121
 1395 448 1395 448 1327 395 c 0,122,123
 1249 335 1249 335 1247 246 c 1,124,125
 1246 137 1246 137 1323 137 c 0,126,127
 1406 137 1406 137 1452 270 c 0,128,129
 1480 351 1480 351 1487 469 c 1,120,121
225 1219 m 0,130,131
 225 1296 225 1296 162 1296 c 0,132,133
 86 1296 86 1296 86 1219 c 0,134,135
 86 1164 86 1164 123 1124 c 1,136,137
 225 1155 225 1155 225 1219 c 0,130,131
EndSplineSet
Validated: 33
EndChar

StartChar: O_e.rphf
Encoding: 65559 -1 130
Width: 1237
GlyphClass: 2
Flags: W
LayerCount: 2
Fore
SplineSet
1122 1044 m 0,0,1
 1118 952 1118 952 1061 952 c 2,2,-1
 344 952 l 2,3,4
 289 952 289 952 252 913 c 0,5,6
 221 881 221 881 219 821 c 0,7,8
 217 751 217 751 289 705 c 1,9,10
 325 744 325 744 393 768 c 0,11,12
 456 791 456 791 510 791 c 0,13,14
 596 791 596 791 666 741 c 0,15,16
 743 686 743 686 743 604 c 0,17,18
 743 529 743 529 666 475 c 0,19,20
 595 426 595 426 510 426 c 0,21,22
 423 426 423 426 369 455 c 0,23,24
 310 486 310 486 274 535 c 1,25,26
 155 395 155 395 158 256 c 0,27,28
 159 193 159 193 178 170 c 0,29,30
 204 139 204 139 236 139 c 0,31,32
 274 139 274 139 307 166 c 0,33,34
 332 186 332 186 365 211 c 0,35,36
 372 216 372 216 410 225 c 1,37,38
 465 225 465 225 465 147 c 1,39,40
 407 -2 407 -2 219 0 c 0,41,42
 122 1 122 1 64 78 c 0,43,44
 11 148 11 148 10 248 c 0,45,46
 8 455 8 455 180 627 c 1,47,48
 72 726 72 726 72 827 c 0,49,50
 72 934 72 934 132 1004.5 c 128,-1,51
 192 1075 192 1075 297 1075 c 2,52,-1
 1092 1075 l 2,53,54
 1124 1075 1124 1075 1122 1044 c 0,0,1
596 604 m 0,55,56
 592 674 592 674 510 674 c 1,57,58
 504 670 504 670 430 653 c 1,59,60
 390 637 390 637 375 618 c 1,61,62
 412 557 412 557 510 557 c 0,63,64
 598 557 598 557 596 604 c 0,55,56
EndSplineSet
Validated: 33
Substitution2: "Single Substitution lookup 15 subtable" Agrave
Ligature2: "'rphf' Reph Form in Kannada lookup 0 subtable" O e
EndChar

StartChar: glyph131
Encoding: 65560 -1 131
Width: 803
GlyphClass: 2
Flags: W
LayerCount: 2
Fore
SplineSet
1130 713 m 0,0,1
 1128 588 1128 588 1044 588 c 0,2,3
 1023 588 1023 588 1004 594 c 0,4,5
 996 596 996 596 975 604 c 1,6,-1
 991 627 l 1,7,-1
 991 651 l 2,8,9
 991 682 991 682 944 682 c 2,10,-1
 897 682 l 2,11,12
 824 682 824 682 784 657 c 1,13,14
 909 605 909 605 911 424 c 0,15,16
 914 231 914 231 768 102 c 0,17,18
 654 2 654 2 483 2 c 0,19,20
 346 2 346 2 264 77.5 c 128,-1,21
 182 153 182 153 180 289 c 0,22,23
 178 467 178 467 336 575 c 1,24,-1
 150 506 l 1,25,26
 133 489 133 489 82 489 c 0,27,28
 29 489 29 489 29 567 c 1,29,30
 35 624 35 624 90 627 c 1,31,-1
 483 735 l 1,32,33
 592 751 592 751 592 874 c 0,34,35
 592 952 592 952 506 952 c 0,36,37
 341 952 341 952 166 883 c 1,38,39
 152 879 152 879 76 856 c 1,40,41
 69 855 69 855 51 852 c 1,42,43
 20 855 20 855 8 864 c 1,44,45
 1 876 1 876 -2 913 c 1,46,47
 -2 960 -2 960 59 983 c 0,48,49
 478 1139 478 1139 983 1139 c 1,50,-1
 975 1030 l 1,51,52
 931 1030 931 1030 827 1010 c 0,53,54
 707 986 707 986 668 983 c 1,55,56
 703 983 703 983 728 949 c 0,57,58
 751 919 751 919 754 883 c 1,59,60
 750 874 750 874 733 826 c 128,-1,61
 716 778 716 778 684 758 c 1,62,63
 765 789 765 789 801 797 c 0,64,65
 883 813 883 813 991 813 c 0,66,67
 1035 813 1035 813 1081 786 c 1,68,69
 1131 758 1131 758 1130 713 c 0,0,1
772 403 m 1,70,71
 772 487 772 487 709 555 c 1,72,73
 652 615 652 615 559 618 c 1,74,75
 344 499 344 499 319 289 c 1,76,77
 319 222 319 222 367 172 c 0,78,79
 409 127 409 127 483 127 c 1,80,81
 584 143 584 143 668 207 c 0,82,83
 768 284 768 284 768 375 c 0,84,85
 768 389 768 389 772 403 c 1,70,71
EndSplineSet
Validated: 33
EndChar

